<?xml version="1.0" encoding="UTF-8" standalone="no"?>
<!DOCTYPE svg PUBLIC "-//W3C//DTD SVG 1.1//EN" "http://www.w3.org/Graphics/SVG/1.1/DTD/svg11.dtd">
<svg xmlns="http://www.w3.org/2000/svg" xmlns:xlink="http://www.w3.org/1999/xlink" version="1.1" width="595.32pt" height="841.92pt" viewBox="0 0 595.32 841.92">
<g enable-background="new">
<g>
<g id="Layer-1" data-name="P">
<path transform="matrix(1,0,0,-1,0,841.92)" d="M 50.603 337.11 L 544.86306 337.11 L 544.86306 464.15 L 50.603 464.15 Z " fill="#ffffff" fill-rule="evenodd"/>
<path transform="matrix(1,0,0,-1,0,841.92)" stroke-width=".23771" stroke-linecap="butt" stroke-linejoin="round" fill="none" stroke="#e0e0e0" d="M 61.091 371.3 L 541.38 371.3 M 61.091 389.18 L 541.38 389.18 M 61.091 407.05 L 541.38 407.05 M 61.091 424.93 L 541.38 424.93 M 61.091 442.81 L 541.38 442.81 M 61.091 460.67 L 541.38 460.67 "/>
<path transform="matrix(1,0,0,-1,0,841.92)" stroke-width=".23771" stroke-linecap="butt" stroke-linejoin="round" fill="none" stroke="#e0e0e0" d="M 61.091 353.42 L 541.38 353.42 "/>
<clipPath id="cp0">
<path transform="matrix(1,0,0,-1,0,841.92)" d="M 61.078 353.2 L 541.59799 353.2 L 541.59799 460.68003 L 61.078 460.68003 Z " fill-rule="evenodd"/>
</clipPath>
<g clip-path="url(#cp0)">
<path transform="matrix(1,0,0,-1,0,841.92)" stroke-width=".71314" stroke-linecap="round" stroke-linejoin="round" fill="none" stroke="#5b9bd5" d="M 62.952 353.42 L 66.669 353.58 L 70.397 353.77 L 74.124 355.75 L 77.851 354.49 L 81.579 353.5 L 85.306 354.03 L 88.995 354.76 L 92.723 356.2 L 96.45 353.69 L 100.18 353.42 L 103.9 353.96 L 107.63 353.77 L 111.36 353.69 L 115.09 353.77 L 118.81 353.69 L 122.54 353.88 L 126.23 354.03 L 129.96 354.03 L 133.69 354.22 L 137.41 354.15 L 141.14 354.49 L 144.87 354.83 L 148.59 353.58 L 152.32 353.96 L 156.05 356.81 L 159.74 361.57 L 163.47 354.22 L 167.19 354.49 L 170.92 354.15 L 174.65 353.96 L 178.38 353.69 L 182.1 354.22 L 185.83 354.15 L 189.56 354.3 L 193.25 356.47 L 196.97 355.75 L 200.7 354.41 L 204.43 355.02 L 208.16 354.15 L 211.88 354.22 L 215.61 353.5 L 219.34 354.41 L 223.07 355.02 L 226.76 355.02 L 230.48 355.48 L 234.21 355.67 L 237.94 356.09 L 241.66 355.94 L 245.39 355.56 L 249.12 353.88 L 252.85 354.41 L 256.57 354.03 L 260.26 354.3 L 263.99 355.29 L 267.72 355.48 L 271.45 359.93 L 275.17 363.43 L 278.9 370.66 L 282.63 370.12 L 286.35 375.14 L 290.08 376.55 L 293.77 375.22 L 297.5 373.24 L 301.23 375.75 L 304.95 390.05 L 308.68 399.37 L 312.41 400.32 L 316.14 399.26 L 319.86 383.82 L 323.59 379.59 L 327.28 377.65 L 331.01 375.94 L 334.73 380.58 L 338.46 373.62 L 342.19 374.34 L 345.92 373.55 L 349.64 370.05 L 353.37 374.76 L 357.1 372.9 L 360.79 375.68 L 364.51 376.66 L 368.24 372.9 L 371.97 378.98 L 375.7 376.47 L 379.42 371.11 L 383.15 369.67 L 386.88 368.79 L 390.61 376.82 L 394.33 371.04 L 398.02 371.19 L 401.75 372.98 L 405.48 369.67 L 409.2 370.77 L 412.93 371.83 L 416.66 369.51 L 420.39 372.56 L 424.11 373.81 L 427.84 369.25 L 431.53 367.35 L 435.26 368.87 L 438.99 367.19 L 442.71 369.4 L 446.44 374.5 L 450.17 371.83 L 453.9 372.71 L 457.62 378.6 L 461.35 373.43 L 465.04 375.6 L 468.77 369.25 L 472.49 372.56 L 476.22 377.92 L 479.95 377.39 L 483.68 385.34 L 487.4 386.4 L 491.13 396.59 L 494.86 394.27 L 498.55 416.41 L 502.27 404.47 L 506 389.98 L 509.73 407.85 L 513.46 418.31 L 517.18 445.12 L 520.91 408.31 L 524.64 402.49 L 528.37 403.36 L 532.06 399.79 L 535.78 392.83 L 539.52 376.55 "/>
</g>
</g>
<g id="Layer-1" data-name="P">
<clipPath id="cp1">
<path transform="matrix(1,0,0,-1,0,841.92)" d="M 50.64 337.08 L 544.92 337.08 L 544.92 464.15998 L 50.64 464.15998 Z " fill-rule="evenodd"/>
</clipPath>
<g clip-path="url(#cp1)">
<text fill="#6c6c6c" xml:space="preserve" transform="matrix(1 0 -0 1 0 841.92)" font-size="2.856" font-family="Calibri"><tspan y="-352.56" x="57">0</tspan></text>
</g>
</g>
<g id="Layer-1" data-name="P">
<clipPath id="cp2">
<path transform="matrix(1,0,0,-1,0,841.92)" d="M 50.64 337.08 L 544.92 337.08 L 544.92 464.15998 L 50.64 464.15998 Z " fill-rule="evenodd"/>
</clipPath>
<g clip-path="url(#cp2)">
<text fill="#6c6c6c" xml:space="preserve" transform="matrix(1 0 -0 1 0 841.92)" font-size="2.832" font-family="Calibri"><tspan y="-370.42" x="54.12 55.56 57.000005">200</tspan></text>
</g>
</g>
<g id="Layer-1" data-name="P">
<clipPath id="cp3">
<path transform="matrix(1,0,0,-1,0,841.92)" d="M 50.64 337.08 L 544.92 337.08 L 544.92 464.15998 L 50.64 464.15998 Z " fill-rule="evenodd"/>
</clipPath>
<g clip-path="url(#cp3)">
<text fill="#6c6c6c" xml:space="preserve" transform="matrix(1 0 -0 1 0 841.92)" font-size="2.832" font-family="Calibri"><tspan y="-388.3" x="54.12 55.56 57.000005">400</tspan></text>
</g>
</g>
<g id="Layer-1" data-name="P">
<clipPath id="cp4">
<path transform="matrix(1,0,0,-1,0,841.92)" d="M 50.64 337.08 L 544.92 337.08 L 544.92 464.15998 L 50.64 464.15998 Z " fill-rule="evenodd"/>
</clipPath>
<g clip-path="url(#cp4)">
<text fill="#6c6c6c" xml:space="preserve" transform="matrix(1 0 -0 1 0 841.92)" font-size="2.856" font-family="Calibri"><tspan y="-406.18" x="54.12 55.56 57.000005">600</tspan></text>
</g>
</g>
<g id="Layer-1" data-name="P">
<clipPath id="cp5">
<path transform="matrix(1,0,0,-1,0,841.92)" d="M 50.64 337.08 L 544.92 337.08 L 544.92 464.15998 L 50.64 464.15998 Z " fill-rule="evenodd"/>
</clipPath>
<g clip-path="url(#cp5)">
<text fill="#6c6c6c" xml:space="preserve" transform="matrix(1 0 -0 1 0 841.92)" font-size="2.856" font-family="Calibri"><tspan y="-424.06" x="54.12 55.56 57.000005">800</tspan></text>
</g>
</g>
<g id="Layer-1" data-name="P">
<clipPath id="cp6">
<path transform="matrix(1,0,0,-1,0,841.92)" d="M 50.64 337.08 L 544.92 337.08 L 544.92 464.15998 L 50.64 464.15998 Z " fill-rule="evenodd"/>
</clipPath>
<g clip-path="url(#cp6)">
<text fill="#6c6c6c" xml:space="preserve" transform="matrix(1 0 -0 1 0 841.92)" font-size="2.856" font-family="Calibri"><tspan y="-441.94" x="52.68 54.120004 55.560007 57.000009">1000</tspan></text>
</g>
</g>
<g id="Layer-1" data-name="P">
<clipPath id="cp7">
<path transform="matrix(1,0,0,-1,0,841.92)" d="M 50.64 337.08 L 544.92 337.08 L 544.92 464.15998 L 50.64 464.15998 Z " fill-rule="evenodd"/>
</clipPath>
<g clip-path="url(#cp7)">
<text fill="#6c6c6c" xml:space="preserve" transform="matrix(1 0 -0 1 0 841.92)" font-size="2.856" font-family="Calibri"><tspan y="-459.82" x="52.68 54.120004 55.560007 57.000009">1200</tspan></text>
</g>
</g>
<g id="Layer-1" data-name="P">
<clipPath id="cp8">
<path transform="matrix(1,0,0,-1,0,841.92)" d="M 50.64 337.08 L 544.92 337.08 L 544.92 464.15998 L 50.64 464.15998 Z " fill-rule="evenodd"/>
</clipPath>
<g clip-path="url(#cp8)">
<text fill="#6c6c6c" xml:space="preserve" transform="matrix(-.000000044 -1 1 -.000000044 0 841.92)" font-size="2.856" font-family="Calibri"><tspan y="67.65601" x="339.1 340.548 341.97886 343.42686 344.8577 345.74305 347.19105 348.6219 350.0699">1700-1750</tspan></text>
</g>
</g>
<g id="Layer-1" data-name="P">
<clipPath id="cp9">
<path transform="matrix(1,0,0,-1,0,841.92)" d="M 50.64 337.08 L 544.92 337.08 L 544.92 464.15998 L 50.64 464.15998 Z " fill-rule="evenodd"/>
</clipPath>
<g clip-path="url(#cp9)">
<text fill="#6c6c6c" xml:space="preserve" transform="matrix(-.000000044 -1 1 -.000000044 0 841.92)" font-size="2.856" font-family="Calibri"><tspan y="71.376018" x="339.1 340.548 341.97886 343.42686 344.8577 345.74305 347.19105 348.6219 350.0699">1750-1800</tspan></text>
</g>
</g>
<g id="Layer-1" data-name="P">
<clipPath id="cp10">
<path transform="matrix(1,0,0,-1,0,841.92)" d="M 50.64 337.08 L 544.92 337.08 L 544.92 464.15998 L 50.64 464.15998 Z " fill-rule="evenodd"/>
</clipPath>
<g clip-path="url(#cp10)">
<text fill="#6c6c6c" xml:space="preserve" transform="matrix(-.000000044 -1 1 -.000000044 0 841.92)" font-size="2.856" font-family="Calibri"><tspan y="75.096019" x="339.1 340.548 341.97886 343.42686 344.8577 345.74305 347.19105 348.6219 350.0699">1800-1850</tspan></text>
</g>
</g>
<g id="Layer-1" data-name="P">
<clipPath id="cp11">
<path transform="matrix(1,0,0,-1,0,841.92)" d="M 50.64 337.08 L 544.92 337.08 L 544.92 464.15998 L 50.64 464.15998 Z " fill-rule="evenodd"/>
</clipPath>
<g clip-path="url(#cp11)">
<text fill="#6c6c6c" xml:space="preserve" transform="matrix(-.000000044 -1 1 -.000000044 0 841.92)" font-size="2.856" font-family="Calibri"><tspan y="78.81602" x="339.1 340.548 341.97886 343.42686 344.8577 345.74305 347.19105 348.6219 350.0699">1850-1860</tspan></text>
</g>
</g>
<g id="Layer-1" data-name="P">
<clipPath id="cp12">
<path transform="matrix(1,0,0,-1,0,841.92)" d="M 50.64 337.08 L 544.92 337.08 L 544.92 464.15998 L 50.64 464.15998 Z " fill-rule="evenodd"/>
</clipPath>
<g clip-path="url(#cp12)">
<text fill="#6c6c6c" xml:space="preserve" transform="matrix(-.000000044 -1 1 -.000000044 0 841.92)" font-size="2.856" font-family="Calibri"><tspan y="82.53602" x="339.1 340.548 341.97886 343.42686 344.8577 345.74305 347.19105 348.6219 350.0699">1860-1870</tspan></text>
</g>
</g>
<g id="Layer-1" data-name="P">
<clipPath id="cp13">
<path transform="matrix(1,0,0,-1,0,841.92)" d="M 50.64 337.08 L 544.92 337.08 L 544.92 464.15998 L 50.64 464.15998 Z " fill-rule="evenodd"/>
</clipPath>
<g clip-path="url(#cp13)">
<text fill="#6c6c6c" xml:space="preserve" transform="matrix(-.000000044000005 -1 1 -.000000044000005 0 841.92)" font-size="2.832" font-family="Calibri"><tspan y="86.280017" x="339.1 340.53584 341.97166 343.41596 344.85179 345.741 347.17683 348.61265 350.05696">1870-1880</tspan></text>
</g>
</g>
<g id="Layer-1" data-name="P">
<clipPath id="cp14">
<path transform="matrix(1,0,0,-1,0,841.92)" d="M 50.64 337.08 L 544.92 337.08 L 544.92 464.15998 L 50.64 464.15998 Z " fill-rule="evenodd"/>
</clipPath>
<g clip-path="url(#cp14)">
<text fill="#6c6c6c" xml:space="preserve" transform="matrix(-.000000044 -1 1 -.000000044 0 841.92)" font-size="2.856" font-family="Calibri"><tspan y="90.000019" x="339.1 340.548 341.97886 343.42686 344.8577 345.74305 347.19105 348.6219 350.0699">1880-1890</tspan></text>
</g>
</g>
<g id="Layer-1" data-name="P">
<clipPath id="cp15">
<path transform="matrix(1,0,0,-1,0,841.92)" d="M 50.64 337.08 L 544.92 337.08 L 544.92 464.15998 L 50.64 464.15998 Z " fill-rule="evenodd"/>
</clipPath>
<g clip-path="url(#cp15)">
<text fill="#6c6c6c" xml:space="preserve" transform="matrix(-.000000044 -1 1 -.000000044 0 841.92)" font-size="2.856" font-family="Calibri"><tspan y="93.72002" x="339.1 340.548 341.97886 343.42686 344.8577 345.74305 347.19105 348.6219 350.0699">1890-1900</tspan></text>
</g>
</g>
<g id="Layer-1" data-name="P">
<clipPath id="cp16">
<path transform="matrix(1,0,0,-1,0,841.92)" d="M 50.64 337.08 L 544.92 337.08 L 544.92 464.15998 L 50.64 464.15998 Z " fill-rule="evenodd"/>
</clipPath>
<g clip-path="url(#cp16)">
<text fill="#6c6c6c" xml:space="preserve" transform="matrix(-.000000044 -1 1 -.000000044 0 841.92)" font-size="2.856" font-family="Calibri"><tspan y="97.44002" x="345.77 347.21 348.65 350.09">1901</tspan></text>
</g>
</g>
<g id="Layer-1" data-name="P">
<clipPath id="cp17">
<path transform="matrix(1,0,0,-1,0,841.92)" d="M 50.64 337.08 L 544.92 337.08 L 544.92 464.15998 L 50.64 464.15998 Z " fill-rule="evenodd"/>
</clipPath>
<g clip-path="url(#cp17)">
<text fill="#6c6c6c" xml:space="preserve" transform="matrix(-.000000044 -1 1 -.000000044 0 841.92)" font-size="2.856" font-family="Calibri"><tspan y="101.16002" x="345.77 347.21 348.65 350.09">1902</tspan></text>
</g>
</g>
<g id="Layer-1" data-name="P">
<clipPath id="cp18">
<path transform="matrix(1,0,0,-1,0,841.92)" d="M 50.64 337.08 L 544.92 337.08 L 544.92 464.15998 L 50.64 464.15998 Z " fill-rule="evenodd"/>
</clipPath>
<g clip-path="url(#cp18)">
<text fill="#6c6c6c" xml:space="preserve" transform="matrix(-.000000044 -1 1 -.000000044 0 841.92)" font-size="2.856" font-family="Calibri"><tspan y="104.88001" x="345.77 347.21 348.65 350.09">1903</tspan></text>
</g>
</g>
<g id="Layer-1" data-name="P">
<clipPath id="cp19">
<path transform="matrix(1,0,0,-1,0,841.92)" d="M 50.64 337.08 L 544.92 337.08 L 544.92 464.15998 L 50.64 464.15998 Z " fill-rule="evenodd"/>
</clipPath>
<g clip-path="url(#cp19)">
<text fill="#6c6c6c" xml:space="preserve" transform="matrix(-.000000044 -1 1 -.000000044 0 841.92)" font-size="2.856" font-family="Calibri"><tspan y="108.60001" x="345.77 347.21 348.65 350.09">1904</tspan></text>
</g>
</g>
<g id="Layer-1" data-name="P">
<clipPath id="cp20">
<path transform="matrix(1,0,0,-1,0,841.92)" d="M 50.64 337.08 L 544.92 337.08 L 544.92 464.15998 L 50.64 464.15998 Z " fill-rule="evenodd"/>
</clipPath>
<g clip-path="url(#cp20)">
<text fill="#6c6c6c" xml:space="preserve" transform="matrix(-.000000044 -1 1 -.000000044 0 841.92)" font-size="2.856" font-family="Calibri"><tspan y="112.34001" x="345.77 347.21 348.65 350.09">1905</tspan></text>
</g>
</g>
<g id="Layer-1" data-name="P">
<clipPath id="cp21">
<path transform="matrix(1,0,0,-1,0,841.92)" d="M 50.64 337.08 L 544.92 337.08 L 544.92 464.15998 L 50.64 464.15998 Z " fill-rule="evenodd"/>
</clipPath>
<g clip-path="url(#cp21)">
<text fill="#6c6c6c" xml:space="preserve" transform="matrix(-.000000044 -1 1 -.000000044 0 841.92)" font-size="2.856" font-family="Calibri"><tspan y="116.06001" x="345.77 347.21 348.65 350.09">1906</tspan></text>
</g>
</g>
<g id="Layer-1" data-name="P">
<clipPath id="cp22">
<path transform="matrix(1,0,0,-1,0,841.92)" d="M 50.64 337.08 L 544.92 337.08 L 544.92 464.15998 L 50.64 464.15998 Z " fill-rule="evenodd"/>
</clipPath>
<g clip-path="url(#cp22)">
<text fill="#6c6c6c" xml:space="preserve" transform="matrix(-.000000044 -1 1 -.000000044 0 841.92)" font-size="2.856" font-family="Calibri"><tspan y="119.780017" x="345.77 347.21 348.65 350.09">1907</tspan></text>
</g>
</g>
<g id="Layer-1" data-name="P">
<clipPath id="cp23">
<path transform="matrix(1,0,0,-1,0,841.92)" d="M 50.64 337.08 L 544.92 337.08 L 544.92 464.15998 L 50.64 464.15998 Z " fill-rule="evenodd"/>
</clipPath>
<g clip-path="url(#cp23)">
<text fill="#6c6c6c" xml:space="preserve" transform="matrix(-.000000044 -1 1 -.000000044 0 841.92)" font-size="2.856" font-family="Calibri"><tspan y="123.500019" x="345.77 347.21 348.65 350.09">1908</tspan></text>
</g>
</g>
<g id="Layer-1" data-name="P">
<clipPath id="cp24">
<path transform="matrix(1,0,0,-1,0,841.92)" d="M 50.64 337.08 L 544.92 337.08 L 544.92 464.15998 L 50.64 464.15998 Z " fill-rule="evenodd"/>
</clipPath>
<g clip-path="url(#cp24)">
<text fill="#6c6c6c" xml:space="preserve" transform="matrix(-.000000044 -1 1 -.000000044 0 841.92)" font-size="2.856" font-family="Calibri"><tspan y="127.22002" x="345.77 347.21 348.65 350.09">1909</tspan></text>
</g>
</g>
<g id="Layer-1" data-name="P">
<clipPath id="cp25">
<path transform="matrix(1,0,0,-1,0,841.92)" d="M 50.64 337.08 L 544.92 337.08 L 544.92 464.15998 L 50.64 464.15998 Z " fill-rule="evenodd"/>
</clipPath>
<g clip-path="url(#cp25)">
<text fill="#6c6c6c" xml:space="preserve" transform="matrix(-.000000044 -1 1 -.000000044 0 841.92)" font-size="2.856" font-family="Calibri"><tspan y="130.94002" x="345.77 347.21 348.65 350.09">1910</tspan></text>
</g>
</g>
<g id="Layer-1" data-name="P">
<clipPath id="cp26">
<path transform="matrix(1,0,0,-1,0,841.92)" d="M 50.64 337.08 L 544.92 337.08 L 544.92 464.15998 L 50.64 464.15998 Z " fill-rule="evenodd"/>
</clipPath>
<g clip-path="url(#cp26)">
<text fill="#6c6c6c" xml:space="preserve" transform="matrix(-.000000044000005 -1 1 -.000000044000005 0 841.92)" font-size="2.832" font-family="Calibri"><tspan y="134.69002" x="345.77 347.21 348.65 350.09">1911</tspan></text>
</g>
</g>
<g id="Layer-1" data-name="P">
<clipPath id="cp27">
<path transform="matrix(1,0,0,-1,0,841.92)" d="M 50.64 337.08 L 544.92 337.08 L 544.92 464.15998 L 50.64 464.15998 Z " fill-rule="evenodd"/>
</clipPath>
<g clip-path="url(#cp27)">
<text fill="#6c6c6c" xml:space="preserve" transform="matrix(-.000000044 -1 1 -.000000044 0 841.92)" font-size="2.856" font-family="Calibri"><tspan y="138.41002" x="345.77 347.21 348.65 350.09">1912</tspan></text>
</g>
</g>
<g id="Layer-1" data-name="P">
<clipPath id="cp28">
<path transform="matrix(1,0,0,-1,0,841.92)" d="M 50.64 337.08 L 544.92 337.08 L 544.92 464.15998 L 50.64 464.15998 Z " fill-rule="evenodd"/>
</clipPath>
<g clip-path="url(#cp28)">
<text fill="#6c6c6c" xml:space="preserve" transform="matrix(-.000000044 -1 1 -.000000044 0 841.92)" font-size="2.856" font-family="Calibri"><tspan y="142.13002" x="345.77 347.21 348.65 350.09">1913</tspan></text>
</g>
</g>
<g id="Layer-1" data-name="P">
<clipPath id="cp29">
<path transform="matrix(1,0,0,-1,0,841.92)" d="M 50.64 337.08 L 544.92 337.08 L 544.92 464.15998 L 50.64 464.15998 Z " fill-rule="evenodd"/>
</clipPath>
<g clip-path="url(#cp29)">
<text fill="#6c6c6c" xml:space="preserve" transform="matrix(-.000000044 -1 1 -.000000044 0 841.92)" font-size="2.856" font-family="Calibri"><tspan y="145.85002" x="345.77 347.21 348.65 350.09">1914</tspan></text>
</g>
</g>
<g id="Layer-1" data-name="P">
<clipPath id="cp30">
<path transform="matrix(1,0,0,-1,0,841.92)" d="M 50.64 337.08 L 544.92 337.08 L 544.92 464.15998 L 50.64 464.15998 Z " fill-rule="evenodd"/>
</clipPath>
<g clip-path="url(#cp30)">
<text fill="#6c6c6c" xml:space="preserve" transform="matrix(-.000000044 -1 1 -.000000044 0 841.92)" font-size="2.856" font-family="Calibri"><tspan y="149.57003" x="345.77 347.21 348.65 350.09">1915</tspan></text>
</g>
</g>
<g id="Layer-1" data-name="P">
<clipPath id="cp31">
<path transform="matrix(1,0,0,-1,0,841.92)" d="M 50.64 337.08 L 544.92 337.08 L 544.92 464.15998 L 50.64 464.15998 Z " fill-rule="evenodd"/>
</clipPath>
<g clip-path="url(#cp31)">
<text fill="#6c6c6c" xml:space="preserve" transform="matrix(-.000000044 -1 1 -.000000044 0 841.92)" font-size="2.856" font-family="Calibri"><tspan y="153.29001" x="345.77 347.21 348.65 350.09">1916</tspan></text>
</g>
</g>
<g id="Layer-1" data-name="P">
<clipPath id="cp32">
<path transform="matrix(1,0,0,-1,0,841.92)" d="M 50.64 337.08 L 544.92 337.08 L 544.92 464.15998 L 50.64 464.15998 Z " fill-rule="evenodd"/>
</clipPath>
<g clip-path="url(#cp32)">
<text fill="#6c6c6c" xml:space="preserve" transform="matrix(-.000000044000005 -1 1 -.000000044000005 0 841.92)" font-size="2.832" font-family="Calibri"><tspan y="157.03002" x="345.77 347.21 348.65 350.09">1917</tspan></text>
</g>
</g>
<g id="Layer-1" data-name="P">
<clipPath id="cp33">
<path transform="matrix(1,0,0,-1,0,841.92)" d="M 50.64 337.08 L 544.92 337.08 L 544.92 464.15998 L 50.64 464.15998 Z " fill-rule="evenodd"/>
</clipPath>
<g clip-path="url(#cp33)">
<text fill="#6c6c6c" xml:space="preserve" transform="matrix(-.000000044 -1 1 -.000000044 0 841.92)" font-size="2.856" font-family="Calibri"><tspan y="160.75002" x="345.77 347.21 348.65 350.09">1918</tspan></text>
</g>
</g>
<g id="Layer-1" data-name="P">
<clipPath id="cp34">
<path transform="matrix(1,0,0,-1,0,841.92)" d="M 50.64 337.08 L 544.92 337.08 L 544.92 464.15998 L 50.64 464.15998 Z " fill-rule="evenodd"/>
</clipPath>
<g clip-path="url(#cp34)">
<text fill="#6c6c6c" xml:space="preserve" transform="matrix(-.000000044 -1 1 -.000000044 0 841.92)" font-size="2.856" font-family="Calibri"><tspan y="164.47002" x="345.77 347.21 348.65 350.09">1919</tspan></text>
</g>
</g>
<g id="Layer-1" data-name="P">
<clipPath id="cp35">
<path transform="matrix(1,0,0,-1,0,841.92)" d="M 50.64 337.08 L 544.92 337.08 L 544.92 464.15998 L 50.64 464.15998 Z " fill-rule="evenodd"/>
</clipPath>
<g clip-path="url(#cp35)">
<text fill="#6c6c6c" xml:space="preserve" transform="matrix(-.000000044 -1 1 -.000000044 0 841.92)" font-size="2.856" font-family="Calibri"><tspan y="168.19002" x="345.77 347.21 348.65 350.09">1920</tspan></text>
</g>
</g>
<g id="Layer-1" data-name="P">
<clipPath id="cp36">
<path transform="matrix(1,0,0,-1,0,841.92)" d="M 50.64 337.08 L 544.92 337.08 L 544.92 464.15998 L 50.64 464.15998 Z " fill-rule="evenodd"/>
</clipPath>
<g clip-path="url(#cp36)">
<text fill="#6c6c6c" xml:space="preserve" transform="matrix(-.000000044 -1 1 -.000000044 0 841.92)" font-size="2.856" font-family="Calibri"><tspan y="171.91002" x="345.77 347.21 348.65 350.09">1921</tspan></text>
</g>
</g>
<g id="Layer-1" data-name="P">
<clipPath id="cp37">
<path transform="matrix(1,0,0,-1,0,841.92)" d="M 50.64 337.08 L 544.92 337.08 L 544.92 464.15998 L 50.64 464.15998 Z " fill-rule="evenodd"/>
</clipPath>
<g clip-path="url(#cp37)">
<text fill="#6c6c6c" xml:space="preserve" transform="matrix(-.000000044 -1 1 -.000000044 0 841.92)" font-size="2.856" font-family="Calibri"><tspan y="175.63002" x="345.77 347.21 348.65 350.09">1922</tspan></text>
</g>
</g>
<g id="Layer-1" data-name="P">
<clipPath id="cp38">
<path transform="matrix(1,0,0,-1,0,841.92)" d="M 50.64 337.08 L 544.92 337.08 L 544.92 464.15998 L 50.64 464.15998 Z " fill-rule="evenodd"/>
</clipPath>
<g clip-path="url(#cp38)">
<text fill="#6c6c6c" xml:space="preserve" transform="matrix(-.000000044000005 -1 1 -.000000044000005 0 841.92)" font-size="2.832" font-family="Calibri"><tspan y="179.38002" x="345.77 347.21 348.65 350.09">1923</tspan></text>
</g>
</g>
<g id="Layer-1" data-name="P">
<clipPath id="cp39">
<path transform="matrix(1,0,0,-1,0,841.92)" d="M 50.64 337.08 L 544.92 337.08 L 544.92 464.15998 L 50.64 464.15998 Z " fill-rule="evenodd"/>
</clipPath>
<g clip-path="url(#cp39)">
<text fill="#6c6c6c" xml:space="preserve" transform="matrix(-.000000044 -1 1 -.000000044 0 841.92)" font-size="2.856" font-family="Calibri"><tspan y="183.10002" x="345.77 347.21 348.65 350.09">1924</tspan></text>
</g>
</g>
<g id="Layer-1" data-name="P">
<clipPath id="cp40">
<path transform="matrix(1,0,0,-1,0,841.92)" d="M 50.64 337.08 L 544.92 337.08 L 544.92 464.15998 L 50.64 464.15998 Z " fill-rule="evenodd"/>
</clipPath>
<g clip-path="url(#cp40)">
<text fill="#6c6c6c" xml:space="preserve" transform="matrix(-.000000044 -1 1 -.000000044 0 841.92)" font-size="2.856" font-family="Calibri"><tspan y="186.82003" x="345.77 347.21 348.65 350.09">1925</tspan></text>
</g>
</g>
<g id="Layer-1" data-name="P">
<clipPath id="cp41">
<path transform="matrix(1,0,0,-1,0,841.92)" d="M 50.64 337.08 L 544.92 337.08 L 544.92 464.15998 L 50.64 464.15998 Z " fill-rule="evenodd"/>
</clipPath>
<g clip-path="url(#cp41)">
<text fill="#6c6c6c" xml:space="preserve" transform="matrix(-.000000044 -1 1 -.000000044 0 841.92)" font-size="2.856" font-family="Calibri"><tspan y="190.54001" x="345.77 347.21 348.65 350.09">1926</tspan></text>
</g>
</g>
<g id="Layer-1" data-name="P">
<clipPath id="cp42">
<path transform="matrix(1,0,0,-1,0,841.92)" d="M 50.64 337.08 L 544.92 337.08 L 544.92 464.15998 L 50.64 464.15998 Z " fill-rule="evenodd"/>
</clipPath>
<g clip-path="url(#cp42)">
<text fill="#6c6c6c" xml:space="preserve" transform="matrix(-.000000044 -1 1 -.000000044 0 841.92)" font-size="2.856" font-family="Calibri"><tspan y="194.26001" x="345.77 347.21 348.65 350.09">1927</tspan></text>
</g>
</g>
<g id="Layer-1" data-name="P">
<clipPath id="cp43">
<path transform="matrix(1,0,0,-1,0,841.92)" d="M 50.64 337.08 L 544.92 337.08 L 544.92 464.15998 L 50.64 464.15998 Z " fill-rule="evenodd"/>
</clipPath>
<g clip-path="url(#cp43)">
<text fill="#6c6c6c" xml:space="preserve" transform="matrix(-.000000044 -1 1 -.000000044 0 841.92)" font-size="2.856" font-family="Calibri"><tspan y="197.98001" x="345.77 347.21 348.65 350.09">1928</tspan></text>
</g>
</g>
<g id="Layer-1" data-name="P">
<clipPath id="cp44">
<path transform="matrix(1,0,0,-1,0,841.92)" d="M 50.64 337.08 L 544.92 337.08 L 544.92 464.15998 L 50.64 464.15998 Z " fill-rule="evenodd"/>
</clipPath>
<g clip-path="url(#cp44)">
<text fill="#6c6c6c" xml:space="preserve" transform="matrix(-.000000044000005 -1 1 -.000000044000005 0 841.92)" font-size="2.832" font-family="Calibri"><tspan y="201.72002" x="345.77 347.21 348.65 350.09">1929</tspan></text>
</g>
</g>
<g id="Layer-1" data-name="P">
<clipPath id="cp45">
<path transform="matrix(1,0,0,-1,0,841.92)" d="M 50.64 337.08 L 544.92 337.08 L 544.92 464.15998 L 50.64 464.15998 Z " fill-rule="evenodd"/>
</clipPath>
<g clip-path="url(#cp45)">
<text fill="#6c6c6c" xml:space="preserve" transform="matrix(-.000000044 -1 1 -.000000044 0 841.92)" font-size="2.856" font-family="Calibri"><tspan y="205.44002" x="345.77 347.21 348.65 350.09">1930</tspan></text>
</g>
</g>
<g id="Layer-1" data-name="P">
<clipPath id="cp46">
<path transform="matrix(1,0,0,-1,0,841.92)" d="M 50.64 337.08 L 544.92 337.08 L 544.92 464.15998 L 50.64 464.15998 Z " fill-rule="evenodd"/>
</clipPath>
<g clip-path="url(#cp46)">
<text fill="#6c6c6c" xml:space="preserve" transform="matrix(-.000000044 -1 1 -.000000044 0 841.92)" font-size="2.856" font-family="Calibri"><tspan y="209.16002" x="345.77 347.21 348.65 350.09">1931</tspan></text>
</g>
</g>
<g id="Layer-1" data-name="P">
<clipPath id="cp47">
<path transform="matrix(1,0,0,-1,0,841.92)" d="M 50.64 337.08 L 544.92 337.08 L 544.92 464.15998 L 50.64 464.15998 Z " fill-rule="evenodd"/>
</clipPath>
<g clip-path="url(#cp47)">
<text fill="#6c6c6c" xml:space="preserve" transform="matrix(-.000000044 -1 1 -.000000044 0 841.92)" font-size="2.856" font-family="Calibri"><tspan y="212.88002" x="345.77 347.21 348.65 350.09">1932</tspan></text>
</g>
</g>
<g id="Layer-1" data-name="P">
<clipPath id="cp48">
<path transform="matrix(1,0,0,-1,0,841.92)" d="M 50.64 337.08 L 544.92 337.08 L 544.92 464.15998 L 50.64 464.15998 Z " fill-rule="evenodd"/>
</clipPath>
<g clip-path="url(#cp48)">
<text fill="#6c6c6c" xml:space="preserve" transform="matrix(-.000000044 -1 1 -.000000044 0 841.92)" font-size="2.856" font-family="Calibri"><tspan y="216.60002" x="345.77 347.21 348.65 350.09">1933</tspan></text>
</g>
</g>
<g id="Layer-1" data-name="P">
<clipPath id="cp49">
<path transform="matrix(1,0,0,-1,0,841.92)" d="M 50.64 337.08 L 544.92 337.08 L 544.92 464.15998 L 50.64 464.15998 Z " fill-rule="evenodd"/>
</clipPath>
<g clip-path="url(#cp49)">
<text fill="#6c6c6c" xml:space="preserve" transform="matrix(-.000000044 -1 1 -.000000044 0 841.92)" font-size="2.856" font-family="Calibri"><tspan y="220.32003" x="345.77 347.21 348.65 350.09">1934</tspan></text>
</g>
</g>
<g id="Layer-1" data-name="P">
<clipPath id="cp50">
<path transform="matrix(1,0,0,-1,0,841.92)" d="M 50.64 337.08 L 544.92 337.08 L 544.92 464.15998 L 50.64 464.15998 Z " fill-rule="evenodd"/>
</clipPath>
<g clip-path="url(#cp50)">
<text fill="#6c6c6c" xml:space="preserve" transform="matrix(-.000000044 -1 1 -.000000044 0 841.92)" font-size="2.856" font-family="Calibri"><tspan y="224.04001" x="345.77 347.21 348.65 350.09">1935</tspan></text>
</g>
</g>
<g id="Layer-1" data-name="P">
<clipPath id="cp51">
<path transform="matrix(1,0,0,-1,0,841.92)" d="M 50.64 337.08 L 544.92 337.08 L 544.92 464.15998 L 50.64 464.15998 Z " fill-rule="evenodd"/>
</clipPath>
<g clip-path="url(#cp51)">
<text fill="#6c6c6c" xml:space="preserve" transform="matrix(-.000000044 -1 1 -.000000044 0 841.92)" font-size="2.856" font-family="Calibri"><tspan y="227.78002" x="345.77 347.21 348.65 350.09">1936</tspan></text>
</g>
</g>
<g id="Layer-1" data-name="P">
<clipPath id="cp52">
<path transform="matrix(1,0,0,-1,0,841.92)" d="M 50.64 337.08 L 544.92 337.08 L 544.92 464.15998 L 50.64 464.15998 Z " fill-rule="evenodd"/>
</clipPath>
<g clip-path="url(#cp52)">
<text fill="#6c6c6c" xml:space="preserve" transform="matrix(-.000000044 -1 1 -.000000044 0 841.92)" font-size="2.856" font-family="Calibri"><tspan y="231.50002" x="345.77 347.21 348.65 350.09">1937</tspan></text>
</g>
</g>
<g id="Layer-1" data-name="P">
<clipPath id="cp53">
<path transform="matrix(1,0,0,-1,0,841.92)" d="M 50.64 337.08 L 544.92 337.08 L 544.92 464.15998 L 50.64 464.15998 Z " fill-rule="evenodd"/>
</clipPath>
<g clip-path="url(#cp53)">
<text fill="#6c6c6c" xml:space="preserve" transform="matrix(-.000000044 -1 1 -.000000044 0 841.92)" font-size="2.856" font-family="Calibri"><tspan y="235.22002" x="345.77 347.21 348.65 350.09">1938</tspan></text>
</g>
</g>
<g id="Layer-1" data-name="P">
<clipPath id="cp54">
<path transform="matrix(1,0,0,-1,0,841.92)" d="M 50.64 337.08 L 544.92 337.08 L 544.92 464.15998 L 50.64 464.15998 Z " fill-rule="evenodd"/>
</clipPath>
<g clip-path="url(#cp54)">
<text fill="#6c6c6c" xml:space="preserve" transform="matrix(-.000000044 -1 1 -.000000044 0 841.92)" font-size="2.856" font-family="Calibri"><tspan y="238.94002" x="345.77 347.21 348.65 350.09">1939</tspan></text>
</g>
</g>
<g id="Layer-1" data-name="P">
<clipPath id="cp55">
<path transform="matrix(1,0,0,-1,0,841.92)" d="M 50.64 337.08 L 544.92 337.08 L 544.92 464.15998 L 50.64 464.15998 Z " fill-rule="evenodd"/>
</clipPath>
<g clip-path="url(#cp55)">
<text fill="#6c6c6c" xml:space="preserve" transform="matrix(-.000000044 -1 1 -.000000044 0 841.92)" font-size="2.856" font-family="Calibri"><tspan y="242.66002" x="345.77 347.21 348.65 350.09">1940</tspan></text>
</g>
</g>
<g id="Layer-1" data-name="P">
<clipPath id="cp56">
<path transform="matrix(1,0,0,-1,0,841.92)" d="M 50.64 337.08 L 544.92 337.08 L 544.92 464.15998 L 50.64 464.15998 Z " fill-rule="evenodd"/>
</clipPath>
<g clip-path="url(#cp56)">
<text fill="#6c6c6c" xml:space="preserve" transform="matrix(-.000000044 -1 1 -.000000044 0 841.92)" font-size="2.856" font-family="Calibri"><tspan y="246.38002" x="345.77 347.21 348.65 350.09">1941</tspan></text>
</g>
</g>
<g id="Layer-1" data-name="P">
<clipPath id="cp57">
<path transform="matrix(1,0,0,-1,0,841.92)" d="M 50.64 337.08 L 544.92 337.08 L 544.92 464.15998 L 50.64 464.15998 Z " fill-rule="evenodd"/>
</clipPath>
<g clip-path="url(#cp57)">
<text fill="#6c6c6c" xml:space="preserve" transform="matrix(-.000000044 -1 1 -.000000044 0 841.92)" font-size="2.856" font-family="Calibri"><tspan y="250.13002" x="345.77 347.21 348.65 350.09">1942</tspan></text>
</g>
</g>
<g id="Layer-1" data-name="P">
<clipPath id="cp58">
<path transform="matrix(1,0,0,-1,0,841.92)" d="M 50.64 337.08 L 544.92 337.08 L 544.92 464.15998 L 50.64 464.15998 Z " fill-rule="evenodd"/>
</clipPath>
<g clip-path="url(#cp58)">
<text fill="#6c6c6c" xml:space="preserve" transform="matrix(-.000000044 -1 1 -.000000044 0 841.92)" font-size="2.856" font-family="Calibri"><tspan y="253.85002" x="345.77 347.21 348.65 350.09">1943</tspan></text>
</g>
</g>
<g id="Layer-1" data-name="P">
<clipPath id="cp59">
<path transform="matrix(1,0,0,-1,0,841.92)" d="M 50.64 337.08 L 544.92 337.08 L 544.92 464.15998 L 50.64 464.15998 Z " fill-rule="evenodd"/>
</clipPath>
<g clip-path="url(#cp59)">
<text fill="#6c6c6c" xml:space="preserve" transform="matrix(-.000000044 -1 1 -.000000044 0 841.92)" font-size="2.856" font-family="Calibri"><tspan y="257.57" x="345.77">1</tspan><tspan y="257.57005" x="347.21 348.65 350.09">944</tspan></text>
</g>
</g>
<g id="Layer-1" data-name="P">
<clipPath id="cp60">
<path transform="matrix(1,0,0,-1,0,841.92)" d="M 50.64 337.08 L 544.92 337.08 L 544.92 464.15998 L 50.64 464.15998 Z " fill-rule="evenodd"/>
</clipPath>
<g clip-path="url(#cp60)">
<text fill="#6c6c6c" xml:space="preserve" transform="matrix(-.000000044 -1 1 -.000000044 0 841.92)" font-size="2.856" font-family="Calibri"><tspan y="261.29" x="345.77">1</tspan><tspan y="261.29005" x="347.21 348.65 350.09">945</tspan></text>
</g>
</g>
<g id="Layer-1" data-name="P">
<clipPath id="cp61">
<path transform="matrix(1,0,0,-1,0,841.92)" d="M 50.64 337.08 L 544.92 337.08 L 544.92 464.15998 L 50.64 464.15998 Z " fill-rule="evenodd"/>
</clipPath>
<g clip-path="url(#cp61)">
<text fill="#6c6c6c" xml:space="preserve" transform="matrix(-.000000044 -1 1 -.000000044 0 841.92)" font-size="2.856" font-family="Calibri"><tspan y="265.01" x="345.77">1</tspan><tspan y="265.01005" x="347.21 348.65 350.09">946</tspan></text>
</g>
</g>
<g id="Layer-1" data-name="P">
<clipPath id="cp62">
<path transform="matrix(1,0,0,-1,0,841.92)" d="M 50.64 337.08 L 544.92 337.08 L 544.92 464.15998 L 50.64 464.15998 Z " fill-rule="evenodd"/>
</clipPath>
<g clip-path="url(#cp62)">
<text fill="#6c6c6c" xml:space="preserve" transform="matrix(-.000000044 -1 1 -.000000044 0 841.92)" font-size="2.856" font-family="Calibri"><tspan y="268.73" x="345.77">1</tspan><tspan y="268.73005" x="347.21 348.65 350.09">947</tspan></text>
</g>
</g>
<g id="Layer-1" data-name="P">
<clipPath id="cp63">
<path transform="matrix(1,0,0,-1,0,841.92)" d="M 50.64 337.08 L 544.92 337.08 L 544.92 464.15998 L 50.64 464.15998 Z " fill-rule="evenodd"/>
</clipPath>
<g clip-path="url(#cp63)">
<text fill="#6c6c6c" xml:space="preserve" transform="matrix(-.000000044000005 -1 1 -.000000044000005 0 841.92)" font-size="2.832" font-family="Calibri"><tspan y="272.47" x="345.77">1</tspan><tspan y="272.47004" x="347.21 348.65 350.09">948</tspan></text>
</g>
</g>
<g id="Layer-1" data-name="P">
<clipPath id="cp64">
<path transform="matrix(1,0,0,-1,0,841.92)" d="M 50.64 337.08 L 544.92 337.08 L 544.92 464.15998 L 50.64 464.15998 Z " fill-rule="evenodd"/>
</clipPath>
<g clip-path="url(#cp64)">
<text fill="#6c6c6c" xml:space="preserve" transform="matrix(-.000000044 -1 1 -.000000044 0 841.92)" font-size="2.856" font-family="Calibri"><tspan y="276.19" x="345.77">1</tspan><tspan y="276.19004" x="347.21 348.65 350.09">949</tspan></text>
</g>
</g>
<g id="Layer-1" data-name="P">
<clipPath id="cp65">
<path transform="matrix(1,0,0,-1,0,841.92)" d="M 50.64 337.08 L 544.92 337.08 L 544.92 464.15998 L 50.64 464.15998 Z " fill-rule="evenodd"/>
</clipPath>
<g clip-path="url(#cp65)">
<text fill="#6c6c6c" xml:space="preserve" transform="matrix(-.000000044 -1 1 -.000000044 0 841.92)" font-size="2.856" font-family="Calibri"><tspan y="279.91" x="345.77">1</tspan><tspan y="279.91004" x="347.21 348.65 350.09">950</tspan></text>
</g>
</g>
<g id="Layer-1" data-name="P">
<clipPath id="cp66">
<path transform="matrix(1,0,0,-1,0,841.92)" d="M 50.64 337.08 L 544.92 337.08 L 544.92 464.15998 L 50.64 464.15998 Z " fill-rule="evenodd"/>
</clipPath>
<g clip-path="url(#cp66)">
<text fill="#6c6c6c" xml:space="preserve" transform="matrix(-.000000044 -1 1 -.000000044 0 841.92)" font-size="2.856" font-family="Calibri"><tspan y="283.63" x="345.77">1</tspan><tspan y="283.63005" x="347.21 348.65 350.09">951</tspan></text>
</g>
</g>
<g id="Layer-1" data-name="P">
<clipPath id="cp67">
<path transform="matrix(1,0,0,-1,0,841.92)" d="M 50.64 337.08 L 544.92 337.08 L 544.92 464.15998 L 50.64 464.15998 Z " fill-rule="evenodd"/>
</clipPath>
<g clip-path="url(#cp67)">
<text fill="#6c6c6c" xml:space="preserve" transform="matrix(-.000000044 -1 1 -.000000044 0 841.92)" font-size="2.856" font-family="Calibri"><tspan y="287.35" x="345.77">1</tspan><tspan y="287.35005" x="347.21 348.65 350.09">952</tspan></text>
</g>
</g>
<g id="Layer-1" data-name="P">
<clipPath id="cp68">
<path transform="matrix(1,0,0,-1,0,841.92)" d="M 50.64 337.08 L 544.92 337.08 L 544.92 464.15998 L 50.64 464.15998 Z " fill-rule="evenodd"/>
</clipPath>
<g clip-path="url(#cp68)">
<text fill="#6c6c6c" xml:space="preserve" transform="matrix(-.000000044 -1 1 -.000000044 0 841.92)" font-size="2.856" font-family="Calibri"><tspan y="291.07" x="345.77">1</tspan><tspan y="291.07005" x="347.21 348.65 350.09">953</tspan></text>
</g>
</g>
<g id="Layer-1" data-name="P">
<clipPath id="cp69">
<path transform="matrix(1,0,0,-1,0,841.92)" d="M 50.64 337.08 L 544.92 337.08 L 544.92 464.15998 L 50.64 464.15998 Z " fill-rule="evenodd"/>
</clipPath>
<g clip-path="url(#cp69)">
<text fill="#6c6c6c" xml:space="preserve" transform="matrix(-.000000044000005 -1 1 -.000000044000005 0 841.92)" font-size="2.832" font-family="Calibri"><tspan y="294.82" x="345.77">1</tspan><tspan y="294.82005" x="347.21 348.65 350.09">954</tspan></text>
</g>
</g>
<g id="Layer-1" data-name="P">
<clipPath id="cp70">
<path transform="matrix(1,0,0,-1,0,841.92)" d="M 50.64 337.08 L 544.92 337.08 L 544.92 464.15998 L 50.64 464.15998 Z " fill-rule="evenodd"/>
</clipPath>
<g clip-path="url(#cp70)">
<text fill="#6c6c6c" xml:space="preserve" transform="matrix(-.000000044 -1 1 -.000000044 0 841.92)" font-size="2.856" font-family="Calibri"><tspan y="298.54" x="345.77">1</tspan><tspan y="298.54005" x="347.21 348.65 350.09">955</tspan></text>
</g>
</g>
<g id="Layer-1" data-name="P">
<clipPath id="cp71">
<path transform="matrix(1,0,0,-1,0,841.92)" d="M 50.64 337.08 L 544.92 337.08 L 544.92 464.15998 L 50.64 464.15998 Z " fill-rule="evenodd"/>
</clipPath>
<g clip-path="url(#cp71)">
<text fill="#6c6c6c" xml:space="preserve" transform="matrix(-.000000044 -1 1 -.000000044 0 841.92)" font-size="2.856" font-family="Calibri"><tspan y="302.26" x="345.77">1</tspan><tspan y="302.26005" x="347.21 348.65 350.09">956</tspan></text>
</g>
</g>
<g id="Layer-1" data-name="P">
<clipPath id="cp72">
<path transform="matrix(1,0,0,-1,0,841.92)" d="M 50.64 337.08 L 544.92 337.08 L 544.92 464.15998 L 50.64 464.15998 Z " fill-rule="evenodd"/>
</clipPath>
<g clip-path="url(#cp72)">
<text fill="#6c6c6c" xml:space="preserve" transform="matrix(-.000000044 -1 1 -.000000044 0 841.92)" font-size="2.856" font-family="Calibri"><tspan y="305.98" x="345.77">1</tspan><tspan y="305.98005" x="347.21 348.65 350.09">957</tspan></text>
</g>
</g>
<g id="Layer-1" data-name="P">
<clipPath id="cp73">
<path transform="matrix(1,0,0,-1,0,841.92)" d="M 50.64 337.08 L 544.92 337.08 L 544.92 464.15998 L 50.64 464.15998 Z " fill-rule="evenodd"/>
</clipPath>
<g clip-path="url(#cp73)">
<text fill="#6c6c6c" xml:space="preserve" transform="matrix(-.000000044 -1 1 -.000000044 0 841.92)" font-size="2.856" font-family="Calibri"><tspan y="309.7" x="345.77">1</tspan><tspan y="309.70005" x="347.21 348.65 350.09">958</tspan></text>
</g>
</g>
<g id="Layer-1" data-name="P">
<clipPath id="cp74">
<path transform="matrix(1,0,0,-1,0,841.92)" d="M 50.64 337.08 L 544.92 337.08 L 544.92 464.15998 L 50.64 464.15998 Z " fill-rule="evenodd"/>
</clipPath>
<g clip-path="url(#cp74)">
<text fill="#6c6c6c" xml:space="preserve" transform="matrix(-.000000044 -1 1 -.000000044 0 841.92)" font-size="2.856" font-family="Calibri"><tspan y="313.42" x="345.77">1</tspan><tspan y="313.42005" x="347.21 348.65 350.09">959</tspan></text>
</g>
</g>
<g id="Layer-1" data-name="P">
<clipPath id="cp75">
<path transform="matrix(1,0,0,-1,0,841.92)" d="M 50.64 337.08 L 544.92 337.08 L 544.92 464.15998 L 50.64 464.15998 Z " fill-rule="evenodd"/>
</clipPath>
<g clip-path="url(#cp75)">
<text fill="#6c6c6c" xml:space="preserve" transform="matrix(-.000000044000005 -1 1 -.000000044000005 0 841.92)" font-size="2.832" font-family="Calibri"><tspan y="317.16" x="345.77">1</tspan><tspan y="317.16004" x="347.21 348.65 350.09">960</tspan></text>
</g>
</g>
<g id="Layer-1" data-name="P">
<clipPath id="cp76">
<path transform="matrix(1,0,0,-1,0,841.92)" d="M 50.64 337.08 L 544.92 337.08 L 544.92 464.15998 L 50.64 464.15998 Z " fill-rule="evenodd"/>
</clipPath>
<g clip-path="url(#cp76)">
<text fill="#6c6c6c" xml:space="preserve" transform="matrix(-.000000044 -1 1 -.000000044 0 841.92)" font-size="2.856" font-family="Calibri"><tspan y="320.88" x="345.77">1</tspan><tspan y="320.88005" x="347.21 348.65 350.09">961</tspan></text>
</g>
</g>
<g id="Layer-1" data-name="P">
<clipPath id="cp77">
<path transform="matrix(1,0,0,-1,0,841.92)" d="M 50.64 337.08 L 544.92 337.08 L 544.92 464.15998 L 50.64 464.15998 Z " fill-rule="evenodd"/>
</clipPath>
<g clip-path="url(#cp77)">
<text fill="#6c6c6c" xml:space="preserve" transform="matrix(-.000000044 -1 1 -.000000044 0 841.92)" font-size="2.856" font-family="Calibri"><tspan y="324.6" x="345.77">1</tspan><tspan y="324.60005" x="347.21 348.65 350.09">962</tspan></text>
</g>
</g>
<g id="Layer-1" data-name="P">
<clipPath id="cp78">
<path transform="matrix(1,0,0,-1,0,841.92)" d="M 50.64 337.08 L 544.92 337.08 L 544.92 464.15998 L 50.64 464.15998 Z " fill-rule="evenodd"/>
</clipPath>
<g clip-path="url(#cp78)">
<text fill="#6c6c6c" xml:space="preserve" transform="matrix(-.000000044 -1 1 -.000000044 0 841.92)" font-size="2.856" font-family="Calibri"><tspan y="328.32" x="345.77">1</tspan><tspan y="328.32005" x="347.21 348.65 350.09">963</tspan></text>
</g>
</g>
<g id="Layer-1" data-name="P">
<clipPath id="cp79">
<path transform="matrix(1,0,0,-1,0,841.92)" d="M 50.64 337.08 L 544.92 337.08 L 544.92 464.15998 L 50.64 464.15998 Z " fill-rule="evenodd"/>
</clipPath>
<g clip-path="url(#cp79)">
<text fill="#6c6c6c" xml:space="preserve" transform="matrix(-.000000044 -1 1 -.000000044 0 841.92)" font-size="2.856" font-family="Calibri"><tspan y="332.04" x="345.77">1</tspan><tspan y="332.04005" x="347.21 348.65 350.09">964</tspan></text>
</g>
</g>
<g id="Layer-1" data-name="P">
<clipPath id="cp80">
<path transform="matrix(1,0,0,-1,0,841.92)" d="M 50.64 337.08 L 544.92 337.08 L 544.92 464.15998 L 50.64 464.15998 Z " fill-rule="evenodd"/>
</clipPath>
<g clip-path="url(#cp80)">
<text fill="#6c6c6c" xml:space="preserve" transform="matrix(-.000000044 -1 1 -.000000044 0 841.92)" font-size="2.856" font-family="Calibri"><tspan y="335.76" x="345.77">1</tspan><tspan y="335.76005" x="347.21 348.65 350.09">965</tspan></text>
</g>
</g>
<g id="Layer-1" data-name="P">
<clipPath id="cp81">
<path transform="matrix(1,0,0,-1,0,841.92)" d="M 50.64 337.08 L 544.92 337.08 L 544.92 464.15998 L 50.64 464.15998 Z " fill-rule="evenodd"/>
</clipPath>
<g clip-path="url(#cp81)">
<text fill="#6c6c6c" xml:space="preserve" transform="matrix(-.000000044000005 -1 1 -.000000044000005 0 841.92)" font-size="2.832" font-family="Calibri"><tspan y="339.5" x="345.77">1</tspan><tspan y="339.50004" x="347.21 348.65 350.09">966</tspan></text>
</g>
</g>
<g id="Layer-1" data-name="P">
<clipPath id="cp82">
<path transform="matrix(1,0,0,-1,0,841.92)" d="M 50.64 337.08 L 544.92 337.08 L 544.92 464.15998 L 50.64 464.15998 Z " fill-rule="evenodd"/>
</clipPath>
<g clip-path="url(#cp82)">
<text fill="#6c6c6c" xml:space="preserve" transform="matrix(-.000000044 -1 1 -.000000044 0 841.92)" font-size="2.856" font-family="Calibri"><tspan y="343.22" x="345.77">1</tspan><tspan y="343.22004" x="347.21 348.65 350.09">967</tspan></text>
</g>
</g>
<g id="Layer-1" data-name="P">
<clipPath id="cp83">
<path transform="matrix(1,0,0,-1,0,841.92)" d="M 50.64 337.08 L 544.92 337.08 L 544.92 464.15998 L 50.64 464.15998 Z " fill-rule="evenodd"/>
</clipPath>
<g clip-path="url(#cp83)">
<text fill="#6c6c6c" xml:space="preserve" transform="matrix(-.000000044 -1 1 -.000000044 0 841.92)" font-size="2.856" font-family="Calibri"><tspan y="346.94" x="345.76997">1</tspan><tspan y="346.94004" x="347.20997 348.64997 350.08998">968</tspan></text>
</g>
</g>
<g id="Layer-1" data-name="P">
<clipPath id="cp84">
<path transform="matrix(1,0,0,-1,0,841.92)" d="M 50.64 337.08 L 544.92 337.08 L 544.92 464.15998 L 50.64 464.15998 Z " fill-rule="evenodd"/>
</clipPath>
<g clip-path="url(#cp84)">
<text fill="#6c6c6c" xml:space="preserve" transform="matrix(-.000000044 -1 1 -.000000044 0 841.92)" font-size="2.856" font-family="Calibri"><tspan y="350.66" x="345.76997">1</tspan><tspan y="350.66004" x="347.20997 348.64997 350.08998">969</tspan></text>
</g>
</g>
<g id="Layer-1" data-name="P">
<clipPath id="cp85">
<path transform="matrix(1,0,0,-1,0,841.92)" d="M 50.64 337.08 L 544.92 337.08 L 544.92 464.15998 L 50.64 464.15998 Z " fill-rule="evenodd"/>
</clipPath>
<g clip-path="url(#cp85)">
<text fill="#6c6c6c" xml:space="preserve" transform="matrix(-.000000044 -1 1 -.000000044 0 841.92)" font-size="2.856" font-family="Calibri"><tspan y="354.38" x="345.76997">1</tspan><tspan y="354.38005" x="347.20997 348.64997 350.08998">970</tspan></text>
</g>
</g>
<g id="Layer-1" data-name="P">
<clipPath id="cp86">
<path transform="matrix(1,0,0,-1,0,841.92)" d="M 50.64 337.08 L 544.92 337.08 L 544.92 464.15998 L 50.64 464.15998 Z " fill-rule="evenodd"/>
</clipPath>
<g clip-path="url(#cp86)">
<text fill="#6c6c6c" xml:space="preserve" transform="matrix(-.000000044 -1 1 -.000000044 0 841.92)" font-size="2.856" font-family="Calibri"><tspan y="358.1" x="345.76997">1</tspan><tspan y="358.10005" x="347.20997 348.64997 350.08998">971</tspan></text>
</g>
</g>
<g id="Layer-1" data-name="P">
<clipPath id="cp87">
<path transform="matrix(1,0,0,-1,0,841.92)" d="M 50.64 337.08 L 544.92 337.08 L 544.92 464.15998 L 50.64 464.15998 Z " fill-rule="evenodd"/>
</clipPath>
<g clip-path="url(#cp87)">
<text fill="#6c6c6c" xml:space="preserve" transform="matrix(-.000000044 -1 1 -.000000044 0 841.92)" font-size="2.856" font-family="Calibri"><tspan y="361.82" x="345.76997">1</tspan><tspan y="361.82005" x="347.20997 348.64997 350.08998">972</tspan></text>
</g>
</g>
<g id="Layer-1" data-name="P">
<clipPath id="cp88">
<path transform="matrix(1,0,0,-1,0,841.92)" d="M 50.64 337.08 L 544.92 337.08 L 544.92 464.15998 L 50.64 464.15998 Z " fill-rule="evenodd"/>
</clipPath>
<g clip-path="url(#cp88)">
<text fill="#6c6c6c" xml:space="preserve" transform="matrix(-.000000044 -1 1 -.000000044 0 841.92)" font-size="2.856" font-family="Calibri"><tspan y="365.57" x="345.76997">1</tspan><tspan y="365.57005" x="347.20997 348.64997 350.08998">973</tspan></text>
</g>
</g>
<g id="Layer-1" data-name="P">
<clipPath id="cp89">
<path transform="matrix(1,0,0,-1,0,841.92)" d="M 50.64 337.08 L 544.92 337.08 L 544.92 464.15998 L 50.64 464.15998 Z " fill-rule="evenodd"/>
</clipPath>
<g clip-path="url(#cp89)">
<text fill="#6c6c6c" xml:space="preserve" transform="matrix(-.000000044 -1 1 -.000000044 0 841.92)" font-size="2.856" font-family="Calibri"><tspan y="369.29" x="345.76997">1</tspan><tspan y="369.29005" x="347.20997 348.64997 350.08998">974</tspan></text>
</g>
</g>
<g id="Layer-1" data-name="P">
<clipPath id="cp90">
<path transform="matrix(1,0,0,-1,0,841.92)" d="M 50.64 337.08 L 544.92 337.08 L 544.92 464.15998 L 50.64 464.15998 Z " fill-rule="evenodd"/>
</clipPath>
<g clip-path="url(#cp90)">
<text fill="#6c6c6c" xml:space="preserve" transform="matrix(-.000000044 -1 1 -.000000044 0 841.92)" font-size="2.856" font-family="Calibri"><tspan y="373.01" x="345.76997">1</tspan><tspan y="373.01005" x="347.20997 348.64997 350.08998">975</tspan></text>
</g>
</g>
<g id="Layer-1" data-name="P">
<clipPath id="cp91">
<path transform="matrix(1,0,0,-1,0,841.92)" d="M 50.64 337.08 L 544.92 337.08 L 544.92 464.15998 L 50.64 464.15998 Z " fill-rule="evenodd"/>
</clipPath>
<g clip-path="url(#cp91)">
<text fill="#6c6c6c" xml:space="preserve" transform="matrix(-.000000044 -1 1 -.000000044 0 841.92)" font-size="2.856" font-family="Calibri"><tspan y="376.73" x="345.76997">1</tspan><tspan y="376.73005" x="347.20997 348.64997 350.08998">976</tspan></text>
</g>
</g>
<g id="Layer-1" data-name="P">
<clipPath id="cp92">
<path transform="matrix(1,0,0,-1,0,841.92)" d="M 50.64 337.08 L 544.92 337.08 L 544.92 464.15998 L 50.64 464.15998 Z " fill-rule="evenodd"/>
</clipPath>
<g clip-path="url(#cp92)">
<text fill="#6c6c6c" xml:space="preserve" transform="matrix(-.000000044 -1 1 -.000000044 0 841.92)" font-size="2.856" font-family="Calibri"><tspan y="380.45" x="345.76997">1</tspan><tspan y="380.45005" x="347.20997 348.64997 350.08998">977</tspan></text>
</g>
</g>
<g id="Layer-1" data-name="P">
<clipPath id="cp93">
<path transform="matrix(1,0,0,-1,0,841.92)" d="M 50.64 337.08 L 544.92 337.08 L 544.92 464.15998 L 50.64 464.15998 Z " fill-rule="evenodd"/>
</clipPath>
<g clip-path="url(#cp93)">
<text fill="#6c6c6c" xml:space="preserve" transform="matrix(-.000000044 -1 1 -.000000044 0 841.92)" font-size="2.856" font-family="Calibri"><tspan y="384.17" x="345.76997">1</tspan><tspan y="384.17005" x="347.20997 348.64997 350.08998">978</tspan></text>
</g>
</g>
<g id="Layer-1" data-name="P">
<clipPath id="cp94">
<path transform="matrix(1,0,0,-1,0,841.92)" d="M 50.64 337.08 L 544.92 337.08 L 544.92 464.15998 L 50.64 464.15998 Z " fill-rule="evenodd"/>
</clipPath>
<g clip-path="url(#cp94)">
<text fill="#6c6c6c" xml:space="preserve" transform="matrix(-.000000044000005 -1 1 -.000000044000005 0 841.92)" font-size="2.832" font-family="Calibri"><tspan y="387.91" x="345.76997">1</tspan><tspan y="387.91004" x="347.20997 348.64997 350.08998">979</tspan></text>
</g>
</g>
<g id="Layer-1" data-name="P">
<clipPath id="cp95">
<path transform="matrix(1,0,0,-1,0,841.92)" d="M 50.64 337.08 L 544.92 337.08 L 544.92 464.15998 L 50.64 464.15998 Z " fill-rule="evenodd"/>
</clipPath>
<g clip-path="url(#cp95)">
<text fill="#6c6c6c" xml:space="preserve" transform="matrix(-.000000044 -1 1 -.000000044 0 841.92)" font-size="2.856" font-family="Calibri"><tspan y="391.63" x="345.76997">1</tspan><tspan y="391.63005" x="347.20997 348.64997 350.08998">980</tspan></text>
</g>
</g>
<g id="Layer-1" data-name="P">
<clipPath id="cp96">
<path transform="matrix(1,0,0,-1,0,841.92)" d="M 50.64 337.08 L 544.92 337.08 L 544.92 464.15998 L 50.64 464.15998 Z " fill-rule="evenodd"/>
</clipPath>
<g clip-path="url(#cp96)">
<text fill="#6c6c6c" xml:space="preserve" transform="matrix(-.000000044 -1 1 -.000000044 0 841.92)" font-size="2.856" font-family="Calibri"><tspan y="395.35" x="345.76997">1</tspan><tspan y="395.35005" x="347.20997 348.64997 350.08998">981</tspan></text>
</g>
</g>
<g id="Layer-1" data-name="P">
<clipPath id="cp97">
<path transform="matrix(1,0,0,-1,0,841.92)" d="M 50.64 337.08 L 544.92 337.08 L 544.92 464.15998 L 50.64 464.15998 Z " fill-rule="evenodd"/>
</clipPath>
<g clip-path="url(#cp97)">
<text fill="#6c6c6c" xml:space="preserve" transform="matrix(-.000000044 -1 1 -.000000044 0 841.92)" font-size="2.856" font-family="Calibri"><tspan y="399.07" x="345.76997">1</tspan><tspan y="399.07005" x="347.20997 348.64997 350.08998">982</tspan></text>
</g>
</g>
<g id="Layer-1" data-name="P">
<clipPath id="cp98">
<path transform="matrix(1,0,0,-1,0,841.92)" d="M 50.64 337.08 L 544.92 337.08 L 544.92 464.15998 L 50.64 464.15998 Z " fill-rule="evenodd"/>
</clipPath>
<g clip-path="url(#cp98)">
<text fill="#6c6c6c" xml:space="preserve" transform="matrix(-.000000044 -1 1 -.000000044 0 841.92)" font-size="2.856" font-family="Calibri"><tspan y="402.79" x="345.76997">1</tspan><tspan y="402.79005" x="347.20997 348.64997 350.08998">983</tspan></text>
</g>
</g>
<g id="Layer-1" data-name="P">
<clipPath id="cp99">
<path transform="matrix(1,0,0,-1,0,841.92)" d="M 50.64 337.08 L 544.92 337.08 L 544.92 464.15998 L 50.64 464.15998 Z " fill-rule="evenodd"/>
</clipPath>
<g clip-path="url(#cp99)">
<text fill="#6c6c6c" xml:space="preserve" transform="matrix(-.000000044 -1 1 -.000000044 0 841.92)" font-size="2.856" font-family="Calibri"><tspan y="406.51" x="345.76997">1</tspan><tspan y="406.51005" x="347.20997 348.64997 350.08998">984</tspan></text>
</g>
</g>
<g id="Layer-1" data-name="P">
<clipPath id="cp100">
<path transform="matrix(1,0,0,-1,0,841.92)" d="M 50.64 337.08 L 544.92 337.08 L 544.92 464.15998 L 50.64 464.15998 Z " fill-rule="evenodd"/>
</clipPath>
<g clip-path="url(#cp100)">
<text fill="#6c6c6c" xml:space="preserve" transform="matrix(-.000000044000005 -1 1 -.000000044000005 0 841.92)" font-size="2.832" font-family="Calibri"><tspan y="410.26" x="345.76997">1</tspan><tspan y="410.26005" x="347.20997 348.64997 350.08998">985</tspan></text>
</g>
</g>
<g id="Layer-1" data-name="P">
<clipPath id="cp101">
<path transform="matrix(1,0,0,-1,0,841.92)" d="M 50.64 337.08 L 544.92 337.08 L 544.92 464.15998 L 50.64 464.15998 Z " fill-rule="evenodd"/>
</clipPath>
<g clip-path="url(#cp101)">
<text fill="#6c6c6c" xml:space="preserve" transform="matrix(-.000000044 -1 1 -.000000044 0 841.92)" font-size="2.856" font-family="Calibri"><tspan y="413.98" x="345.76997">1</tspan><tspan y="413.98005" x="347.20997 348.64997 350.08998">986</tspan></text>
</g>
</g>
<g id="Layer-1" data-name="P">
<clipPath id="cp102">
<path transform="matrix(1,0,0,-1,0,841.92)" d="M 50.64 337.08 L 544.92 337.08 L 544.92 464.15998 L 50.64 464.15998 Z " fill-rule="evenodd"/>
</clipPath>
<g clip-path="url(#cp102)">
<text fill="#6c6c6c" xml:space="preserve" transform="matrix(-.000000044 -1 1 -.000000044 0 841.92)" font-size="2.856" font-family="Calibri"><tspan y="417.7" x="345.76997">1</tspan><tspan y="417.70005" x="347.20997 348.64997 350.08998">987</tspan></text>
</g>
</g>
<g id="Layer-1" data-name="P">
<clipPath id="cp103">
<path transform="matrix(1,0,0,-1,0,841.92)" d="M 50.64 337.08 L 544.92 337.08 L 544.92 464.15998 L 50.64 464.15998 Z " fill-rule="evenodd"/>
</clipPath>
<g clip-path="url(#cp103)">
<text fill="#6c6c6c" xml:space="preserve" transform="matrix(-.000000044 -1 1 -.000000044 0 841.92)" font-size="2.856" font-family="Calibri"><tspan y="421.42" x="345.76997">1</tspan><tspan y="421.42005" x="347.20997 348.64997 350.08998">988</tspan></text>
</g>
</g>
<g id="Layer-1" data-name="P">
<clipPath id="cp104">
<path transform="matrix(1,0,0,-1,0,841.92)" d="M 50.64 337.08 L 544.92 337.08 L 544.92 464.15998 L 50.64 464.15998 Z " fill-rule="evenodd"/>
</clipPath>
<g clip-path="url(#cp104)">
<text fill="#6c6c6c" xml:space="preserve" transform="matrix(-.000000044 -1 1 -.000000044 0 841.92)" font-size="2.856" font-family="Calibri"><tspan y="425.14" x="345.76997">1</tspan><tspan y="425.14006" x="347.20997 348.64997 350.08998">989</tspan></text>
</g>
</g>
<g id="Layer-1" data-name="P">
<clipPath id="cp105">
<path transform="matrix(1,0,0,-1,0,841.92)" d="M 50.64 337.08 L 544.92 337.08 L 544.92 464.15998 L 50.64 464.15998 Z " fill-rule="evenodd"/>
</clipPath>
<g clip-path="url(#cp105)">
<text fill="#6c6c6c" xml:space="preserve" transform="matrix(-.000000044 -1 1 -.000000044 0 841.92)" font-size="2.856" font-family="Calibri"><tspan y="428.86" x="345.76997">1</tspan><tspan y="428.86003" x="347.20997 348.64997 350.08998">990</tspan></text>
</g>
</g>
<g id="Layer-1" data-name="P">
<clipPath id="cp106">
<path transform="matrix(1,0,0,-1,0,841.92)" d="M 50.64 337.08 L 544.92 337.08 L 544.92 464.15998 L 50.64 464.15998 Z " fill-rule="evenodd"/>
</clipPath>
<g clip-path="url(#cp106)">
<text fill="#6c6c6c" xml:space="preserve" transform="matrix(-.000000044000005 -1 1 -.000000044000005 0 841.92)" font-size="2.832" font-family="Calibri"><tspan y="432.6" x="345.76997">1</tspan><tspan y="432.60005" x="347.20997 348.64997 350.08998">991</tspan></text>
</g>
</g>
<g id="Layer-1" data-name="P">
<clipPath id="cp107">
<path transform="matrix(1,0,0,-1,0,841.92)" d="M 50.64 337.08 L 544.92 337.08 L 544.92 464.15998 L 50.64 464.15998 Z " fill-rule="evenodd"/>
</clipPath>
<g clip-path="url(#cp107)">
<text fill="#6c6c6c" xml:space="preserve" transform="matrix(-.000000044 -1 1 -.000000044 0 841.92)" font-size="2.856" font-family="Calibri"><tspan y="436.32" x="345.76997">1</tspan><tspan y="436.32005" x="347.20997 348.64997 350.08998">992</tspan></text>
</g>
</g>
<g id="Layer-1" data-name="P">
<clipPath id="cp108">
<path transform="matrix(1,0,0,-1,0,841.92)" d="M 50.64 337.08 L 544.92 337.08 L 544.92 464.15998 L 50.64 464.15998 Z " fill-rule="evenodd"/>
</clipPath>
<g clip-path="url(#cp108)">
<text fill="#6c6c6c" xml:space="preserve" transform="matrix(-.000000044 -1 1 -.000000044 0 841.92)" font-size="2.856" font-family="Calibri"><tspan y="440.04" x="345.76997">1</tspan><tspan y="440.04005" x="347.20997 348.64997 350.08998">993</tspan></text>
</g>
</g>
<g id="Layer-1" data-name="P">
<clipPath id="cp109">
<path transform="matrix(1,0,0,-1,0,841.92)" d="M 50.64 337.08 L 544.92 337.08 L 544.92 464.15998 L 50.64 464.15998 Z " fill-rule="evenodd"/>
</clipPath>
<g clip-path="url(#cp109)">
<text fill="#6c6c6c" xml:space="preserve" transform="matrix(-.000000044 -1 1 -.000000044 0 841.92)" font-size="2.856" font-family="Calibri"><tspan y="443.76" x="345.76997">1</tspan><tspan y="443.76005" x="347.20997 348.64997 350.08998">994</tspan></text>
</g>
</g>
<g id="Layer-1" data-name="P">
<clipPath id="cp110">
<path transform="matrix(1,0,0,-1,0,841.92)" d="M 50.64 337.08 L 544.92 337.08 L 544.92 464.15998 L 50.64 464.15998 Z " fill-rule="evenodd"/>
</clipPath>
<g clip-path="url(#cp110)">
<text fill="#6c6c6c" xml:space="preserve" transform="matrix(-.000000044 -1 1 -.000000044 0 841.92)" font-size="2.856" font-family="Calibri"><tspan y="447.48" x="345.76997">1</tspan><tspan y="447.48005" x="347.20997 348.64997 350.08998">995</tspan></text>
</g>
</g>
<g id="Layer-1" data-name="P">
<clipPath id="cp111">
<path transform="matrix(1,0,0,-1,0,841.92)" d="M 50.64 337.08 L 544.92 337.08 L 544.92 464.15998 L 50.64 464.15998 Z " fill-rule="evenodd"/>
</clipPath>
<g clip-path="url(#cp111)">
<text fill="#6c6c6c" xml:space="preserve" transform="matrix(-.000000044 -1 1 -.000000044 0 841.92)" font-size="2.856" font-family="Calibri"><tspan y="451.2" x="345.76997">1</tspan><tspan y="451.20005" x="347.20997 348.64997 350.08998">996</tspan></text>
</g>
</g>
<g id="Layer-1" data-name="P">
<clipPath id="cp112">
<path transform="matrix(1,0,0,-1,0,841.92)" d="M 50.64 337.08 L 544.92 337.08 L 544.92 464.15998 L 50.64 464.15998 Z " fill-rule="evenodd"/>
</clipPath>
<g clip-path="url(#cp112)">
<text fill="#6c6c6c" xml:space="preserve" transform="matrix(-.000000044000005 -1 1 -.000000044000005 0 841.92)" font-size="2.832" font-family="Calibri"><tspan y="454.94" x="345.76997">1</tspan><tspan y="454.94004" x="347.20997 348.64997 350.08998">997</tspan></text>
</g>
</g>
<g id="Layer-1" data-name="P">
<clipPath id="cp113">
<path transform="matrix(1,0,0,-1,0,841.92)" d="M 50.64 337.08 L 544.92 337.08 L 544.92 464.15998 L 50.64 464.15998 Z " fill-rule="evenodd"/>
</clipPath>
<g clip-path="url(#cp113)">
<text fill="#6c6c6c" xml:space="preserve" transform="matrix(-.000000044 -1 1 -.000000044 0 841.92)" font-size="2.856" font-family="Calibri"><tspan y="458.66" x="345.76997">1</tspan><tspan y="458.66004" x="347.20997 348.64997 350.08998">998</tspan></text>
</g>
</g>
<g id="Layer-1" data-name="P">
<clipPath id="cp114">
<path transform="matrix(1,0,0,-1,0,841.92)" d="M 50.64 337.08 L 544.92 337.08 L 544.92 464.15998 L 50.64 464.15998 Z " fill-rule="evenodd"/>
</clipPath>
<g clip-path="url(#cp114)">
<text fill="#6c6c6c" xml:space="preserve" transform="matrix(-.000000044 -1 1 -.000000044 0 841.92)" font-size="2.856" font-family="Calibri"><tspan y="462.38" x="345.76997">1</tspan><tspan y="462.38005" x="347.20997 348.64997 350.08998">999</tspan></text>
</g>
</g>
<g id="Layer-1" data-name="P">
<clipPath id="cp115">
<path transform="matrix(1,0,0,-1,0,841.92)" d="M 50.64 337.08 L 544.92 337.08 L 544.92 464.15998 L 50.64 464.15998 Z " fill-rule="evenodd"/>
</clipPath>
<g clip-path="url(#cp115)">
<text fill="#6c6c6c" xml:space="preserve" transform="matrix(-.000000044 -1 1 -.000000044 0 841.92)" font-size="2.856" font-family="Calibri"><tspan y="466.1" x="345.76997">2</tspan><tspan y="466.10005" x="347.20997 348.64997 350.08998">000</tspan></text>
</g>
</g>
<g id="Layer-1" data-name="P">
<clipPath id="cp116">
<path transform="matrix(1,0,0,-1,0,841.92)" d="M 50.64 337.08 L 544.92 337.08 L 544.92 464.15998 L 50.64 464.15998 Z " fill-rule="evenodd"/>
</clipPath>
<g clip-path="url(#cp116)">
<text fill="#6c6c6c" xml:space="preserve" transform="matrix(-.000000044 -1 1 -.000000044 0 841.92)" font-size="2.856" font-family="Calibri"><tspan y="469.82" x="345.76997">2</tspan><tspan y="469.82005" x="347.20997 348.64997 350.08998">001</tspan></text>
</g>
</g>
<g id="Layer-1" data-name="P">
<clipPath id="cp117">
<path transform="matrix(1,0,0,-1,0,841.92)" d="M 50.64 337.08 L 544.92 337.08 L 544.92 464.15998 L 50.64 464.15998 Z " fill-rule="evenodd"/>
</clipPath>
<g clip-path="url(#cp117)">
<text fill="#6c6c6c" xml:space="preserve" transform="matrix(-.000000044 -1 1 -.000000044 0 841.92)" font-size="2.856" font-family="Calibri"><tspan y="473.54" x="345.76997">2</tspan><tspan y="473.54005" x="347.20997 348.64997 350.08998">002</tspan></text>
</g>
</g>
<g id="Layer-1" data-name="P">
<clipPath id="cp118">
<path transform="matrix(1,0,0,-1,0,841.92)" d="M 50.64 337.08 L 544.92 337.08 L 544.92 464.15998 L 50.64 464.15998 Z " fill-rule="evenodd"/>
</clipPath>
<g clip-path="url(#cp118)">
<text fill="#6c6c6c" xml:space="preserve" transform="matrix(-.000000044000005 -1 1 -.000000044000005 0 841.92)" font-size="2.832" font-family="Calibri"><tspan y="477.29" x="345.76997">2</tspan><tspan y="477.29005" x="347.20997 348.64997 350.08998">003</tspan></text>
</g>
</g>
<g id="Layer-1" data-name="P">
<clipPath id="cp119">
<path transform="matrix(1,0,0,-1,0,841.92)" d="M 50.64 337.08 L 544.92 337.08 L 544.92 464.15998 L 50.64 464.15998 Z " fill-rule="evenodd"/>
</clipPath>
<g clip-path="url(#cp119)">
<text fill="#6c6c6c" xml:space="preserve" transform="matrix(-.000000044 -1 1 -.000000044 0 841.92)" font-size="2.856" font-family="Calibri"><tspan y="481.01" x="345.76997">2</tspan><tspan y="481.01005" x="347.20997 348.64997 350.08998">004</tspan></text>
</g>
</g>
<g id="Layer-1" data-name="P">
<clipPath id="cp120">
<path transform="matrix(1,0,0,-1,0,841.92)" d="M 50.64 337.08 L 544.92 337.08 L 544.92 464.15998 L 50.64 464.15998 Z " fill-rule="evenodd"/>
</clipPath>
<g clip-path="url(#cp120)">
<text fill="#6c6c6c" xml:space="preserve" transform="matrix(-.000000044 -1 1 -.000000044 0 841.92)" font-size="2.856" font-family="Calibri"><tspan y="484.73" x="345.76997">2</tspan><tspan y="484.73005" x="347.20997 348.64997 350.08998">005</tspan></text>
</g>
</g>
<g id="Layer-1" data-name="P">
<clipPath id="cp121">
<path transform="matrix(1,0,0,-1,0,841.92)" d="M 50.64 337.08 L 544.92 337.08 L 544.92 464.15998 L 50.64 464.15998 Z " fill-rule="evenodd"/>
</clipPath>
<g clip-path="url(#cp121)">
<text fill="#6c6c6c" xml:space="preserve" transform="matrix(-.000000044 -1 1 -.000000044 0 841.92)" font-size="2.856" font-family="Calibri"><tspan y="488.45" x="345.76997">2</tspan><tspan y="488.45005" x="347.20997 348.64997 350.08998">006</tspan></text>
</g>
</g>
<g id="Layer-1" data-name="P">
<clipPath id="cp122">
<path transform="matrix(1,0,0,-1,0,841.92)" d="M 50.64 337.08 L 544.92 337.08 L 544.92 464.15998 L 50.64 464.15998 Z " fill-rule="evenodd"/>
</clipPath>
<g clip-path="url(#cp122)">
<text fill="#6c6c6c" xml:space="preserve" transform="matrix(-.000000044 -1 1 -.000000044 0 841.92)" font-size="2.856" font-family="Calibri"><tspan y="492.17" x="345.76997">2</tspan><tspan y="492.17005" x="347.20997 348.64997 350.08998">007</tspan></text>
</g>
</g>
<g id="Layer-1" data-name="P">
<clipPath id="cp123">
<path transform="matrix(1,0,0,-1,0,841.92)" d="M 50.64 337.08 L 544.92 337.08 L 544.92 464.15998 L 50.64 464.15998 Z " fill-rule="evenodd"/>
</clipPath>
<g clip-path="url(#cp123)">
<text fill="#6c6c6c" xml:space="preserve" transform="matrix(-.000000044 -1 1 -.000000044 0 841.92)" font-size="2.856" font-family="Calibri"><tspan y="495.89" x="345.76997">2</tspan><tspan y="495.89006" x="347.20997 348.64997 350.08998">008</tspan></text>
</g>
</g>
<g id="Layer-1" data-name="P">
<clipPath id="cp124">
<path transform="matrix(1,0,0,-1,0,841.92)" d="M 50.64 337.08 L 544.92 337.08 L 544.92 464.15998 L 50.64 464.15998 Z " fill-rule="evenodd"/>
</clipPath>
<g clip-path="url(#cp124)">
<text fill="#6c6c6c" xml:space="preserve" transform="matrix(-.000000044 -1 1 -.000000044 0 841.92)" font-size="2.856" font-family="Calibri"><tspan y="499.61" x="345.76997">2</tspan><tspan y="499.61003" x="347.20997 348.64997 350.08998">009</tspan></text>
</g>
</g>
<g id="Layer-1" data-name="P">
<clipPath id="cp125">
<path transform="matrix(1,0,0,-1,0,841.92)" d="M 50.64 337.08 L 544.92 337.08 L 544.92 464.15998 L 50.64 464.15998 Z " fill-rule="evenodd"/>
</clipPath>
<g clip-path="url(#cp125)">
<text fill="#6c6c6c" xml:space="preserve" transform="matrix(-.000000044 -1 1 -.000000044 0 841.92)" font-size="2.856" font-family="Calibri"><tspan y="503.35" x="345.76997">2</tspan><tspan y="503.35005" x="347.20997 348.64997 350.08998">010</tspan></text>
</g>
</g>
<g id="Layer-1" data-name="P">
<clipPath id="cp126">
<path transform="matrix(1,0,0,-1,0,841.92)" d="M 50.64 337.08 L 544.92 337.08 L 544.92 464.15998 L 50.64 464.15998 Z " fill-rule="evenodd"/>
</clipPath>
<g clip-path="url(#cp126)">
<text fill="#6c6c6c" xml:space="preserve" transform="matrix(-.000000044 -1 1 -.000000044 0 841.92)" font-size="2.856" font-family="Calibri"><tspan y="507.07" x="345.76997">2</tspan><tspan y="507.07005" x="347.20997 348.64997 350.08998">011</tspan></text>
</g>
</g>
<g id="Layer-1" data-name="P">
<clipPath id="cp127">
<path transform="matrix(1,0,0,-1,0,841.92)" d="M 50.64 337.08 L 544.92 337.08 L 544.92 464.15998 L 50.64 464.15998 Z " fill-rule="evenodd"/>
</clipPath>
<g clip-path="url(#cp127)">
<text fill="#6c6c6c" xml:space="preserve" transform="matrix(-.000000044 -1 1 -.000000044 0 841.92)" font-size="2.856" font-family="Calibri"><tspan y="510.79" x="345.76997">2</tspan><tspan y="510.79005" x="347.20997 348.64997 350.08998">012</tspan></text>
</g>
</g>
<g id="Layer-1" data-name="P">
<clipPath id="cp128">
<path transform="matrix(1,0,0,-1,0,841.92)" d="M 50.64 337.08 L 544.92 337.08 L 544.92 464.15998 L 50.64 464.15998 Z " fill-rule="evenodd"/>
</clipPath>
<g clip-path="url(#cp128)">
<text fill="#6c6c6c" xml:space="preserve" transform="matrix(-.000000044 -1 1 -.000000044 0 841.92)" font-size="2.856" font-family="Calibri"><tspan y="514.51" x="345.76997 347.20997 348.64997 350.08998">2013</tspan></text>
</g>
</g>
<g id="Layer-1" data-name="P">
<clipPath id="cp129">
<path transform="matrix(1,0,0,-1,0,841.92)" d="M 50.64 337.08 L 544.92 337.08 L 544.92 464.15998 L 50.64 464.15998 Z " fill-rule="evenodd"/>
</clipPath>
<g clip-path="url(#cp129)">
<text fill="#6c6c6c" xml:space="preserve" transform="matrix(-.000000044 -1 1 -.000000044 0 841.92)" font-size="2.856" font-family="Calibri"><tspan y="518.23" x="345.76997 347.20997 348.64997 350.08998">2014</tspan></text>
</g>
</g>
<g id="Layer-1" data-name="P">
<clipPath id="cp130">
<path transform="matrix(1,0,0,-1,0,841.92)" d="M 50.64 337.08 L 544.92 337.08 L 544.92 464.15998 L 50.64 464.15998 Z " fill-rule="evenodd"/>
</clipPath>
<g clip-path="url(#cp130)">
<text fill="#6c6c6c" xml:space="preserve" transform="matrix(-.000000044 -1 1 -.000000044 0 841.92)" font-size="2.856" font-family="Calibri"><tspan y="521.95" x="345.76997 347.20997 348.64997 350.08998">2015</tspan></text>
</g>
</g>
<g id="Layer-1" data-name="P">
<clipPath id="cp131">
<path transform="matrix(1,0,0,-1,0,841.92)" d="M 50.64 337.08 L 544.92 337.08 L 544.92 464.15998 L 50.64 464.15998 Z " fill-rule="evenodd"/>
</clipPath>
<g clip-path="url(#cp131)">
<text fill="#6c6c6c" xml:space="preserve" transform="matrix(-.000000044000005 -1 1 -.000000044000005 0 841.92)" font-size="2.832" font-family="Calibri"><tspan y="525.7" x="345.76997 347.20997 348.64997 350.08998">2016</tspan></text>
</g>
</g>
<g id="Layer-1" data-name="P">
<clipPath id="cp132">
<path transform="matrix(1,0,0,-1,0,841.92)" d="M 50.64 337.08 L 544.92 337.08 L 544.92 464.15998 L 50.64 464.15998 Z " fill-rule="evenodd"/>
</clipPath>
<g clip-path="url(#cp132)">
<text fill="#6c6c6c" xml:space="preserve" transform="matrix(-.000000044 -1 1 -.000000044 0 841.92)" font-size="2.856" font-family="Calibri"><tspan y="529.42" x="345.76997 347.20997 348.64997 350.08998">2017</tspan></text>
</g>
</g>
<g id="Layer-1" data-name="P">
<clipPath id="cp133">
<path transform="matrix(1,0,0,-1,0,841.92)" d="M 50.64 337.08 L 544.92 337.08 L 544.92 464.15998 L 50.64 464.15998 Z " fill-rule="evenodd"/>
</clipPath>
<g clip-path="url(#cp133)">
<text fill="#6c6c6c" xml:space="preserve" transform="matrix(-.000000044 -1 1 -.000000044 0 841.92)" font-size="2.856" font-family="Calibri"><tspan y="533.14" x="345.76997 347.20997 348.64997 350.08998">2018</tspan></text>
</g>
</g>
<g id="Layer-1" data-name="P">
<clipPath id="cp134">
<path transform="matrix(1,0,0,-1,0,841.92)" d="M 50.64 337.08 L 544.92 337.08 L 544.92 464.15998 L 50.64 464.15998 Z " fill-rule="evenodd"/>
</clipPath>
<g clip-path="url(#cp134)">
<text fill="#6c6c6c" xml:space="preserve" transform="matrix(-.000000044 -1 1 -.000000044 0 841.92)" font-size="2.856" font-family="Calibri"><tspan y="536.86" x="345.76997 347.20997 348.64997 350.08998">2019</tspan></text>
</g>
</g>
<g id="Layer-1" data-name="P">
<clipPath id="cp135">
<path transform="matrix(1,0,0,-1,0,841.92)" d="M 50.64 337.08 L 544.92 337.08 L 544.92 464.15998 L 50.64 464.15998 Z " fill-rule="evenodd"/>
</clipPath>
<g clip-path="url(#cp135)">
<text fill="#6c6c6c" xml:space="preserve" transform="matrix(-.000000044 -1 1 -.000000044 0 841.92)" font-size="2.856" font-family="Calibri"><tspan y="540.58" x="345.76997 347.20997 348.64997 350.08998">2020</tspan></text>
</g>
</g>
<g id="Layer-1" data-name="P">
<clipPath id="cp136">
<path transform="matrix(1,0,0,-1,0,841.92)" d="M 50.4 336.96 L 544.92 336.96 L 544.92 464.4 L 50.4 464.4 Z " fill-rule="evenodd"/>
</clipPath>
<g clip-path="url(#cp136)">
<path transform="matrix(1,0,0,-1,0,841.92)" stroke-width=".23771" stroke-linecap="butt" stroke-linejoin="round" fill="none" stroke="#e0e0e0" d="M 50.603 337.11 L 544.86306 337.11 L 544.86306 464.15 L 50.603 464.15 Z "/>
</g>
</g>
</g>
</g>
</svg>
