<?xml version="1.0" encoding="utf-8"?>
<!-- Generator: Adobe Illustrator 24.3.0, SVG Export Plug-In . SVG Version: 6.00 Build 0)  -->
<svg version="1.1" id="Слой_1" xmlns:cc="http://creativecommons.org/ns#"
	 xmlns="http://www.w3.org/2000/svg" xmlns:xlink="http://www.w3.org/1999/xlink" x="0px" y="0px" viewBox="0 0 841.7 595.2"
	 style="enable-background:new 0 0 841.7 595.2;" xml:space="preserve">
<style type="text/css">
	
		.st0{fill-rule:evenodd;clip-rule:evenodd;fill:#D7191C;stroke:#999595;stroke-width:0.737;stroke-linecap:square;stroke-linejoin:bevel;stroke-miterlimit:10;}
	
		.st1{fill-rule:evenodd;clip-rule:evenodd;fill:#E85B3A;stroke:#999595;stroke-width:0.737;stroke-linecap:square;stroke-linejoin:bevel;stroke-miterlimit:10;}
	
		.st2{fill-rule:evenodd;clip-rule:evenodd;fill:#F99E59;stroke:#999595;stroke-width:0.737;stroke-linecap:square;stroke-linejoin:bevel;stroke-miterlimit:10;}
	
		.st3{fill-rule:evenodd;clip-rule:evenodd;fill:#FEC171;stroke:#999595;stroke-width:0.737;stroke-linecap:square;stroke-linejoin:bevel;stroke-miterlimit:10;}
	
		.st4{fill-rule:evenodd;clip-rule:evenodd;fill:#FFEDAA;stroke:#999595;stroke-width:0.737;stroke-linecap:square;stroke-linejoin:bevel;stroke-miterlimit:10;}
	
		.st5{fill-rule:evenodd;clip-rule:evenodd;fill:#EDF8B9;stroke:#999595;stroke-width:0.737;stroke-linecap:square;stroke-linejoin:bevel;stroke-miterlimit:10;}
	
		.st6{fill-rule:evenodd;clip-rule:evenodd;fill:#C7E9AD;stroke:#999595;stroke-width:0.737;stroke-linecap:square;stroke-linejoin:bevel;stroke-miterlimit:10;}
	
		.st7{fill-rule:evenodd;clip-rule:evenodd;fill:#9DD3A7;stroke:#999595;stroke-width:0.737;stroke-linecap:square;stroke-linejoin:bevel;stroke-miterlimit:10;}
	
		.st8{fill-rule:evenodd;clip-rule:evenodd;fill:#64ABB0;stroke:#999595;stroke-width:0.737;stroke-linecap:square;stroke-linejoin:bevel;stroke-miterlimit:10;}
	
		.st9{fill-rule:evenodd;clip-rule:evenodd;fill:#2B83BA;stroke:#999595;stroke-width:0.737;stroke-linecap:square;stroke-linejoin:bevel;stroke-miterlimit:10;}
	.st10{fill:none;stroke:#999595;stroke-width:0.737;stroke-linecap:square;stroke-linejoin:bevel;stroke-miterlimit:10;}
</style>
<g transform="matrix(1,0,0,1,0,0)">
</g>
<g transform="matrix(1,0,0,1,0,0)">
</g>
<g transform="matrix(11.8081,0,0,11.8081,0,0)">
</g>
<g transform="matrix(0.999751,0,0,0.999751,0,0)">
</g>
<g transform="matrix(0.999751,0,0,0.999751,0,0)">
</g>
<g transform="matrix(11.8081,0,0,11.8081,0,0)">
</g>
<g transform="matrix(11.8081,0,0,11.8081,0,0)">
</g>
<g transform="matrix(11.8081,0,0,11.8081,0,0)">
</g>
<g transform="matrix(11.8081,0,0,11.8081,0,0)">
</g>
<g transform="matrix(11.8081,0,0,11.8081,923.392,310.705)">
</g>
<g transform="matrix(11.8081,0,0,11.8081,923.392,310.705)">
</g>
<g transform="matrix(11.8081,0,0,11.8081,923.392,310.705)">
</g>
<g transform="matrix(0.999751,0,0,0.999751,923.392,310.705)">
</g>
<g transform="matrix(11.8081,0,0,11.8081,923.392,310.705)">
</g>
<g transform="matrix(11.8081,0,0,11.8081,923.392,310.705)">
</g>
<g transform="matrix(11.8081,0,0,11.8081,923.392,310.705)">
</g>
<g transform="matrix(11.8081,0,0,11.8081,923.392,310.705)">
</g>
<g transform="matrix(11.8081,0,0,11.8081,923.392,310.705)">
</g>
<g transform="matrix(11.8081,0,0,11.8081,923.392,310.705)">
</g>
<g transform="matrix(11.8081,0,0,11.8081,923.392,310.705)">
</g>
<g transform="matrix(11.8081,0,0,11.8081,923.392,310.705)">
</g>
<g transform="matrix(11.8081,0,0,11.8081,923.392,310.705)">
</g>
<g transform="matrix(11.8081,0,0,11.8081,923.392,310.705)">
</g>
<g transform="matrix(11.8081,0,0,11.8081,923.392,310.705)">
</g>
<g transform="matrix(11.8081,0,0,11.8081,923.392,310.705)">
</g>
<g transform="matrix(11.8081,0,0,11.8081,923.392,310.705)">
</g>
<g transform="matrix(11.8081,0,0,11.8081,923.392,310.705)">
</g>
<g transform="matrix(11.8081,0,0,11.8081,923.392,310.705)">
</g>
<g transform="matrix(11.8081,0,0,11.8081,923.392,310.705)">
</g>
<g transform="matrix(11.8081,0,0,11.8081,923.392,310.705)">
</g>
<g transform="matrix(11.8081,0,0,11.8081,923.392,310.705)">
</g>
<g transform="matrix(11.8081,0,0,11.8081,923.392,310.705)">
</g>
<g transform="matrix(11.8081,0,0,11.8081,923.392,310.705)">
</g>
<g transform="matrix(11.8081,0,0,11.8081,923.392,310.705)">
</g>
<g transform="matrix(11.8081,0,0,11.8081,923.392,310.705)">
</g>
<g transform="matrix(11.8081,0,0,11.8081,923.392,310.705)">
</g>
<g transform="matrix(0.999751,0,0,0.999751,923.392,310.705)">
</g>
<g transform="matrix(11.8081,0,0,11.8081,923.392,310.705)">
</g>
<g transform="matrix(11.8081,0,0,11.8081,923.392,310.705)">
</g>
<g transform="matrix(1,0,0,1,0,0)">
</g>
<g>
	<g transform="matrix(0.999751,0,0,0.999751,947.008,516.166)">
		<path vector-effect="none" class="st0" d="M-442.2-542.7v-32.2h34.6v32.2H-442.2"/>
	</g>
	<g transform="matrix(0.999751,0,0,0.999751,947.008,592.918)">
		<path vector-effect="none" class="st1" d="M-407.7-619.4v-32.2h34.6v32.2H-407.7"/>
	</g>
	<g transform="matrix(0.999751,0,0,0.999751,947.008,669.671)">
		<path vector-effect="none" class="st2" d="M-373.1-696.2v-32.2h34.6v32.2H-373.1"/>
	</g>
	<g transform="matrix(0.999751,0,0,0.999751,947.008,746.423)">
		<path vector-effect="none" class="st3" d="M-338.6-773v-32.2h34.6v32.2H-338.6"/>
	</g>
	<g transform="matrix(0.999751,0,0,0.999751,947.008,823.176)">
		<path vector-effect="none" class="st4" d="M-304-849.8V-882h34.6v32.2H-304"/>
	</g>
	<g transform="matrix(0.999751,0,0,0.999751,947.008,899.928)">
		<path vector-effect="none" class="st5" d="M-269.5-926.5v-32.2h34.6v32.2H-269.5"/>
	</g>
	<g transform="matrix(0.999751,0,0,0.999751,947.008,976.681)">
		<path vector-effect="none" class="st6" d="M-234.9-1003.3v-32.2h34.6v32.2H-234.9"/>
	</g>
	<g transform="matrix(0.999751,0,0,0.999751,947.008,1053.43)">
		<path vector-effect="none" class="st7" d="M-200.3-1080.1v-32.2h34.6v32.2H-200.3"/>
	</g>
	<g transform="matrix(0.999751,0,0,0.999751,947.008,1130.19)">
		<path vector-effect="none" class="st8" d="M-165.8-1156.9v-32.2h34.6v32.2H-165.8"/>
	</g>
	<g transform="matrix(0.999751,0,0,0.999751,947.008,1206.94)">
		<path vector-effect="none" class="st9" d="M-131.2-1233.6v-32.2h34.6v32.2H-131.2"/>
	</g>
	<g transform="matrix(1.18081,0,0,1.18081,923.392,310.705)">
		<text transform="matrix(0.8469 0 0 0.8469 -70.656 -269.537)" style="font-family:'SansSerif'; font-size:11.9025px;">2021</text>
	</g>
	<g transform="matrix(1.18081,0,0,1.18081,923.392,310.705)">
		<text transform="matrix(0.8469 0 0 0.8469 -100.7481 -269.5369)" style="font-family:'SansSerif'; font-size:11.9025px;">2010</text>
	</g>
	<g transform="matrix(1.18081,0,0,1.18081,923.392,310.705)">
		<text transform="matrix(0.8469 0 0 0.8469 -131.4489 -269.3154)" style="font-family:'SansSerif'; font-size:11.9025px;">1991</text>
	</g>
	<g transform="matrix(1.18081,0,0,1.18081,923.392,310.705)">
		<text transform="matrix(0.8469 0 0 0.8469 -160.8436 -269.537)" style="font-family:'SansSerif'; font-size:11.9025px;">1982</text>
	</g>
	<g transform="matrix(1.18081,0,0,1.18081,923.392,310.705)">
		<text transform="matrix(0.8469 0 0 0.8469 -189.844 -269.537)" style="font-family:'SansSerif'; font-size:11.9025px;">1964</text>
	</g>
	<g transform="matrix(1.18081,0,0,1.18081,923.392,310.705)">
		<text transform="matrix(0.8469 0 0 0.8469 -218.818 -269.537)" style="font-family:'SansSerif'; font-size:11.9025px;">1953</text>
	</g>
	<g transform="matrix(1.18081,0,0,1.18081,923.392,310.705)">
		<text transform="matrix(0.8469 0 0 0.8469 -248.5855 -269.537)" style="font-family:'SansSerif'; font-size:11.9025px;">1922</text>
	</g>
	<g transform="matrix(1.18081,0,0,1.18081,923.392,310.705)">
		<text transform="matrix(0.8469 0 0 0.8469 -278.2652 -269.537)" style="font-family:'SansSerif'; font-size:11.9025px;">1900</text>
	</g>
	<g transform="matrix(1.18081,0,0,1.18081,923.392,310.705)">
		<text transform="matrix(0.8469 0 0 0.8469 -307.0229 -269.537)" style="font-family:'SansSerif'; font-size:11.9025px;">1880</text>
	</g>
	<g transform="matrix(1.18081,0,0,1.18081,923.392,310.705)">
		<text transform="matrix(0.8469 0 0 0.8469 -336.4097 -269.537)" style="font-family:'SansSerif'; font-size:11.9025px;">1850</text>
	</g>
	<g transform="matrix(1.18081,0,0,1.18081,923.392,310.705)">
		<text transform="matrix(0.8469 0 0 0.8469 -365.3837 -269.537)" style="font-family:'SansSerif'; font-size:11.9025px;">1700</text>
	</g>
	<line class="st10" x1="539.5" y1="-26.4" x2="539.5" y2="-20.5"/>
	<line class="st10" x1="504.9" y1="-26.4" x2="504.9" y2="-20.5"/>
	<line class="st10" x1="574" y1="-26.4" x2="574" y2="-20.5"/>
	<line class="st10" x1="608.5" y1="-26.4" x2="608.5" y2="-20.5"/>
	<line class="st10" x1="643.1" y1="-26.4" x2="643.1" y2="-20.5"/>
	<line class="st10" x1="677.6" y1="-26.4" x2="677.6" y2="-20.5"/>
	<line class="st10" x1="712.2" y1="-26.4" x2="712.2" y2="-20.5"/>
	<line class="st10" x1="746.7" y1="-26.4" x2="746.7" y2="-20.5"/>
	<line class="st10" x1="781.3" y1="-26.4" x2="781.3" y2="-20.5"/>
	<line class="st10" x1="815.8" y1="-26.4" x2="815.8" y2="-20.5"/>
	<line class="st10" x1="850.3" y1="-26.4" x2="850.3" y2="-20.5"/>
</g>
</svg>
