<?xml version="1.0" encoding="utf-8"?>
<!-- Generator: Adobe Illustrator 24.3.0, SVG Export Plug-In . SVG Version: 6.00 Build 0)  -->
<svg version="1.1" id="Слой_1" xmlns="http://www.w3.org/2000/svg" xmlns:xlink="http://www.w3.org/1999/xlink" x="0px" y="0px"
	 viewBox="0 0 1195.9 222.2" style="enable-background:new 0 0 1195.9 222.2;" xml:space="preserve">
<style type="text/css">
	.st0{clip-path:url(#SVGID_2_);}
	.st1{fill:none;stroke:#4D8196;stroke-width:0.51;stroke-linejoin:round;}
	.st2{clip-path:url(#SVGID_4_);}
	.st3{clip-path:url(#SVGID_6_);}
	.st4{fill:none;stroke:#4D8196;stroke-width:1.03;stroke-linejoin:round;}
	.st5{fill:none;stroke:#4D8196;stroke-width:1.03;stroke-linecap:round;stroke-linejoin:round;}
	.st6{clip-path:url(#SVGID_8_);}
	.st7{clip-path:url(#SVGID_10_);}
	.st8{fill:#7F7F7F;}
	.st9{font-family:'Calibri';}
	.st10{font-size:7.71px;}
	.st11{clip-path:url(#SVGID_12_);}
	.st12{clip-path:url(#SVGID_14_);}
	.st13{clip-path:url(#SVGID_16_);}
	.st14{clip-path:url(#SVGID_18_);}
	.st15{clip-path:url(#SVGID_20_);}
	.st16{clip-path:url(#SVGID_22_);}
	.st17{clip-path:url(#SVGID_24_);}
	.st18{clip-path:url(#SVGID_26_);}
	.st19{clip-path:url(#SVGID_28_);}
	.st20{clip-path:url(#SVGID_30_);}
	.st21{clip-path:url(#SVGID_32_);}
	.st22{clip-path:url(#SVGID_34_);}
	.st23{clip-path:url(#SVGID_36_);}
	.st24{clip-path:url(#SVGID_38_);}
	.st25{fill:#595959;}
	.st26{clip-path:url(#SVGID_40_);}
	.st27{clip-path:url(#SVGID_42_);}
	.st28{clip-path:url(#SVGID_44_);}
	.st29{clip-path:url(#SVGID_46_);}
	.st30{clip-path:url(#SVGID_48_);}
	.st31{clip-path:url(#SVGID_50_);}
	.st32{clip-path:url(#SVGID_52_);}
	.st33{clip-path:url(#SVGID_54_);}
	.st34{clip-path:url(#SVGID_56_);}
	.st35{clip-path:url(#SVGID_58_);}
	.st36{clip-path:url(#SVGID_60_);}
	.st37{clip-path:url(#SVGID_62_);}
	.st38{clip-path:url(#SVGID_64_);}
	.st39{clip-path:url(#SVGID_66_);}
	.st40{clip-path:url(#SVGID_68_);}
	.st41{clip-path:url(#SVGID_70_);}
	.st42{clip-path:url(#SVGID_72_);}
	.st43{clip-path:url(#SVGID_74_);}
	.st44{clip-path:url(#SVGID_76_);}
	.st45{clip-path:url(#SVGID_78_);}
	.st46{clip-path:url(#SVGID_80_);}
	.st47{clip-path:url(#SVGID_82_);}
	.st48{clip-path:url(#SVGID_84_);}
	.st49{clip-path:url(#SVGID_86_);}
	.st50{clip-path:url(#SVGID_88_);}
	.st51{clip-path:url(#SVGID_90_);}
	.st52{clip-path:url(#SVGID_92_);}
	.st53{clip-path:url(#SVGID_94_);}
	.st54{clip-path:url(#SVGID_96_);}
	.st55{clip-path:url(#SVGID_98_);}
	.st56{clip-path:url(#SVGID_100_);}
	.st57{clip-path:url(#SVGID_102_);}
	.st58{clip-path:url(#SVGID_104_);}
	.st59{clip-path:url(#SVGID_106_);}
	.st60{clip-path:url(#SVGID_108_);}
	.st61{clip-path:url(#SVGID_110_);}
	.st62{clip-path:url(#SVGID_112_);}
	.st63{clip-path:url(#SVGID_114_);}
	.st64{clip-path:url(#SVGID_116_);}
	.st65{clip-path:url(#SVGID_118_);}
	.st66{clip-path:url(#SVGID_120_);}
	.st67{clip-path:url(#SVGID_122_);}
	.st68{clip-path:url(#SVGID_124_);}
	.st69{clip-path:url(#SVGID_126_);}
	.st70{clip-path:url(#SVGID_128_);}
	.st71{clip-path:url(#SVGID_130_);}
	.st72{clip-path:url(#SVGID_132_);}
	.st73{clip-path:url(#SVGID_134_);}
	.st74{clip-path:url(#SVGID_136_);}
	.st75{clip-path:url(#SVGID_138_);}
	.st76{clip-path:url(#SVGID_140_);}
	.st77{clip-path:url(#SVGID_142_);}
	.st78{clip-path:url(#SVGID_144_);}
	.st79{clip-path:url(#SVGID_146_);}
	.st80{clip-path:url(#SVGID_148_);}
	.st81{clip-path:url(#SVGID_150_);}
	.st82{clip-path:url(#SVGID_152_);}
	.st83{clip-path:url(#SVGID_154_);}
	.st84{clip-path:url(#SVGID_156_);}
	.st85{clip-path:url(#SVGID_158_);}
	.st86{clip-path:url(#SVGID_160_);}
	.st87{clip-path:url(#SVGID_162_);}
	.st88{clip-path:url(#SVGID_164_);}
	.st89{clip-path:url(#SVGID_166_);}
	.st90{clip-path:url(#SVGID_168_);}
	.st91{clip-path:url(#SVGID_170_);}
	.st92{clip-path:url(#SVGID_172_);}
	.st93{clip-path:url(#SVGID_174_);}
	.st94{clip-path:url(#SVGID_176_);}
	.st95{clip-path:url(#SVGID_178_);}
	.st96{fill:none;stroke:#CCCCCC;stroke-width:0.5;stroke-linecap:round;stroke-linejoin:round;}
</style>
<g id="Слой_2_1_">
	<g id="Слой_1-2">
		<g>
			<defs>
				<polygon id="SVGID_1_" points="-1.8,237 1205.9,237 1205.9,5.5 -1.8,5.5 -1.8,237 				"/>
			</defs>
			<clipPath id="SVGID_2_">
				<use xlink:href="#SVGID_1_"  style="overflow:visible;"/>
			</clipPath>
			<g class="st0">
				<polygon class="st1" points="26.4,15.1 1192,15.1 1192,207.9 26.4,207.9 26.4,15.1 				"/>
			</g>
		</g>
		<g>
			<defs>
				<polygon id="SVGID_3_" points="-1.8,237 1205.9,237 1205.9,5.5 -1.8,5.5 -1.8,237 				"/>
			</defs>
			<clipPath id="SVGID_4_">
				<use xlink:href="#SVGID_3_"  style="overflow:visible;"/>
			</clipPath>
			<g class="st2">
				<line class="st1" x1="26.4" y1="207.9" x2="26.4" y2="15.1"/>
			</g>
		</g>
		<g>
			<defs>
				<polygon id="SVGID_5_" points="-1.8,237 1205.9,237 1205.9,5.5 -1.8,5.5 -1.8,237 				"/>
			</defs>
			<clipPath id="SVGID_6_">
				<use xlink:href="#SVGID_5_"  style="overflow:visible;"/>
			</clipPath>
			<g class="st3">
				<line class="st4" x1="26.2" y1="207.6" x2="1191.7" y2="207.6"/>
			</g>
		</g>
		<path class="st5" d="M35.9,207.5l9-0.3c3-0.1,6,0.3,9-0.3s6-3.3,9-3.5s6,1.6,9,2.2s6,1.6,9,1.8s6-0.6,9-1s6-0.6,9-1.3s6-2.9,9-2.6
			s6,3.7,9,4.5s6,0.6,9,0.5s6-0.9,9-1s6,0.2,9,0.3s6,0.2,9,0.2s6-0.2,9-0.2s6,0.2,9,0.2s6-0.2,9-0.3s6-0.3,9-0.3s6,0,9,0
			s6-0.3,9-0.3s6,0.2,9,0.2s6-0.4,9-0.6s6-0.9,9-0.6s6,2,9,2.2c3,0.4,6.1,0.2,9-0.6c3.3-1.2,6.3-2.9,9-5.1c3-2.3,6-9.3,9-8.5
			s6,11,9,13.1s6-0.5,9-0.5s6,0.5,9,0.6s6,0.2,9,0.3s6,0.6,9,0.5s6-0.8,9-1s6,0.2,9,0.2s6,0.4,9-0.3s6-3.4,9-3.9s6,0.7,9,1.3
			s6,2.2,9,2.4s6-1.2,9-1.1s6,1.4,9,1.6s6-0.4,9-0.2s6,1.3,9,1.3s6-1.1,9-1.6s6-0.9,9-1.1s6,0.1,9,0s6-0.6,9-0.8s6-0.1,9-0.3
			s6-0.7,9-0.8s6,0.2,9,0.3c3,0,6,0.2,9,0.6c3,0.6,6,2.7,9,3.1s6-0.9,9-1s6,0.6,9,0.6c3,0,6-0.1,9-0.5c3-0.4,6-1.4,9-1.8
			s6,1.1,9-0.3s6-5.6,9-8s6-3,9-6.3s6-11,9-13s6,2.3,9,1s6-7.1,9-9c2.7-1.7,5.8-2.6,9-2.6c3,0,6,1.4,9,2.4s6,3.7,9,3.5
			c2.6-0.1,6.4-0.1,9-4.5c3-5,6-18.6,9-25.7s6-13.6,9-16.7s6-1.8,9-1.8c2.4,0,6.6-2,9,1.9c3,4.9,6,21.9,9,27.7
			c2.7,5.2,6.3,5.9,9,7.5c3,1.9,6,2.4,9,3.5s6,3.9,9,3.1s6-9,9-8.3s6,10.6,9,12.5s6-1.3,9-1.3c3.1-0.1,6.1,0.4,9,1.4
			c3,1.3,6,6.6,9,6.2s6-7.6,9-8.5s6,3.6,9,3.4s6-3.9,9-5s6-2.6,9-1.8s6,7.4,9,6.7s6-9.8,9-10.9s6,2.1,9,4.5s6,7.6,9,9.6s6,1.9,9,2.6
			s6,3.7,9,1.6s6-13.8,9-14.4s6,8.7,9,10.4s6,0.3,9-0.3s6-3.7,9-3.2s6,5.3,9,5.9s6-1.3,9-1.9s6-2.3,9-1.9s6,4.4,9,4.2s6-4.2,9-5.4
			s6-3.2,9-2.2s6,6.3,9,8.2s6,3.3,9,3.4s6-2.8,9-2.7s6,3.2,9,3.1s6-1.8,9-4s6-8.4,9-9.1s6,4.3,9,4.8c3.1,0.7,6.3,0.1,9-1.6
			c3-2,6-10.4,9-10.6s6,8.4,9,9.3s6-5.1,9-3.9s6,10.5,9,11.4s6-3.3,9-5.9s6-8.2,9-9.6s6,3.2,9,1s6-11.6,9-14.3s6,1.4,9-1.9
			s6-15.9,9-18.3c2.3-1.8,6.8,8.6,9,4.2c3-5.9,6-36.7,9-39.8s6,13.6,9,21.5s6,27,9,26s6-23.6,9-32.1c2.7-7.7,6.3-8.7,9-18.8
			c3-11.1,6-51.1,9-48.1s6,53.3,9,66.1c1.6,6.7,7.4,9.7,9,10.4c3,1.5,6-2.4,9-1.6s6,3.3,9,6.4s6,5.6,9,12.5s6,19.5,9,29.2"/>
		<g>
			<defs>
				<polygon id="SVGID_7_" points="-1.8,237 1205.9,237 1205.9,5.5 -1.8,5.5 -1.8,237 				"/>
			</defs>
			<clipPath id="SVGID_8_">
				<use xlink:href="#SVGID_7_"  style="overflow:visible;"/>
			</clipPath>
			<g class="st6">
				<g>
					<defs>
						<rect id="SVGID_9_" x="-1.8" y="5.5" width="1207.7" height="231.4"/>
					</defs>
					<clipPath id="SVGID_10_">
						<use xlink:href="#SVGID_9_"  style="overflow:visible;"/>
					</clipPath>
					<g class="st7">
						<text transform="matrix(0.99 0 0 1 15.3999 209.8101)" class="st8 st9 st10">0</text>
					</g>
				</g>
			</g>
		</g>
		<g>
			<defs>
				<polygon id="SVGID_11_" points="-1.8,237 1205.9,237 1205.9,5.5 -1.8,5.5 -1.8,237 				"/>
			</defs>
			<clipPath id="SVGID_12_">
				<use xlink:href="#SVGID_11_"  style="overflow:visible;"/>
			</clipPath>
			<g class="st11">
				<g>
					<defs>
						<rect id="SVGID_13_" x="-1.8" y="5.5" width="1207.7" height="231.4"/>
					</defs>
					<clipPath id="SVGID_14_">
						<use xlink:href="#SVGID_13_"  style="overflow:visible;"/>
					</clipPath>
					<g class="st12">
						<text transform="matrix(0.99 0 0 1 7.6802 177.6899)" class="st8 st9 st10">2</text>
						<text transform="matrix(0.99 0 0 1 11.749 177.6899)" class="st8 st9 st10">0</text>
						<text transform="matrix(0.99 0 0 1 15.313 177.6899)" class="st8 st9 st10">0</text>
					</g>
				</g>
			</g>
		</g>
		<g>
			<defs>
				<polygon id="SVGID_15_" points="-1.8,237 1205.9,237 1205.9,5.5 -1.8,5.5 -1.8,237 				"/>
			</defs>
			<clipPath id="SVGID_16_">
				<use xlink:href="#SVGID_15_"  style="overflow:visible;"/>
			</clipPath>
			<g class="st13">
				<g>
					<defs>
						<rect id="SVGID_17_" x="-1.8" y="5.5" width="1207.7" height="231.4"/>
					</defs>
					<clipPath id="SVGID_18_">
						<use xlink:href="#SVGID_17_"  style="overflow:visible;"/>
					</clipPath>
					<g class="st14">
						<text transform="matrix(0.99 0 0 1 7.6802 145.5601)" class="st8 st9 st10">4</text>
						<text transform="matrix(0.99 0 0 1 11.749 145.5601)" class="st8 st9 st10">0</text>
						<text transform="matrix(0.99 0 0 1 15.313 145.5601)" class="st8 st9 st10">0</text>
					</g>
				</g>
			</g>
		</g>
		<g>
			<defs>
				<polygon id="SVGID_19_" points="-1.8,237 1205.9,237 1205.9,5.5 -1.8,5.5 -1.8,237 				"/>
			</defs>
			<clipPath id="SVGID_20_">
				<use xlink:href="#SVGID_19_"  style="overflow:visible;"/>
			</clipPath>
			<g class="st15">
				<g>
					<defs>
						<rect id="SVGID_21_" x="-1.8" y="5.5" width="1207.7" height="231.4"/>
					</defs>
					<clipPath id="SVGID_22_">
						<use xlink:href="#SVGID_21_"  style="overflow:visible;"/>
					</clipPath>
					<g class="st16">
						<text transform="matrix(0.99 0 0 1 7.6802 113.4399)" class="st8 st9 st10">6</text>
						<text transform="matrix(0.99 0 0 1 11.749 113.4399)" class="st8 st9 st10">0</text>
						<text transform="matrix(0.99 0 0 1 15.313 113.4399)" class="st8 st9 st10">0</text>
					</g>
				</g>
			</g>
		</g>
		<g>
			<defs>
				<polygon id="SVGID_23_" points="-1.8,237 1205.9,237 1205.9,5.5 -1.8,5.5 -1.8,237 				"/>
			</defs>
			<clipPath id="SVGID_24_">
				<use xlink:href="#SVGID_23_"  style="overflow:visible;"/>
			</clipPath>
			<g class="st17">
				<g>
					<defs>
						<rect id="SVGID_25_" x="-1.8" y="5.5" width="1207.7" height="231.4"/>
					</defs>
					<clipPath id="SVGID_26_">
						<use xlink:href="#SVGID_25_"  style="overflow:visible;"/>
					</clipPath>
					<g class="st18">
						<text transform="matrix(0.99 0 0 1 7.6802 81.3301)" class="st8 st9 st10">8</text>
						<text transform="matrix(0.99 0 0 1 11.749 81.3301)" class="st8 st9 st10">0</text>
						<text transform="matrix(0.99 0 0 1 15.313 81.3301)" class="st8 st9 st10">0</text>
					</g>
				</g>
			</g>
		</g>
		<g>
			<defs>
				<polygon id="SVGID_27_" points="-1.8,237 1205.9,237 1205.9,5.5 -1.8,5.5 -1.8,237 				"/>
			</defs>
			<clipPath id="SVGID_28_">
				<use xlink:href="#SVGID_27_"  style="overflow:visible;"/>
			</clipPath>
			<g class="st19">
				<g>
					<defs>
						<rect id="SVGID_29_" x="-1.8" y="5.5" width="1207.7" height="231.4"/>
					</defs>
					<clipPath id="SVGID_30_">
						<use xlink:href="#SVGID_29_"  style="overflow:visible;"/>
					</clipPath>
					<g class="st20">
						<text transform="matrix(0.99 0 0 1 3.8203 49.2002)" class="st8 st9 st10">1</text>
						<text transform="matrix(0.99 0 0 1 7.8892 49.2002)" class="st8 st9 st10">0</text>
						<text transform="matrix(0.99 0 0 1 11.4531 49.2002)" class="st8 st9 st10">0</text>
						<text transform="matrix(0.99 0 0 1 15.522 49.2002)" class="st8 st9 st10">0</text>
					</g>
				</g>
			</g>
		</g>
		<g>
			<defs>
				<polygon id="SVGID_31_" points="-1.8,237 1205.9,237 1205.9,5.5 -1.8,5.5 -1.8,237 				"/>
			</defs>
			<clipPath id="SVGID_32_">
				<use xlink:href="#SVGID_31_"  style="overflow:visible;"/>
			</clipPath>
			<g class="st21">
				<g>
					<defs>
						<rect id="SVGID_33_" x="-1.8" y="5.5" width="1207.7" height="231.4"/>
					</defs>
					<clipPath id="SVGID_34_">
						<use xlink:href="#SVGID_33_"  style="overflow:visible;"/>
					</clipPath>
					<g class="st22">
						<text transform="matrix(0.99 0 0 1 3.8203 17.0801)" class="st8 st9 st10">1</text>
						<text transform="matrix(0.99 0 0 1 7.8892 17.0801)" class="st8 st9 st10">2</text>
						<text transform="matrix(0.99 0 0 1 11.4531 17.0801)" class="st8 st9 st10">0</text>
						<text transform="matrix(0.99 0 0 1 15.522 17.0801)" class="st8 st9 st10">0</text>
					</g>
				</g>
			</g>
		</g>
		<text transform="matrix(0.99 0 0 1 0 6.29)" class="st8 st9 st10">Здания</text>
		<g>
			<defs>
				<polygon id="SVGID_35_" points="-1.8,237 1205.9,237 1205.9,5.5 -1.8,5.5 -1.8,237 				"/>
			</defs>
			<clipPath id="SVGID_36_">
				<use xlink:href="#SVGID_35_"  style="overflow:visible;"/>
			</clipPath>
			<g class="st23">
				<g>
					<defs>
						<rect id="SVGID_37_" x="-1.8" y="5.5" width="1207.7" height="231.4"/>
					</defs>
					<clipPath id="SVGID_38_">
						<use xlink:href="#SVGID_37_"  style="overflow:visible;"/>
					</clipPath>
					<g class="st24">
						<text transform="matrix(0.99 0 0 1 41.8579 219.8301)" class="st25 st9 st10">185</text>
						<text transform="matrix(0.99 0 0 1 55.5986 219.8301)" class="st25 st9 st10">0</text>
						<g>
							<text transform="matrix(0.99 0 0 1 16.961 219.8992)" class="st25 st9 st10">1700</text>
						</g>
					</g>
				</g>
			</g>
		</g>
		<g>
			<defs>
				<polygon id="SVGID_39_" points="-1.8,237 1205.9,237 1205.9,5.5 -1.8,5.5 -1.8,237 				"/>
			</defs>
			<clipPath id="SVGID_40_">
				<use xlink:href="#SVGID_39_"  style="overflow:visible;"/>
			</clipPath>
			<g class="st26">
				<g>
					<defs>
						<rect id="SVGID_41_" x="-1.8" y="5.5" width="1207.7" height="231.4"/>
					</defs>
					<clipPath id="SVGID_42_">
						<use xlink:href="#SVGID_41_"  style="overflow:visible;"/>
					</clipPath>
					<g class="st27">
						<text transform="matrix(0.99 0 0 1 59.7146 219.8301)" class="st25 st9 st10">-</text>
					</g>
				</g>
			</g>
		</g>
		<g>
			<defs>
				<polygon id="SVGID_43_" points="-1.8,237 1205.9,237 1205.9,5.5 -1.8,5.5 -1.8,237 				"/>
			</defs>
			<clipPath id="SVGID_44_">
				<use xlink:href="#SVGID_43_"  style="overflow:visible;"/>
			</clipPath>
			<g class="st28">
				<g>
					<defs>
						<rect id="SVGID_45_" x="-1.8" y="5.5" width="1207.7" height="231.4"/>
					</defs>
					<clipPath id="SVGID_46_">
						<use xlink:href="#SVGID_45_"  style="overflow:visible;"/>
					</clipPath>
					<g class="st29">
						<text transform="matrix(0.99 0 0 1 62.0391 219.6099)" class="st25 st9 st10">186</text>
						<text transform="matrix(0.99 0 0 1 75.7803 219.6099)" class="st25 st9 st10">0</text>
					</g>
				</g>
			</g>
		</g>
		<g>
			<defs>
				<polygon id="SVGID_47_" points="-1.8,237 1205.9,237 1205.9,5.5 -1.8,5.5 -1.8,237 				"/>
			</defs>
			<clipPath id="SVGID_48_">
				<use xlink:href="#SVGID_47_"  style="overflow:visible;"/>
			</clipPath>
			<g class="st30">
				<g>
					<defs>
						<rect id="SVGID_49_" x="-1.8" y="5.5" width="1207.7" height="231.4"/>
					</defs>
					<clipPath id="SVGID_50_">
						<use xlink:href="#SVGID_49_"  style="overflow:visible;"/>
					</clipPath>
					<g class="st31">
						<text transform="matrix(0.99 0 0 1 84.6025 219.8301)" class="st25 st9 st10">189</text>
						<text transform="matrix(0.99 0 0 1 98.3438 219.8301)" class="st25 st9 st10">0</text>
					</g>
				</g>
			</g>
		</g>
		<g>
			<defs>
				<polygon id="SVGID_51_" points="-1.8,237 1205.9,237 1205.9,5.5 -1.8,5.5 -1.8,237 				"/>
			</defs>
			<clipPath id="SVGID_52_">
				<use xlink:href="#SVGID_51_"  style="overflow:visible;"/>
			</clipPath>
			<g class="st32">
				<g>
					<defs>
						<rect id="SVGID_53_" x="-1.8" y="5.5" width="1207.7" height="231.4"/>
					</defs>
					<clipPath id="SVGID_54_">
						<use xlink:href="#SVGID_53_"  style="overflow:visible;"/>
					</clipPath>
					<g class="st33">
						<text transform="matrix(0.99 0 0 1 102.9398 219.8301)" class="st25 st9 st10">-</text>
					</g>
				</g>
			</g>
		</g>
		<g>
			<defs>
				<polygon id="SVGID_55_" points="-1.8,237 1205.9,237 1205.9,5.5 -1.8,5.5 -1.8,237 				"/>
			</defs>
			<clipPath id="SVGID_56_">
				<use xlink:href="#SVGID_55_"  style="overflow:visible;"/>
			</clipPath>
			<g class="st34">
				<g>
					<defs>
						<rect id="SVGID_57_" x="-1.8" y="5.5" width="1207.7" height="231.4"/>
					</defs>
					<clipPath id="SVGID_58_">
						<use xlink:href="#SVGID_57_"  style="overflow:visible;"/>
					</clipPath>
					<g class="st35">
						<text transform="matrix(0.99 0 0 1 105.6328 219.6099)" class="st25 st9 st10">190</text>
						<text transform="matrix(0.99 0 0 1 119.374 219.6099)" class="st25 st9 st10">0</text>
					</g>
				</g>
			</g>
		</g>
		<g>
			<defs>
				<polygon id="SVGID_59_" points="-1.8,237 1205.9,237 1205.9,5.5 -1.8,5.5 -1.8,237 				"/>
			</defs>
			<clipPath id="SVGID_60_">
				<use xlink:href="#SVGID_59_"  style="overflow:visible;"/>
			</clipPath>
			<g class="st36">
				<g>
					<defs>
						<rect id="SVGID_61_" x="-1.8" y="5.5" width="1207.7" height="231.4"/>
					</defs>
					<clipPath id="SVGID_62_">
						<use xlink:href="#SVGID_61_"  style="overflow:visible;"/>
					</clipPath>
					<g class="st37">
						<text transform="matrix(0.99 0 0 1 130.1802 219.8301)" class="st25 st9 st10">190</text>
						<text transform="matrix(0.99 0 0 1 143.9214 219.8301)" class="st25 st9 st10">4</text>
					</g>
				</g>
			</g>
		</g>
		<g>
			<defs>
				<polygon id="SVGID_63_" points="-1.8,237 1205.9,237 1205.9,5.5 -1.8,5.5 -1.8,237 				"/>
			</defs>
			<clipPath id="SVGID_64_">
				<use xlink:href="#SVGID_63_"  style="overflow:visible;"/>
			</clipPath>
			<g class="st38">
				<g>
					<defs>
						<rect id="SVGID_65_" x="-1.8" y="5.5" width="1207.7" height="231.4"/>
					</defs>
					<clipPath id="SVGID_66_">
						<use xlink:href="#SVGID_65_"  style="overflow:visible;"/>
					</clipPath>
					<g class="st39">
						<text transform="matrix(0.99 0 0 1 166.3203 219.8301)" class="st25 st9 st10">190</text>
						<text transform="matrix(0.99 0 0 1 180.0615 219.8301)" class="st25 st9 st10">8</text>
					</g>
				</g>
			</g>
		</g>
		<g>
			<defs>
				<polygon id="SVGID_67_" points="-1.8,237 1205.9,237 1205.9,5.5 -1.8,5.5 -1.8,237 				"/>
			</defs>
			<clipPath id="SVGID_68_">
				<use xlink:href="#SVGID_67_"  style="overflow:visible;"/>
			</clipPath>
			<g class="st40">
				<g>
					<defs>
						<rect id="SVGID_69_" x="-1.8" y="5.5" width="1207.7" height="231.4"/>
					</defs>
					<clipPath id="SVGID_70_">
						<use xlink:href="#SVGID_69_"  style="overflow:visible;"/>
					</clipPath>
					<g class="st41">
						<text transform="matrix(0.99 0 0 1 202.4702 219.8301)" class="st25 st9 st10">191</text>
						<text transform="matrix(0.99 0 0 1 216.2114 219.8301)" class="st25 st9 st10">2</text>
					</g>
				</g>
			</g>
		</g>
		<g>
			<defs>
				<polygon id="SVGID_71_" points="-1.8,237 1205.9,237 1205.9,5.5 -1.8,5.5 -1.8,237 				"/>
			</defs>
			<clipPath id="SVGID_72_">
				<use xlink:href="#SVGID_71_"  style="overflow:visible;"/>
			</clipPath>
			<g class="st42">
				<g>
					<defs>
						<rect id="SVGID_73_" x="-1.8" y="5.5" width="1207.7" height="231.4"/>
					</defs>
					<clipPath id="SVGID_74_">
						<use xlink:href="#SVGID_73_"  style="overflow:visible;"/>
					</clipPath>
					<g class="st43">
						<text transform="matrix(0.99 0 0 1 238.6104 219.8301)" class="st25 st9 st10">191</text>
						<text transform="matrix(0.99 0 0 1 252.3516 219.8301)" class="st25 st9 st10">6</text>
					</g>
				</g>
			</g>
		</g>
		<g>
			<defs>
				<polygon id="SVGID_75_" points="-1.8,237 1205.9,237 1205.9,5.5 -1.8,5.5 -1.8,237 				"/>
			</defs>
			<clipPath id="SVGID_76_">
				<use xlink:href="#SVGID_75_"  style="overflow:visible;"/>
			</clipPath>
			<g class="st44">
				<g>
					<defs>
						<rect id="SVGID_77_" x="-1.8" y="5.5" width="1207.7" height="231.4"/>
					</defs>
					<clipPath id="SVGID_78_">
						<use xlink:href="#SVGID_77_"  style="overflow:visible;"/>
					</clipPath>
					<g class="st45">
						<text transform="matrix(0.99 0 0 1 274.7603 219.8301)" class="st25 st9 st10">192</text>
						<text transform="matrix(0.99 0 0 1 288.5015 219.8301)" class="st25 st9 st10">0</text>
					</g>
				</g>
			</g>
		</g>
		<g>
			<defs>
				<polygon id="SVGID_79_" points="-1.8,237 1205.9,237 1205.9,5.5 -1.8,5.5 -1.8,237 				"/>
			</defs>
			<clipPath id="SVGID_80_">
				<use xlink:href="#SVGID_79_"  style="overflow:visible;"/>
			</clipPath>
			<g class="st46">
				<g>
					<defs>
						<rect id="SVGID_81_" x="-1.8" y="5.5" width="1207.7" height="231.4"/>
					</defs>
					<clipPath id="SVGID_82_">
						<use xlink:href="#SVGID_81_"  style="overflow:visible;"/>
					</clipPath>
					<g class="st47">
						<text transform="matrix(0.99 0 0 1 310.8999 219.8301)" class="st25 st9 st10">192</text>
						<text transform="matrix(0.99 0 0 1 324.6411 219.8301)" class="st25 st9 st10">4</text>
					</g>
				</g>
			</g>
		</g>
		<g>
			<defs>
				<polygon id="SVGID_83_" points="-1.8,237 1205.9,237 1205.9,5.5 -1.8,5.5 -1.8,237 				"/>
			</defs>
			<clipPath id="SVGID_84_">
				<use xlink:href="#SVGID_83_"  style="overflow:visible;"/>
			</clipPath>
			<g class="st48">
				<g>
					<defs>
						<rect id="SVGID_85_" x="-1.8" y="5.5" width="1207.7" height="231.4"/>
					</defs>
					<clipPath id="SVGID_86_">
						<use xlink:href="#SVGID_85_"  style="overflow:visible;"/>
					</clipPath>
					<g class="st49">
						<text transform="matrix(0.99 0 0 1 347.04 219.8301)" class="st25 st9 st10">192</text>
						<text transform="matrix(0.99 0 0 1 360.7812 219.8301)" class="st25 st9 st10">8</text>
					</g>
				</g>
			</g>
		</g>
		<g>
			<defs>
				<polygon id="SVGID_87_" points="-1.8,237 1205.9,237 1205.9,5.5 -1.8,5.5 -1.8,237 				"/>
			</defs>
			<clipPath id="SVGID_88_">
				<use xlink:href="#SVGID_87_"  style="overflow:visible;"/>
			</clipPath>
			<g class="st50">
				<g>
					<defs>
						<rect id="SVGID_89_" x="-1.8" y="5.5" width="1207.7" height="231.4"/>
					</defs>
					<clipPath id="SVGID_90_">
						<use xlink:href="#SVGID_89_"  style="overflow:visible;"/>
					</clipPath>
					<g class="st51">
						<text transform="matrix(0.99 0 0 1 383.1802 219.8301)" class="st25 st9 st10">193</text>
						<text transform="matrix(0.99 0 0 1 396.9214 219.8301)" class="st25 st9 st10">2</text>
					</g>
				</g>
			</g>
		</g>
		<g>
			<defs>
				<polygon id="SVGID_91_" points="-1.8,237 1205.9,237 1205.9,5.5 -1.8,5.5 -1.8,237 				"/>
			</defs>
			<clipPath id="SVGID_92_">
				<use xlink:href="#SVGID_91_"  style="overflow:visible;"/>
			</clipPath>
			<g class="st52">
				<g>
					<defs>
						<rect id="SVGID_93_" x="-1.8" y="5.5" width="1207.7" height="231.4"/>
					</defs>
					<clipPath id="SVGID_94_">
						<use xlink:href="#SVGID_93_"  style="overflow:visible;"/>
					</clipPath>
					<g class="st53">
						<text transform="matrix(0.99 0 0 1 419.3301 219.8301)" class="st25 st9 st10">193</text>
						<text transform="matrix(0.99 0 0 1 433.0713 219.8301)" class="st25 st9 st10">6</text>
					</g>
				</g>
			</g>
		</g>
		<g>
			<defs>
				<polygon id="SVGID_95_" points="-1.8,237 1205.9,237 1205.9,5.5 -1.8,5.5 -1.8,237 				"/>
			</defs>
			<clipPath id="SVGID_96_">
				<use xlink:href="#SVGID_95_"  style="overflow:visible;"/>
			</clipPath>
			<g class="st54">
				<g>
					<defs>
						<rect id="SVGID_97_" x="-1.8" y="5.5" width="1207.7" height="231.4"/>
					</defs>
					<clipPath id="SVGID_98_">
						<use xlink:href="#SVGID_97_"  style="overflow:visible;"/>
					</clipPath>
					<g class="st55">
						<text transform="matrix(0.99 0 0 1 455.48 219.8301)" class="st25 st9 st10">194</text>
						<text transform="matrix(0.99 0 0 1 469.2212 219.8301)" class="st25 st9 st10">0</text>
					</g>
				</g>
			</g>
		</g>
		<g>
			<defs>
				<polygon id="SVGID_99_" points="-1.8,237 1205.9,237 1205.9,5.5 -1.8,5.5 -1.8,237 				"/>
			</defs>
			<clipPath id="SVGID_100_">
				<use xlink:href="#SVGID_99_"  style="overflow:visible;"/>
			</clipPath>
			<g class="st56">
				<g>
					<defs>
						<rect id="SVGID_101_" x="-1.8" y="5.5" width="1207.7" height="231.4"/>
					</defs>
					<clipPath id="SVGID_102_">
						<use xlink:href="#SVGID_101_"  style="overflow:visible;"/>
					</clipPath>
					<g class="st57">
						<text transform="matrix(0.99 0 0 1 491.6201 219.8301)" class="st25 st9 st10">194</text>
						<text transform="matrix(0.99 0 0 1 505.3613 219.8301)" class="st25 st9 st10">4</text>
					</g>
				</g>
			</g>
		</g>
		<g>
			<defs>
				<polygon id="SVGID_103_" points="-1.8,237 1205.9,237 1205.9,5.5 -1.8,5.5 -1.8,237 				"/>
			</defs>
			<clipPath id="SVGID_104_">
				<use xlink:href="#SVGID_103_"  style="overflow:visible;"/>
			</clipPath>
			<g class="st58">
				<g>
					<defs>
						<rect id="SVGID_105_" x="-1.8" y="5.5" width="1207.7" height="231.4"/>
					</defs>
					<clipPath id="SVGID_106_">
						<use xlink:href="#SVGID_105_"  style="overflow:visible;"/>
					</clipPath>
					<g class="st59">
						<text transform="matrix(0.99 0 0 1 527.77 219.8301)" class="st25 st9 st10">194</text>
						<text transform="matrix(0.99 0 0 1 541.5112 219.8301)" class="st25 st9 st10">8</text>
					</g>
				</g>
			</g>
		</g>
		<g>
			<defs>
				<polygon id="SVGID_107_" points="-1.8,237 1205.9,237 1205.9,5.5 -1.8,5.5 -1.8,237 				"/>
			</defs>
			<clipPath id="SVGID_108_">
				<use xlink:href="#SVGID_107_"  style="overflow:visible;"/>
			</clipPath>
			<g class="st60">
				<g>
					<defs>
						<rect id="SVGID_109_" x="-1.8" y="5.5" width="1207.7" height="231.4"/>
					</defs>
					<clipPath id="SVGID_110_">
						<use xlink:href="#SVGID_109_"  style="overflow:visible;"/>
					</clipPath>
					<g class="st61">
						<text transform="matrix(0.99 0 0 1 563.9102 219.8301)" class="st25 st9 st10">195</text>
						<text transform="matrix(0.99 0 0 1 577.6514 219.8301)" class="st25 st9 st10">2</text>
					</g>
				</g>
			</g>
		</g>
		<g>
			<defs>
				<polygon id="SVGID_111_" points="-1.8,237 1205.9,237 1205.9,5.5 -1.8,5.5 -1.8,237 				"/>
			</defs>
			<clipPath id="SVGID_112_">
				<use xlink:href="#SVGID_111_"  style="overflow:visible;"/>
			</clipPath>
			<g class="st62">
				<g>
					<defs>
						<rect id="SVGID_113_" x="-1.8" y="5.5" width="1207.7" height="231.4"/>
					</defs>
					<clipPath id="SVGID_114_">
						<use xlink:href="#SVGID_113_"  style="overflow:visible;"/>
					</clipPath>
					<g class="st63">
						<text transform="matrix(0.99 0 0 1 600.0503 219.8301)" class="st25 st9 st10">195</text>
						<text transform="matrix(0.99 0 0 1 613.7915 219.8301)" class="st25 st9 st10">6</text>
					</g>
				</g>
			</g>
		</g>
		<g>
			<defs>
				<polygon id="SVGID_115_" points="-1.8,237 1205.9,237 1205.9,5.5 -1.8,5.5 -1.8,237 				"/>
			</defs>
			<clipPath id="SVGID_116_">
				<use xlink:href="#SVGID_115_"  style="overflow:visible;"/>
			</clipPath>
			<g class="st64">
				<g>
					<defs>
						<rect id="SVGID_117_" x="-1.8" y="5.5" width="1207.7" height="231.4"/>
					</defs>
					<clipPath id="SVGID_118_">
						<use xlink:href="#SVGID_117_"  style="overflow:visible;"/>
					</clipPath>
					<g class="st65">
						<text transform="matrix(0.99 0 0 1 636.2002 219.8301)" class="st25 st9 st10">196</text>
						<text transform="matrix(0.99 0 0 1 649.9414 219.8301)" class="st25 st9 st10">0</text>
					</g>
				</g>
			</g>
		</g>
		<g>
			<defs>
				<polygon id="SVGID_119_" points="-1.8,237 1205.9,237 1205.9,5.5 -1.8,5.5 -1.8,237 				"/>
			</defs>
			<clipPath id="SVGID_120_">
				<use xlink:href="#SVGID_119_"  style="overflow:visible;"/>
			</clipPath>
			<g class="st66">
				<g>
					<defs>
						<rect id="SVGID_121_" x="-1.8" y="5.5" width="1207.7" height="231.4"/>
					</defs>
					<clipPath id="SVGID_122_">
						<use xlink:href="#SVGID_121_"  style="overflow:visible;"/>
					</clipPath>
					<g class="st67">
						<text transform="matrix(0.99 0 0 1 672.3403 219.8301)" class="st25 st9 st10">196</text>
						<text transform="matrix(0.99 0 0 1 686.0815 219.8301)" class="st25 st9 st10">4</text>
					</g>
				</g>
			</g>
		</g>
		<g>
			<defs>
				<polygon id="SVGID_123_" points="-1.8,237 1205.9,237 1205.9,5.5 -1.8,5.5 -1.8,237 				"/>
			</defs>
			<clipPath id="SVGID_124_">
				<use xlink:href="#SVGID_123_"  style="overflow:visible;"/>
			</clipPath>
			<g class="st68">
				<g>
					<defs>
						<rect id="SVGID_125_" x="-1.8" y="5.5" width="1207.7" height="231.4"/>
					</defs>
					<clipPath id="SVGID_126_">
						<use xlink:href="#SVGID_125_"  style="overflow:visible;"/>
					</clipPath>
					<g class="st69">
						<text transform="matrix(0.99 0 0 1 708.4902 219.8301)" class="st25 st9 st10">196</text>
						<text transform="matrix(0.99 0 0 1 722.2314 219.8301)" class="st25 st9 st10">8</text>
					</g>
				</g>
			</g>
		</g>
		<g>
			<defs>
				<polygon id="SVGID_127_" points="-1.8,237 1205.9,237 1205.9,5.5 -1.8,5.5 -1.8,237 				"/>
			</defs>
			<clipPath id="SVGID_128_">
				<use xlink:href="#SVGID_127_"  style="overflow:visible;"/>
			</clipPath>
			<g class="st70">
				<g>
					<defs>
						<rect id="SVGID_129_" x="-1.8" y="5.5" width="1207.7" height="231.4"/>
					</defs>
					<clipPath id="SVGID_130_">
						<use xlink:href="#SVGID_129_"  style="overflow:visible;"/>
					</clipPath>
					<g class="st71">
						<text transform="matrix(0.99 0 0 1 744.6299 219.8301)" class="st25 st9 st10">197</text>
						<text transform="matrix(0.99 0 0 1 758.3711 219.8301)" class="st25 st9 st10">2</text>
					</g>
				</g>
			</g>
		</g>
		<g>
			<defs>
				<polygon id="SVGID_131_" points="-1.8,237 1205.9,237 1205.9,5.5 -1.8,5.5 -1.8,237 				"/>
			</defs>
			<clipPath id="SVGID_132_">
				<use xlink:href="#SVGID_131_"  style="overflow:visible;"/>
			</clipPath>
			<g class="st72">
				<g>
					<defs>
						<rect id="SVGID_133_" x="-1.8" y="5.5" width="1207.7" height="231.4"/>
					</defs>
					<clipPath id="SVGID_134_">
						<use xlink:href="#SVGID_133_"  style="overflow:visible;"/>
					</clipPath>
					<g class="st73">
						<text transform="matrix(0.99 0 0 1 780.77 219.8301)" class="st25 st9 st10">197</text>
						<text transform="matrix(0.99 0 0 1 794.5112 219.8301)" class="st25 st9 st10">6</text>
					</g>
				</g>
			</g>
		</g>
		<g>
			<defs>
				<polygon id="SVGID_135_" points="-1.8,237 1205.9,237 1205.9,5.5 -1.8,5.5 -1.8,237 				"/>
			</defs>
			<clipPath id="SVGID_136_">
				<use xlink:href="#SVGID_135_"  style="overflow:visible;"/>
			</clipPath>
			<g class="st74">
				<g>
					<defs>
						<rect id="SVGID_137_" x="-1.8" y="5.5" width="1207.7" height="231.4"/>
					</defs>
					<clipPath id="SVGID_138_">
						<use xlink:href="#SVGID_137_"  style="overflow:visible;"/>
					</clipPath>
					<g class="st75">
						<text transform="matrix(0.99 0 0 1 816.9102 219.8301)" class="st25 st9 st10">198</text>
						<text transform="matrix(0.99 0 0 1 830.6514 219.8301)" class="st25 st9 st10">0</text>
					</g>
				</g>
			</g>
		</g>
		<g>
			<defs>
				<polygon id="SVGID_139_" points="-1.8,237 1205.9,237 1205.9,5.5 -1.8,5.5 -1.8,237 				"/>
			</defs>
			<clipPath id="SVGID_140_">
				<use xlink:href="#SVGID_139_"  style="overflow:visible;"/>
			</clipPath>
			<g class="st76">
				<g>
					<defs>
						<rect id="SVGID_141_" x="-1.8" y="5.5" width="1207.7" height="231.4"/>
					</defs>
					<clipPath id="SVGID_142_">
						<use xlink:href="#SVGID_141_"  style="overflow:visible;"/>
					</clipPath>
					<g class="st77">
						<text transform="matrix(0.99 0 0 1 853.0601 219.8301)" class="st25 st9 st10">198</text>
						<text transform="matrix(0.99 0 0 1 866.8013 219.8301)" class="st25 st9 st10">4</text>
					</g>
				</g>
			</g>
		</g>
		<g>
			<defs>
				<polygon id="SVGID_143_" points="-1.8,237 1205.9,237 1205.9,5.5 -1.8,5.5 -1.8,237 				"/>
			</defs>
			<clipPath id="SVGID_144_">
				<use xlink:href="#SVGID_143_"  style="overflow:visible;"/>
			</clipPath>
			<g class="st78">
				<g>
					<defs>
						<rect id="SVGID_145_" x="-1.8" y="5.5" width="1207.7" height="231.4"/>
					</defs>
					<clipPath id="SVGID_146_">
						<use xlink:href="#SVGID_145_"  style="overflow:visible;"/>
					</clipPath>
					<g class="st79">
						<text transform="matrix(0.99 0 0 1 889.2002 219.8301)" class="st25 st9 st10">198</text>
						<text transform="matrix(0.99 0 0 1 902.9414 219.8301)" class="st25 st9 st10">8</text>
					</g>
				</g>
			</g>
		</g>
		<g>
			<defs>
				<polygon id="SVGID_147_" points="-1.8,237 1205.9,237 1205.9,5.5 -1.8,5.5 -1.8,237 				"/>
			</defs>
			<clipPath id="SVGID_148_">
				<use xlink:href="#SVGID_147_"  style="overflow:visible;"/>
			</clipPath>
			<g class="st80">
				<g>
					<defs>
						<rect id="SVGID_149_" x="-1.8" y="5.5" width="1207.7" height="231.4"/>
					</defs>
					<clipPath id="SVGID_150_">
						<use xlink:href="#SVGID_149_"  style="overflow:visible;"/>
					</clipPath>
					<g class="st81">
						<text transform="matrix(0.99 0 0 1 925.3501 219.8301)" class="st25 st9 st10">199</text>
						<text transform="matrix(0.99 0 0 1 939.0913 219.8301)" class="st25 st9 st10">2</text>
					</g>
				</g>
			</g>
		</g>
		<g>
			<defs>
				<polygon id="SVGID_151_" points="-1.8,237 1205.9,237 1205.9,5.5 -1.8,5.5 -1.8,237 				"/>
			</defs>
			<clipPath id="SVGID_152_">
				<use xlink:href="#SVGID_151_"  style="overflow:visible;"/>
			</clipPath>
			<g class="st82">
				<g>
					<defs>
						<rect id="SVGID_153_" x="-1.8" y="5.5" width="1207.7" height="231.4"/>
					</defs>
					<clipPath id="SVGID_154_">
						<use xlink:href="#SVGID_153_"  style="overflow:visible;"/>
					</clipPath>
					<g class="st83">
						<text transform="matrix(0.99 0 0 1 961.4902 219.8301)" class="st25 st9 st10">199</text>
						<text transform="matrix(0.99 0 0 1 975.2314 219.8301)" class="st25 st9 st10">6</text>
					</g>
				</g>
			</g>
		</g>
		<g>
			<defs>
				<polygon id="SVGID_155_" points="-1.8,237 1205.9,237 1205.9,5.5 -1.8,5.5 -1.8,237 				"/>
			</defs>
			<clipPath id="SVGID_156_">
				<use xlink:href="#SVGID_155_"  style="overflow:visible;"/>
			</clipPath>
			<g class="st84">
				<g>
					<defs>
						<rect id="SVGID_157_" x="-1.8" y="5.5" width="1207.7" height="231.4"/>
					</defs>
					<clipPath id="SVGID_158_">
						<use xlink:href="#SVGID_157_"  style="overflow:visible;"/>
					</clipPath>
					<g class="st85">
						<text transform="matrix(0.99 0 0 1 997.6299 219.8301)" class="st25 st9 st10">200</text>
						<text transform="matrix(0.99 0 0 1 1011.3711 219.8301)" class="st25 st9 st10">0</text>
					</g>
				</g>
			</g>
		</g>
		<g>
			<defs>
				<polygon id="SVGID_159_" points="-1.8,237 1205.9,237 1205.9,5.5 -1.8,5.5 -1.8,237 				"/>
			</defs>
			<clipPath id="SVGID_160_">
				<use xlink:href="#SVGID_159_"  style="overflow:visible;"/>
			</clipPath>
			<g class="st86">
				<g>
					<defs>
						<rect id="SVGID_161_" x="-1.8" y="5.5" width="1207.7" height="231.4"/>
					</defs>
					<clipPath id="SVGID_162_">
						<use xlink:href="#SVGID_161_"  style="overflow:visible;"/>
					</clipPath>
					<g class="st87">
						<text transform="matrix(0.99 0 0 1 1033.7803 219.8301)" class="st25 st9 st10">200</text>
						<text transform="matrix(0.99 0 0 1 1047.5215 219.8301)" class="st25 st9 st10">4</text>
					</g>
				</g>
			</g>
		</g>
		<g>
			<defs>
				<polygon id="SVGID_163_" points="-1.8,237 1205.9,237 1205.9,5.5 -1.8,5.5 -1.8,237 				"/>
			</defs>
			<clipPath id="SVGID_164_">
				<use xlink:href="#SVGID_163_"  style="overflow:visible;"/>
			</clipPath>
			<g class="st88">
				<g>
					<defs>
						<rect id="SVGID_165_" x="-1.8" y="5.5" width="1207.7" height="231.4"/>
					</defs>
					<clipPath id="SVGID_166_">
						<use xlink:href="#SVGID_165_"  style="overflow:visible;"/>
					</clipPath>
					<g class="st89">
						<text transform="matrix(0.99 0 0 1 1069.9297 219.8301)" class="st25 st9 st10">200</text>
						<text transform="matrix(0.99 0 0 1 1083.6719 219.8301)" class="st25 st9 st10">8</text>
					</g>
				</g>
			</g>
		</g>
		<g>
			<defs>
				<polygon id="SVGID_167_" points="-1.8,237 1205.9,237 1205.9,5.5 -1.8,5.5 -1.8,237 				"/>
			</defs>
			<clipPath id="SVGID_168_">
				<use xlink:href="#SVGID_167_"  style="overflow:visible;"/>
			</clipPath>
			<g class="st90">
				<g>
					<defs>
						<rect id="SVGID_169_" x="-1.8" y="5.5" width="1207.7" height="231.4"/>
					</defs>
					<clipPath id="SVGID_170_">
						<use xlink:href="#SVGID_169_"  style="overflow:visible;"/>
					</clipPath>
					<g class="st91">
						<text transform="matrix(0.99 0 0 1 1106.0703 219.8301)" class="st25 st9 st10">201</text>
						<text transform="matrix(0.99 0 0 1 1119.8115 219.8301)" class="st25 st9 st10">2</text>
					</g>
				</g>
			</g>
		</g>
		<g>
			<defs>
				<polygon id="SVGID_171_" points="-1.8,237 1205.9,237 1205.9,5.5 -1.8,5.5 -1.8,237 				"/>
			</defs>
			<clipPath id="SVGID_172_">
				<use xlink:href="#SVGID_171_"  style="overflow:visible;"/>
			</clipPath>
			<g class="st92">
				<g>
					<defs>
						<rect id="SVGID_173_" x="-1.8" y="5.5" width="1207.7" height="231.4"/>
					</defs>
					<clipPath id="SVGID_174_">
						<use xlink:href="#SVGID_173_"  style="overflow:visible;"/>
					</clipPath>
					<g class="st93">
						<text transform="matrix(0.99 0 0 1 1142.2197 219.8301)" class="st25 st9 st10">201</text>
						<text transform="matrix(0.99 0 0 1 1155.9609 219.8301)" class="st25 st9 st10">6</text>
					</g>
				</g>
			</g>
		</g>
		<g>
			<defs>
				<polygon id="SVGID_175_" points="-1.8,237 1205.9,237 1205.9,5.5 -1.8,5.5 -1.8,237 				"/>
			</defs>
			<clipPath id="SVGID_176_">
				<use xlink:href="#SVGID_175_"  style="overflow:visible;"/>
			</clipPath>
			<g class="st94">
				<g>
					<defs>
						<rect id="SVGID_177_" x="-1.8" y="5.5" width="1207.7" height="231.4"/>
					</defs>
					<clipPath id="SVGID_178_">
						<use xlink:href="#SVGID_177_"  style="overflow:visible;"/>
					</clipPath>
					<g class="st95">
						<text transform="matrix(0.99 0 0 1 1178.3604 219.8301)" class="st25 st9 st10">202</text>
						<text transform="matrix(0.99 0 0 1 1192.1016 219.8301)" class="st25 st9 st10">0</text>
					</g>
				</g>
			</g>
		</g>
		<line class="st96" x1="1007" y1="206.8" x2="1007" y2="168.8"/>
		<line class="st96" x1="1042.9" y1="206.8" x2="1042.9" y2="165.8"/>
		<line class="st96" x1="1078.9" y1="206.8" x2="1078.9" y2="136"/>
		<line class="st96" x1="1151.9" y1="206.8" x2="1151.9" y2="120.8"/>
		<line class="st96" x1="1114.9" y1="206.8" x2="1114.9" y2="113.8"/>
		<line class="st96" x1="1187.9" y1="206.8" x2="1187.9" y2="165.8"/>
		<line class="st96" x1="970" y1="206.8" x2="970" y2="175.8"/>
		<line class="st96" x1="935.6" y1="206.8" x2="935.6" y2="180.8"/>
		<line class="st96" x1="898" y1="206.8" x2="898" y2="175.4"/>
		<line class="st96" x1="863" y1="206.8" x2="863" y2="178.7"/>
		<line class="st96" x1="827" y1="206.8" x2="827" y2="167.1"/>
		<line class="st96" x1="790" y1="206.8" x2="790" y2="165.7"/>
		<line class="st96" x1="753" y1="206.8" x2="753" y2="170.1"/>
		<line class="st96" x1="718" y1="206.8" x2="718" y2="172.8"/>
		<line class="st96" x1="681" y1="206.8" x2="681" y2="167.8"/>
		<line class="st96" x1="645" y1="206.8" x2="645" y2="123.7"/>
		<line class="st96" x1="609" y1="206.8" x2="609" y2="171.1"/>
		<line class="st96" x1="572" y1="206.8" x2="572" y2="173.6"/>
		<line class="st96" x1="107.2" y1="206.8" x2="107.2" y2="203.8"/>
		<line class="st96" x1="63.3" y1="206.8" x2="63.3" y2="204.8"/>
		<line class="st96" x1="536" y1="206.8" x2="536" y2="200.4"/>
		<line class="st96" x1="463" y1="206.8" x2="463" y2="203.8"/>
		<line class="st96" x1="356" y1="206.8" x2="356" y2="203.8"/>
		<line class="st96" x1="428" y1="206.8" x2="428" y2="205.8"/>
	</g>
</g>
</svg>
