<svg xmlns="http://www.w3.org/2000/svg" xmlns:xlink="http://www.w3.org/1999/xlink" viewBox="0 0 1223.47 215.79"><defs><style>.cls-1,.cls-2,.cls-3,.cls-5,.cls-7{fill:none;}.cls-1{clip-rule:evenodd;}.cls-2{fill-rule:evenodd;}.cls-4{clip-path:url(#clip-path);}.cls-5,.cls-7{stroke:#4d8196;stroke-linejoin:round;}.cls-5{stroke-width:0.51px;}.cls-6{clip-path:url(#clip-path-2);}.cls-7{stroke-linecap:round;stroke-width:1.03px;}.cls-8{clip-path:url(#clip-path-4);}.cls-10,.cls-9{font-size:7.71px;font-family:Calibri;}.cls-10,.cls-13{letter-spacing:0.03em;}.cls-11{letter-spacing:-0.04em;}.cls-12{letter-spacing:0em;}</style><clipPath id="clip-path" transform="translate(-5.6 -5.12)"><polygon class="cls-1" points="0 225.77 1239.72 225.77 1239.72 0 0 0 0 225.77 0 225.77"/></clipPath><clipPath id="clip-path-2" transform="translate(-5.6 -5.12)"><polygon class="cls-1" points="27.93 217.03 1231.09 217.03 1231.09 9.26 27.93 9.26 27.93 217.03 27.93 217.03"/></clipPath><clipPath id="clip-path-4" transform="translate(-5.6 -5.12)"><rect class="cls-3" width="1239.72" height="225.77"/></clipPath></defs><g id="Слой_2" data-name="Слой 2"><g id="Слой_1-2" data-name="Слой 1"><g class="cls-4"><line class="cls-5" x1="22.59" y1="211.14" x2="22.59" y2="4.4"/></g><g class="cls-6"><path class="cls-7" d="M30,216.57c1.25-.06,2.49-.18,3.73-.18s2.48.15,3.72.18,2.48,0,3.72,0H63.47c1.24,0,2.48,0,3.72,0s2.48-.18,3.72-.18,2.48.15,3.72.18,2.48,0,3.72,0h148.9c1.24,0,2.48,0,3.72,0s2.48-.18,3.72-.18,2.48.15,3.72.18,2.49,0,3.73,0h85.61c1.24,0,2.48,0,3.72,0s2.48-.18,3.72-.18,2.49.15,3.73.18,2.48,0,3.72,0h3.72c1.24,0,2.48,0,3.72,0s2.48-.18,3.73-.18,2.48.15,3.72.18,2.48,0,3.72,0h14.89c1.24,0,2.48,0,3.72,0s2.48-.18,3.72-.18,2.49.15,3.73.18,2.48,0,3.72,0h7.44c1.24,0,2.48.46,3.73,0s2.48-2.77,3.72-2.77,2.48,2.31,3.72,2.77,2.48,0,3.72,0h11.17c1.24,0,2.48,0,3.72,0s2.48-.18,3.72-.18,2.49.15,3.73.18,2.48,0,3.72,0,2.48-.18,3.72-.18,2.48.15,3.72.18,2.48,0,3.73,0h40.94c1.24,0,2.48,0,3.72,0s2.48-.18,3.73-.18,2.48.15,3.72.18,2.48,0,3.72,0,2.48-.18,3.72-.18,2.48.15,3.72.18,2.49,0,3.73,0h3.72c1.24,0,2.48,0,3.72,0s2.48-.15,3.72-.18,2.49,0,3.73,0,2.48.18,3.72.18,2.48-.12,3.72-.18,2.48-.2,3.72-.17,2.48.29,3.73.35,2.48,0,3.72,0h11.16c1.25,0,2.49,0,3.73,0s2.48-.18,3.72-.18,2.48.15,3.72.18,2.48,0,3.72,0h7.45a27.17,27.17,0,0,0,3.72,0c1.24-.18,2.48-1,3.72-1s2.48.89,3.73,1a27.26,27.26,0,0,0,3.72-.18c1.24,0,2.48,0,3.72,0s2.48,0,3.72,0,2.48.21,3.72.18,2.49-.35,3.73-.35,2.48.32,3.72.35,2.48-.18,3.72-.18,2.48.15,3.72.18,2.49,0,3.73,0,2.48,0,3.72,0,2.48-.18,3.72-.18,2.48.15,3.72.18,2.48,0,3.73,0H659c1.25,0,2.49.08,3.73,0s2.48-.49,3.72-.52,2.48.26,3.72.34,2.48.15,3.72.18,2.49.06,3.73,0,2.48-.32,3.72-.35,2.48.12,3.72.17,2.48.15,3.72.18,2.48,0,3.73,0h3.72a33,33,0,0,0,3.72,0c1.24-.15,2.48-.87,3.72-.87s2.48.72,3.72.87a33.15,33.15,0,0,0,3.73,0c1.24,0,2.48.08,3.72,0s2.48-.43,3.72-.52a25.66,25.66,0,0,1,3.72,0c1.24.09,2.49.43,3.73.52a28.86,28.86,0,0,0,3.72,0c1.24-.09,2.48-.52,3.72-.52s2.48.95,3.72.52,2.48-3.11,3.73-3.11,2.48,2.65,3.72,3.11,2.48-.32,3.72-.35,2.48.15,3.72.17,2.48,0,3.72,0,2.49-.17,3.73-.17,2.48.17,3.72.17,2.48-.11,3.72-.17,2.48-.2,3.72-.17,2.49.63,3.73.34,2.48-2,3.72-2.07,2.48,1.35,3.72,1.73a10.63,10.63,0,0,0,3.72.52c1.24-.09,2.48-.92,3.73-1a23.41,23.41,0,0,1,3.72.35c1.24.08,2.48.17,3.72.17s2.48-.17,3.72-.17,2.48.2,3.72.17,2.49-.23,3.73-.35,2.48-.28,3.72-.34,2.48.06,3.72,0,2.48-.32,3.72-.35,2.49.26,3.73.17a32.38,32.38,0,0,0,3.72-.69c1.24-.23,2.48-1,3.72-.69s2.48,2.13,3.72,2.42a3.91,3.91,0,0,0,3.73-.69,18.64,18.64,0,0,0,3.72-5.53c1.24-2.45,2.48-10,3.72-9.16s2.48,11.9,3.72,14.17c.91,1.67,2.82-.54,3.72-.52a34.41,34.41,0,0,1,3.73.69c1.24.18,2.48.21,3.72.35a20.69,20.69,0,0,0,3.72.52c1.24-.09,2.48-.89,3.72-1s2.49.2,3.73.17,2.48.41,3.72-.34,2.48-3.69,3.72-4.15,2.48.72,3.72,1.38,2.48,2.37,3.73,2.6,2.48-1.3,3.72-1.21,2.48,1.47,3.72,1.72,2.48-.37,3.72-.17,2.48,1.44,3.72,1.38,2.49-1.23,3.73-1.72a18.54,18.54,0,0,1,3.72-1.21c1.24-.21,2.48.14,3.72,0s2.48-.67,3.72-.87,2.49-.14,3.73-.34,2.48-.78,3.72-.87a18.74,18.74,0,0,1,3.72.35c1.24.17,2.48,0,3.72.69s2.48,2.91,3.73,3.28,2.48-1,3.72-1,2.48.66,3.72.69a11.12,11.12,0,0,0,3.72-.52c1.24-.4,2.48-1.53,3.72-1.9s2.52,1.1,3.73-.35,2.48-6.08,3.72-8.64,2.48-3.28,3.72-6.74,2.48-11.84,3.72-14c1-1.69,2.75,2.16,3.73,1,1.24-1.45,2.48-7.61,3.72-9.68s2.52-2.74,3.72-2.77,2.48,1.53,3.72,2.59,2.48,4,3.73,3.81c.68-.1,3-1.85,3.72-4.84,1.24-5.42,2.48-20.05,3.72-27.66s2.48-14.66,3.72-18c.74-2,3-1.91,3.72-1.9.49,0,3.24,0,3.73,2.08,1.24,5.33,2.48,23.56,3.72,29.9a20.28,20.28,0,0,0,3.72,8.12c1.24,2,2.48,2.62,3.72,3.81s2.49,4.23,3.73,3.28,2.48-9.74,3.72-9,2.48,11.47,3.72,13.48c1,1.71,2.67-1.4,3.72-1.38a4.55,4.55,0,0,1,3.73,1.56c1.24,1.38,2.48,7.14,3.72,6.74s2.48-8.24,3.72-9.16,2.48,3.92,3.72,3.63,2.48-4.15,3.72-5.36,2.49-2.8,3.73-1.9,2.48,8,3.72,7.26,2.48-10.6,3.72-11.76,2.48,2.31,3.72,4.84,2.49,8.18,3.73,10.37c1.15,2,2.57,2.08,3.72,2.77,1,.59,2.74,3.55,3.72,1.73,1.24-2.31,2.48-14.84,3.72-15.56s2.48,9.42,3.73,11.24c1.06,1.55,2.65.2,3.72-.35,1.24-.63,2.48-3.95,3.72-3.46s2.48,5.68,3.72,6.4,2.48-1.38,3.72-2.07,2.49-2.48,3.73-2.08,2.48,4.73,3.72,4.5,2.48-4.5,3.72-5.88,2.48-3.49,3.72-2.42,2.49,6.74,3.73,8.81,2.48,3.52,3.72,3.63,2.48-3,3.72-2.93,2.48,3.45,3.72,3.28,2.48-2,3.73-4.32,2.48-9.08,3.72-9.85,2.48,4.61,3.72,5.18c1,.47,2.7.07,3.72-1.73,1.24-2.19,2.48-11.17,3.72-11.41s2.49,9.05,3.73,10,2.48-5.5,3.72-4.15,2.48,11.29,3.72,12.27,2.48-3.6,3.72-6.39,2.49-8.82,3.73-10.37c.89-1.13,2.82,2.77,3.72,1,1.24-2.39,2.48-12.47,3.72-15.38.7-1.63,3,0,3.72-2.07,1.24-3.63,2.48-17.17,3.73-19.71.55-1.14,3.16,7.38,3.72,4.5,1.24-6.4,2.48-39.59,3.72-42.87s2.48,14.63,3.72,23.16,2.48,29.1,3.72,28,2.49-25.43,3.73-34.57c1-7.77,2.66-10,3.72-20.22,1.24-12,2.48-55.08,3.72-51.85s2.48,57.47,3.72,71.21a26,26,0,0,0,3.73,11.23c1.24,1.59,2.48-2.59,3.72-1.72s2.48,3.51,3.72,6.91a62.73,62.73,0,0,1,3.72,13.48c1.24,7.49,2.48,20.23,3.73,31.46s2.48,24,3.72,35.95" transform="translate(-5.6 -5.12)"/><path class="cls-7" d="M30,216.57c1.25-.06,2.49-.18,3.73-.18s2.48.15,3.72.18,2.48,0,3.72,0H63.47c1.24,0,2.48,0,3.72,0s2.48-.18,3.72-.18,2.48.15,3.72.18,2.48,0,3.72,0h148.9c1.24,0,2.48,0,3.72,0s2.48-.18,3.72-.18,2.48.15,3.72.18,2.49,0,3.73,0h85.61c1.24,0,2.48,0,3.72,0s2.48-.18,3.72-.18,2.49.15,3.73.18,2.48,0,3.72,0h3.72c1.24,0,2.48,0,3.72,0s2.48-.18,3.73-.18,2.48.15,3.72.18,2.48,0,3.72,0h14.89c1.24,0,2.48,0,3.72,0s2.48-.18,3.72-.18,2.49.15,3.73.18,2.48,0,3.72,0h7.44c1.24,0,2.48.46,3.73,0s2.48-2.77,3.72-2.77,2.48,2.31,3.72,2.77,2.48,0,3.72,0h11.17c1.24,0,2.48,0,3.72,0s2.48-.18,3.72-.18,2.49.15,3.73.18,2.48,0,3.72,0,2.48-.18,3.72-.18,2.48.15,3.72.18,2.48,0,3.73,0h40.94c1.24,0,2.48,0,3.72,0s2.48-.18,3.73-.18,2.48.15,3.72.18,2.48,0,3.72,0,2.48-.18,3.72-.18,2.48.15,3.72.18,2.49,0,3.73,0h3.72c1.24,0,2.48,0,3.72,0s2.48-.15,3.72-.18,2.49,0,3.73,0,2.48.18,3.72.18,2.48-.12,3.72-.18,2.48-.2,3.72-.17,2.48.29,3.73.35,2.48,0,3.72,0h11.16c1.25,0,2.49,0,3.73,0s2.48-.18,3.72-.18,2.48.15,3.72.18,2.48,0,3.72,0h7.45a27.17,27.17,0,0,0,3.72,0c1.24-.18,2.48-1,3.72-1s2.48.89,3.73,1a27.26,27.26,0,0,0,3.72-.18c1.24,0,2.48,0,3.72,0s2.48,0,3.72,0,2.48.21,3.72.18,2.49-.35,3.73-.35,2.48.32,3.72.35,2.48-.18,3.72-.18,2.48.15,3.72.18,2.49,0,3.73,0,2.48,0,3.72,0,2.48-.18,3.72-.18,2.48.15,3.72.18,2.48,0,3.73,0H659c1.25,0,2.49.08,3.73,0s2.48-.49,3.72-.52,2.48.26,3.72.34,2.48.15,3.72.18,2.49.06,3.73,0,2.48-.32,3.72-.35,2.48.12,3.72.17,2.48.15,3.72.18,2.48,0,3.73,0h3.72a33,33,0,0,0,3.72,0c1.24-.15,2.48-.87,3.72-.87s2.48.72,3.72.87a33.15,33.15,0,0,0,3.73,0c1.24,0,2.48.08,3.72,0s2.48-.43,3.72-.52a25.66,25.66,0,0,1,3.72,0c1.24.09,2.49.43,3.73.52a28.86,28.86,0,0,0,3.72,0c1.24-.09,2.48-.52,3.72-.52s2.48.95,3.72.52,2.48-3.11,3.73-3.11,2.48,2.65,3.72,3.11,2.48-.32,3.72-.35,2.48.15,3.72.17,2.48,0,3.72,0,2.49-.17,3.73-.17,2.48.17,3.72.17,2.48-.11,3.72-.17,2.48-.2,3.72-.17,2.49.63,3.73.34,2.48-2,3.72-2.07,2.48,1.35,3.72,1.73a10.63,10.63,0,0,0,3.72.52c1.24-.09,2.48-.92,3.73-1a23.41,23.41,0,0,1,3.72.35c1.24.08,2.48.17,3.72.17s2.48-.17,3.72-.17,2.48.2,3.72.17,2.49-.23,3.73-.35,2.48-.28,3.72-.34,2.48.06,3.72,0,2.48-.32,3.72-.35,2.49.26,3.73.17a32.38,32.38,0,0,0,3.72-.69c1.24-.23,2.48-1,3.72-.69s2.48,2.13,3.72,2.42a3.91,3.91,0,0,0,3.73-.69,18.64,18.64,0,0,0,3.72-5.53c1.24-2.45,2.48-10,3.72-9.16s2.48,11.9,3.72,14.17c.91,1.67,2.82-.54,3.72-.52a34.41,34.41,0,0,1,3.73.69c1.24.18,2.48.21,3.72.35a20.69,20.69,0,0,0,3.72.52c1.24-.09,2.48-.89,3.72-1s2.49.2,3.73.17,2.48.41,3.72-.34,2.48-3.69,3.72-4.15,2.48.72,3.72,1.38,2.48,2.37,3.73,2.6,2.48-1.3,3.72-1.21,2.48,1.47,3.72,1.72,2.48-.37,3.72-.17,2.48,1.44,3.72,1.38,2.49-1.23,3.73-1.72a18.54,18.54,0,0,1,3.72-1.21c1.24-.21,2.48.14,3.72,0s2.48-.67,3.72-.87,2.49-.14,3.73-.34,2.48-.78,3.72-.87a18.74,18.74,0,0,1,3.72.35c1.24.17,2.48,0,3.72.69s2.48,2.91,3.73,3.28,2.48-1,3.72-1,2.48.66,3.72.69a11.12,11.12,0,0,0,3.72-.52c1.24-.4,2.48-1.53,3.72-1.9s2.52,1.1,3.73-.35,2.48-6.08,3.72-8.64,2.48-3.28,3.72-6.74,2.48-11.84,3.72-14c1-1.69,2.75,2.16,3.73,1,1.24-1.45,2.48-7.61,3.72-9.68s2.52-2.74,3.72-2.77,2.48,1.53,3.72,2.59,2.48,4,3.73,3.81c.68-.1,3-1.85,3.72-4.84,1.24-5.42,2.48-20.05,3.72-27.66s2.48-14.66,3.72-18c.74-2,3-1.91,3.72-1.9.49,0,3.24,0,3.73,2.08,1.24,5.33,2.48,23.56,3.72,29.9a20.28,20.28,0,0,0,3.72,8.12c1.24,2,2.48,2.62,3.72,3.81s2.49,4.23,3.73,3.28,2.48-9.74,3.72-9,2.48,11.47,3.72,13.48c1,1.71,2.67-1.4,3.72-1.38a4.55,4.55,0,0,1,3.73,1.56c1.24,1.38,2.48,7.14,3.72,6.74s2.48-8.24,3.72-9.16,2.48,3.92,3.72,3.63,2.48-4.15,3.72-5.36,2.49-2.8,3.73-1.9,2.48,8,3.72,7.26,2.48-10.6,3.72-11.76,2.48,2.31,3.72,4.84,2.49,8.18,3.73,10.37c1.15,2,2.57,2.08,3.72,2.77,1,.59,2.74,3.55,3.72,1.73,1.24-2.31,2.48-14.84,3.72-15.56s2.48,9.42,3.73,11.24c1.06,1.55,2.65.2,3.72-.35,1.24-.63,2.48-3.95,3.72-3.46s2.48,5.68,3.72,6.4,2.48-1.38,3.72-2.07,2.49-2.48,3.73-2.08,2.48,4.73,3.72,4.5,2.48-4.5,3.72-5.88,2.48-3.49,3.72-2.42,2.49,6.74,3.73,8.81,2.48,3.52,3.72,3.63,2.48-3,3.72-2.93,2.48,3.45,3.72,3.28,2.48-2,3.73-4.32,2.48-9.08,3.72-9.85,2.48,4.61,3.72,5.18c1,.47,2.7.07,3.72-1.73,1.24-2.19,2.48-11.17,3.72-11.41s2.49,9.05,3.73,10,2.48-5.5,3.72-4.15,2.48,11.29,3.72,12.27,2.48-3.6,3.72-6.39,2.49-8.82,3.73-10.37c.89-1.13,2.82,2.77,3.72,1,1.24-2.39,2.48-12.47,3.72-15.38.7-1.63,3,0,3.72-2.07,1.24-3.63,2.48-17.17,3.73-19.71.55-1.14,3.16,7.38,3.72,4.5,1.24-6.4,2.48-39.59,3.72-42.87s2.48,14.63,3.72,23.16,2.48,29.1,3.72,28,2.49-25.43,3.73-34.57c1-7.77,2.66-10,3.72-20.22,1.24-12,2.48-55.08,3.72-51.85s2.48,57.47,3.72,71.21a26,26,0,0,0,3.73,11.23c1.24,1.59,2.48-2.59,3.72-1.72s2.48,3.51,3.72,6.91a62.73,62.73,0,0,1,3.72,13.48c1.24,7.49,2.48,20.23,3.73,31.46s2.48,24,3.72,35.95" transform="translate(-5.6 -5.12)"/></g><g class="cls-4"><g class="cls-8"><text class="cls-9" transform="translate(11.58 213.38) scale(0.99 1)">0</text></g></g><g class="cls-4"><g class="cls-8"><text class="cls-10" transform="translate(3.86 178.87) scale(0.99 1)">2<tspan class="cls-11" x="4.11" y="0">0</tspan><tspan class="cls-12" x="7.71" y="0">0</tspan></text></g></g><g class="cls-4"><g class="cls-8"><text class="cls-10" transform="translate(3.86 144.35) scale(0.99 1)">4<tspan class="cls-11" x="4.11" y="0">0</tspan><tspan class="cls-12" x="7.71" y="0">0</tspan></text></g></g><g class="cls-4"><g class="cls-8"><text class="cls-10" transform="translate(3.86 109.84) scale(0.99 1)">6<tspan class="cls-11" x="4.11" y="0">0</tspan><tspan class="cls-12" x="7.71" y="0">0</tspan></text></g></g><g class="cls-4"><g class="cls-8"><text class="cls-10" transform="translate(3.86 75.33) scale(0.99 1)">8<tspan class="cls-11" x="4.11" y="0">0</tspan><tspan class="cls-12" x="7.71" y="0">0</tspan></text></g></g><g class="cls-4"><g class="cls-8"><text class="cls-9" transform="translate(0 40.8) scale(0.99 1)"><tspan class="cls-13">1</tspan><tspan class="cls-11" x="4.11" y="0">0</tspan><tspan class="cls-13" x="7.71" y="0">0</tspan><tspan x="11.82" y="0">0</tspan></text></g></g><g class="cls-4"><g class="cls-8"><text class="cls-9" transform="translate(0 6.29) scale(0.99 1)"><tspan class="cls-13">1</tspan><tspan class="cls-11" x="4.11" y="0">2</tspan><tspan class="cls-13" x="7.71" y="0">0</tspan><tspan x="11.82" y="0">0</tspan></text></g></g></g></g></svg>