<?xml version="1.0" encoding="utf-8"?>
<!-- Generator: Adobe Illustrator 24.3.0, SVG Export Plug-In . SVG Version: 6.00 Build 0)  -->
<svg version="1.1" id="Слой_1" xmlns="http://www.w3.org/2000/svg" xmlns:xlink="http://www.w3.org/1999/xlink" x="0px" y="0px"
	 viewBox="0 0 374.5 54.2" style="enable-background:new 0 0 374.5 54.2;" xml:space="preserve">
<style type="text/css">
	
		.st0{fill-rule:evenodd;clip-rule:evenodd;fill:#D7191C;stroke:#999595;stroke-width:0.74;stroke-linecap:square;stroke-linejoin:bevel;}
	
		.st1{fill-rule:evenodd;clip-rule:evenodd;fill:#E85B3A;stroke:#999595;stroke-width:0.74;stroke-linecap:square;stroke-linejoin:bevel;}
	
		.st2{fill-rule:evenodd;clip-rule:evenodd;fill:#F99E59;stroke:#999595;stroke-width:0.74;stroke-linecap:square;stroke-linejoin:bevel;}
	
		.st3{fill-rule:evenodd;clip-rule:evenodd;fill:#FEC171;stroke:#999595;stroke-width:0.74;stroke-linecap:square;stroke-linejoin:bevel;}
	
		.st4{fill-rule:evenodd;clip-rule:evenodd;fill:#FFEDAA;stroke:#999595;stroke-width:0.74;stroke-linecap:square;stroke-linejoin:bevel;}
	
		.st5{fill-rule:evenodd;clip-rule:evenodd;fill:#EDF8B9;stroke:#999595;stroke-width:0.74;stroke-linecap:square;stroke-linejoin:bevel;}
	
		.st6{fill-rule:evenodd;clip-rule:evenodd;fill:#C7E9AD;stroke:#999595;stroke-width:0.74;stroke-linecap:square;stroke-linejoin:bevel;}
	
		.st7{fill-rule:evenodd;clip-rule:evenodd;fill:#9DD3A7;stroke:#999595;stroke-width:0.74;stroke-linecap:square;stroke-linejoin:bevel;}
	
		.st8{fill-rule:evenodd;clip-rule:evenodd;fill:#64ABB0;stroke:#999595;stroke-width:0.74;stroke-linecap:square;stroke-linejoin:bevel;}
	
		.st9{fill-rule:evenodd;clip-rule:evenodd;fill:#2B83BA;stroke:#999595;stroke-width:0.74;stroke-linecap:square;stroke-linejoin:bevel;}
	.st10{fill:#DDD7D7;}
	.st11{font-family:'SansSerif';}
	.st12{font-size:11.9px;}
	.st13{fill:none;stroke:#999595;stroke-width:0.74;stroke-linecap:square;stroke-linejoin:bevel;}
</style>
<g id="Слой_1-2">
	<path class="st0" d="M13,32.5V0.4h34.5v32.2H13"/>
	<path class="st1" d="M47.5,32.5V0.4h34.5v32.2H47.5"/>
	<path class="st2" d="M82.1,32.5V0.4h34.5v32.2H82.1"/>
	<path class="st3" d="M116.6,32.5V0.4h34.5v32.2H116.6"/>
	<path class="st4" d="M151.1,32.5V0.4h34.5v32.2H151.1"/>
	<path class="st5" d="M185.7,32.5V0.4h34.5v32.2H185.7"/>
	<path class="st6" d="M220.2,32.5V0.4h34.6v32.2H220.2"/>
	<path class="st7" d="M254.8,32.5V0.4h34.5v32.2H254.8"/>
	<path class="st8" d="M289.3,32.5V0.4h34.5v32.2H289.3"/>
	<path class="st9" d="M323.9,32.5V0.4h34.5v32.2H323.9"/>
	<text transform="matrix(1 0 0 1 348.02 51.36)" class="st10 st11 st12">2021</text>
	<text transform="matrix(1 0 0 1 312.48 51.36)" class="st10 st11 st12">2010</text>
	<text transform="matrix(1 0 0 1 276.23 51.62)" class="st10 st11 st12">1991</text>
	<text transform="matrix(1 0 0 1 241.52 51.36)" class="st10 st11 st12">1982</text>
	<text transform="matrix(1 0 0 1 207.28 51.36)" class="st10 st11 st12">1964</text>
	<text transform="matrix(1 0 0 1 173.07 51.36)" class="st10 st11 st12">1953</text>
	<text transform="matrix(1 0 0 1 137.92 51.36)" class="st10 st11 st12">1922</text>
	<text transform="matrix(1 0 0 1 102.87 51.36)" class="st10 st11 st12">1900</text>
	<text transform="matrix(1 0 0 1 68.91 51.36)" class="st10 st11 st12">1880</text>
	<text transform="matrix(1 0 0 1 34.21 51.36)" class="st10 st11 st12">1850</text>
	<text transform="matrix(1 0 0 1 0 51.36)" class="st10 st11 st12">1700</text>
	<line class="st13" x1="47.5" y1="32.5" x2="47.5" y2="38.4"/>
	<line class="st13" x1="13" y1="32.5" x2="13" y2="38.4"/>
	<line class="st13" x1="82.1" y1="32.5" x2="82.1" y2="38.4"/>
	<line class="st13" x1="116.6" y1="32.5" x2="116.6" y2="38.4"/>
	<line class="st13" x1="151.1" y1="32.5" x2="151.1" y2="38.4"/>
	<line class="st13" x1="185.7" y1="32.5" x2="185.7" y2="38.4"/>
	<line class="st13" x1="220.2" y1="32.5" x2="220.2" y2="38.4"/>
	<line class="st13" x1="254.8" y1="32.5" x2="254.8" y2="38.4"/>
	<line class="st13" x1="289.3" y1="32.5" x2="289.3" y2="38.4"/>
	<line class="st13" x1="323.9" y1="32.5" x2="323.9" y2="38.4"/>
	<line class="st13" x1="358.4" y1="32.5" x2="358.4" y2="38.4"/>
</g>
</svg>
