<svg xmlns="http://www.w3.org/2000/svg" xmlns:xlink="http://www.w3.org/1999/xlink" viewBox="0 0 1218.4 178.75"><defs><style>.cls-1,.cls-3{fill:none;}.cls-1{clip-rule:evenodd;}.cls-2{clip-path:url(#clip-path);}.cls-3{stroke:#4d8196;stroke-linecap:round;stroke-linejoin:round;stroke-width:1.03px;}</style><clipPath id="clip-path" transform="translate(-1.52 -29.28)"><polygon class="cls-1" points="0 207.77 1221.94 207.77 1221.94 0 0 0 0 207.77 0 207.77"/></clipPath></defs><g id="Слой_2" data-name="Слой 2"><g id="Слой_1-2" data-name="Слой 1"><g class="cls-2"><path class="cls-3" d="M2,207.31c1.27-.06,2.53-.17,3.79-.17s2.53.14,3.8.17,2.52,0,3.79,0H36.16c1.27,0,2.53,0,3.8,0s2.52-.17,3.79-.17,2.53.14,3.79.17,2.53,0,3.79,0H203c1.27,0,2.53,0,3.79,0s2.53-.17,3.8-.17,2.52.14,3.79.17,2.53,0,3.79,0h87.23c1.26,0,2.53,0,3.79,0s2.53-.17,3.79-.17,2.53.14,3.79.17,2.53,0,3.8,0h3.79c1.26,0,2.53,0,3.79,0s2.53-.17,3.79-.17,2.53.14,3.8.17,2.52,0,3.79,0h15.17c1.26,0,2.53,0,3.79,0s2.53-.17,3.79-.17,2.53.14,3.8.17,2.52,0,3.79,0h7.58c1.27,0,2.53.46,3.8,0s2.52-2.77,3.79-2.77,2.53,2.31,3.79,2.77,2.53,0,3.79,0H404c1.26,0,2.53,0,3.79,0s2.53-.17,3.8-.17,2.52.14,3.79.17,2.53,0,3.79,0,2.53-.17,3.79-.17,2.53.14,3.8.17,2.52,0,3.79,0h41.71c1.27,0,2.53,0,3.8,0s2.53-.17,3.79-.17,2.53.14,3.79.17,2.53,0,3.79,0,2.53-.17,3.8-.17,2.52.14,3.79.17,2.53,0,3.79,0h3.79c1.27,0,2.53,0,3.8,0s2.52-.14,3.79-.17,2.53,0,3.79,0,2.53.17,3.79.17,2.53-.11,3.8-.17,2.52-.2,3.79-.18,2.53.29,3.79.35,2.53,0,3.79,0h11.38c1.26,0,2.53,0,3.79,0s2.53-.17,3.8-.17,2.52.14,3.79.17,2.53,0,3.79,0h7.59a28.2,28.2,0,0,0,3.79,0c1.26-.17,2.53-1,3.79-1s2.53.9,3.79,1a28.43,28.43,0,0,0,3.8-.17c1.26,0,2.52,0,3.79,0s2.53,0,3.79,0,2.53.2,3.79.17,2.53-.35,3.8-.35,2.52.32,3.79.35,2.53-.17,3.79-.17,2.53.14,3.79.17,2.53,0,3.79,0,2.53,0,3.8,0,2.53-.17,3.79-.17,2.53.14,3.79.17,2.53,0,3.79,0H643c1.27,0,2.53.09,3.8,0s2.53-.49,3.79-.52,2.53.26,3.79.35,2.53.14,3.79.17,2.53.06,3.8,0,2.52-.32,3.79-.35,2.53.12,3.79.18,2.53.14,3.79.17,2.53,0,3.8,0h3.79a34.23,34.23,0,0,0,3.79,0c1.27-.14,2.53-.86,3.79-.86s2.53.72,3.8.86a34.23,34.23,0,0,0,3.79,0c1.26,0,2.53.09,3.79,0s2.53-.43,3.79-.52a30.11,30.11,0,0,1,3.8,0c1.26.09,2.52.43,3.79.52a26.63,26.63,0,0,0,3.79,0c1.26-.09,2.53-.52,3.79-.52s2.53,1,3.8.52,2.52-3.11,3.79-3.11,2.53,2.65,3.79,3.11,2.53-.32,3.79-.35,2.53.15,3.8.18,2.52,0,3.79,0,2.53-.18,3.79-.18,2.53.18,3.79.18,2.53-.12,3.8-.18,2.52-.2,3.79-.17,2.53.64,3.79.35,2.53-2,3.79-2.08,2.53,1.36,3.79,1.73a10.62,10.62,0,0,0,3.8.52c1.26-.09,2.53-.92,3.79-1a24.28,24.28,0,0,1,3.79.35c1.27.09,2.53.17,3.79.17s2.53-.17,3.8-.17,2.53.2,3.79.17,2.53-.23,3.79-.34,2.53-.29,3.79-.35,2.53.06,3.8,0,2.53-.32,3.79-.35,2.53.26,3.79.18a35.48,35.48,0,0,0,3.79-.69c1.27-.23,2.53-1,3.8-.7s2.52,2.14,3.79,2.42a4,4,0,0,0,3.79-.69,18.32,18.32,0,0,0,3.79-5.53c1.27-2.45,2.53-10,3.8-9.16s2.52,11.9,3.79,14.17c.94,1.7,2.85-.54,3.79-.51a33.15,33.15,0,0,1,3.79.69c1.27.17,2.53.2,3.8.34a20.44,20.44,0,0,0,3.79.52c1.26-.08,2.53-.89,3.79-1s2.53.21,3.79.18,2.53.4,3.8-.35,2.52-3.69,3.79-4.15,2.53.72,3.79,1.39,2.53,2.36,3.79,2.59,2.53-1.3,3.8-1.21,2.52,1.47,3.79,1.73,2.53-.38,3.79-.18,2.53,1.45,3.79,1.39,2.53-1.24,3.8-1.73a18.94,18.94,0,0,1,3.79-1.21c1.26-.2,2.53.14,3.79,0s2.53-.66,3.79-.86,2.53-.15,3.8-.35,2.52-.78,3.79-.86a18.69,18.69,0,0,1,3.79.34c1.26.17,2.53,0,3.79.69s2.53,2.91,3.8,3.29,2.52-1,3.79-1,2.53.66,3.79.69a11.27,11.27,0,0,0,3.79-.52c1.27-.4,2.53-1.52,3.79-1.9s2.56,1.12,3.8-.34,2.53-6.08,3.79-8.65,2.53-3.28,3.79-6.74,2.53-11.84,3.79-14c1-1.71,2.79,2.18,3.8,1,1.26-1.44,2.53-7.61,3.79-9.68s2.56-2.74,3.79-2.77,2.53,1.53,3.79,2.6,2.53,4,3.8,3.8c.7-.1,3.09-1.83,3.79-4.84,1.26-5.42,2.53-20,3.79-27.66s2.53-14.66,3.79-18c.77-2,3-1.92,3.8-1.9.5,0,3.29,0,3.79,2.07,1.26,5.33,2.53,23.56,3.79,29.9a20.32,20.32,0,0,0,3.79,8.13c1.27,2,2.53,2.62,3.8,3.8s2.52,4.23,3.79,3.28,2.53-9.73,3.79-9,2.53,11.47,3.79,13.49c1.08,1.72,2.72-1.41,3.8-1.39a4.7,4.7,0,0,1,3.79,1.56c1.26,1.38,2.53,7.14,3.79,6.74s2.53-8.24,3.79-9.16,2.53,3.92,3.8,3.63,2.52-4.15,3.79-5.36,2.53-2.79,3.79-1.9,2.53,8,3.79,7.26,2.53-10.6,3.8-11.75,2.52,2.3,3.79,4.84,2.53,8.18,3.79,10.37c1.18,2,2.61,2.06,3.79,2.76,1,.6,2.78,3.57,3.8,1.73,1.26-2.3,2.52-14.84,3.79-15.56s2.53,9.42,3.79,11.24c1.1,1.58,2.69.2,3.79-.35,1.27-.63,2.53-3.94,3.8-3.45s2.52,5.67,3.79,6.39,2.53-1.38,3.79-2.07,2.53-2.48,3.79-2.08,2.53,4.73,3.8,4.5,2.52-4.5,3.79-5.88,2.53-3.48,3.79-2.42,2.53,6.74,3.79,8.82,2.53,3.51,3.79,3.63,2.53-3,3.8-2.94,2.53,3.45,3.79,3.28,2.53-2,3.79-4.32,2.53-9.07,3.79-9.85,2.53,4.61,3.8,5.18c1,.48,2.74.09,3.79-1.72,1.26-2.19,2.53-11.18,3.79-11.41s2.53,9,3.79,10,2.53-5.5,3.8-4.15,2.53,11.3,3.79,12.28,2.53-3.6,3.79-6.4,2.53-8.81,3.79-10.37c.93-1.14,2.87,2.79,3.8,1,1.26-2.39,2.52-12.48,3.79-15.39.72-1.65,3.07,0,3.79-2.07,1.27-3.63,2.53-17.17,3.79-19.7.58-1.15,3.22,7.39,3.8,4.49,1.26-6.4,2.52-39.58,3.79-42.87s2.53,14.64,3.79,23.16,2.53,29.1,3.79,28,2.53-25.44,3.8-34.57c1.07-7.78,2.71-10,3.79-20.23,1.26-12,2.53-55.08,3.79-51.85s2.53,57.47,3.79,71.21a25.65,25.65,0,0,0,3.8,11.24c1.26,1.58,2.52-2.6,3.79-1.73s2.53,3.51,3.79,6.91a61.44,61.44,0,0,1,3.79,13.48c1.27,7.49,2.53,21,3.8,31.46" transform="translate(-1.52 -29.28)"/><path class="cls-3" d="M2,207.31c1.27-.06,2.53-.17,3.79-.17s2.53.14,3.8.17,2.52,0,3.79,0H36.16c1.27,0,2.53,0,3.8,0s2.52-.17,3.79-.17,2.53.14,3.79.17,2.53,0,3.79,0H203c1.27,0,2.53,0,3.79,0s2.53-.17,3.8-.17,2.52.14,3.79.17,2.53,0,3.79,0h87.23c1.26,0,2.53,0,3.79,0s2.53-.17,3.79-.17,2.53.14,3.79.17,2.53,0,3.8,0h3.79c1.26,0,2.53,0,3.79,0s2.53-.17,3.79-.17,2.53.14,3.8.17,2.52,0,3.79,0h15.17c1.26,0,2.53,0,3.79,0s2.53-.17,3.79-.17,2.53.14,3.8.17,2.52,0,3.79,0h7.58c1.27,0,2.53.46,3.8,0s2.52-2.77,3.79-2.77,2.53,2.31,3.79,2.77,2.53,0,3.79,0H404c1.26,0,2.53,0,3.79,0s2.53-.17,3.8-.17,2.52.14,3.79.17,2.53,0,3.79,0,2.53-.17,3.79-.17,2.53.14,3.8.17,2.52,0,3.79,0h41.71c1.27,0,2.53,0,3.8,0s2.53-.17,3.79-.17,2.53.14,3.79.17,2.53,0,3.79,0,2.53-.17,3.8-.17,2.52.14,3.79.17,2.53,0,3.79,0h3.79c1.27,0,2.53,0,3.8,0s2.52-.14,3.79-.17,2.53,0,3.79,0,2.53.17,3.79.17,2.53-.11,3.8-.17,2.52-.2,3.79-.18,2.53.29,3.79.35,2.53,0,3.79,0h11.38c1.26,0,2.53,0,3.79,0s2.53-.17,3.8-.17,2.52.14,3.79.17,2.53,0,3.79,0h7.59a28.2,28.2,0,0,0,3.79,0c1.26-.17,2.53-1,3.79-1s2.53.9,3.79,1a28.43,28.43,0,0,0,3.8-.17c1.26,0,2.52,0,3.79,0s2.53,0,3.79,0,2.53.2,3.79.17,2.53-.35,3.8-.35,2.52.32,3.79.35,2.53-.17,3.79-.17,2.53.14,3.79.17,2.53,0,3.79,0,2.53,0,3.8,0,2.53-.17,3.79-.17,2.53.14,3.79.17,2.53,0,3.79,0H643c1.27,0,2.53.09,3.8,0s2.53-.49,3.79-.52,2.53.26,3.79.35,2.53.14,3.79.17,2.53.06,3.8,0,2.52-.32,3.79-.35,2.53.12,3.79.18,2.53.14,3.79.17,2.53,0,3.8,0h3.79a34.23,34.23,0,0,0,3.79,0c1.27-.14,2.53-.86,3.79-.86s2.53.72,3.8.86a34.23,34.23,0,0,0,3.79,0c1.26,0,2.53.09,3.79,0s2.53-.43,3.79-.52a30.11,30.11,0,0,1,3.8,0c1.26.09,2.52.43,3.79.52a26.63,26.63,0,0,0,3.79,0c1.26-.09,2.53-.52,3.79-.52s2.53,1,3.8.52,2.52-3.11,3.79-3.11,2.53,2.65,3.79,3.11,2.53-.32,3.79-.35,2.53.15,3.8.18,2.52,0,3.79,0,2.53-.18,3.79-.18,2.53.18,3.79.18,2.53-.12,3.8-.18,2.52-.2,3.79-.17,2.53.64,3.79.35,2.53-2,3.79-2.08,2.53,1.36,3.79,1.73a10.62,10.62,0,0,0,3.8.52c1.26-.09,2.53-.92,3.79-1a24.28,24.28,0,0,1,3.79.35c1.27.09,2.53.17,3.79.17s2.53-.17,3.8-.17,2.53.2,3.79.17,2.53-.23,3.79-.34,2.53-.29,3.79-.35,2.53.06,3.8,0,2.53-.32,3.79-.35,2.53.26,3.79.18a35.48,35.48,0,0,0,3.79-.69c1.27-.23,2.53-1,3.8-.7s2.52,2.14,3.79,2.42a4,4,0,0,0,3.79-.69,18.32,18.32,0,0,0,3.79-5.53c1.27-2.45,2.53-10,3.8-9.16s2.52,11.9,3.79,14.17c.94,1.7,2.85-.54,3.79-.51a33.15,33.15,0,0,1,3.79.69c1.27.17,2.53.2,3.8.34a20.44,20.44,0,0,0,3.79.52c1.26-.08,2.53-.89,3.79-1s2.53.21,3.79.18,2.53.4,3.8-.35,2.52-3.69,3.79-4.15,2.53.72,3.79,1.39,2.53,2.36,3.79,2.59,2.53-1.3,3.8-1.21,2.52,1.47,3.79,1.73,2.53-.38,3.79-.18,2.53,1.45,3.79,1.39,2.53-1.24,3.8-1.73a18.94,18.94,0,0,1,3.79-1.21c1.26-.2,2.53.14,3.79,0s2.53-.66,3.79-.86,2.53-.15,3.8-.35,2.52-.78,3.79-.86a18.69,18.69,0,0,1,3.79.34c1.26.17,2.53,0,3.79.69s2.53,2.91,3.8,3.29,2.52-1,3.79-1,2.53.66,3.79.69a11.27,11.27,0,0,0,3.79-.52c1.27-.4,2.53-1.52,3.79-1.9s2.56,1.12,3.8-.34,2.53-6.08,3.79-8.65,2.53-3.28,3.79-6.74,2.53-11.84,3.79-14c1-1.71,2.79,2.18,3.8,1,1.26-1.44,2.53-7.61,3.79-9.68s2.56-2.74,3.79-2.77,2.53,1.53,3.79,2.6,2.53,4,3.8,3.8c.7-.1,3.09-1.83,3.79-4.84,1.26-5.42,2.53-20,3.79-27.66s2.53-14.66,3.79-18c.77-2,3-1.92,3.8-1.9.5,0,3.29,0,3.79,2.07,1.26,5.33,2.53,23.56,3.79,29.9a20.32,20.32,0,0,0,3.79,8.13c1.27,2,2.53,2.62,3.8,3.8s2.52,4.23,3.79,3.28,2.53-9.73,3.79-9,2.53,11.47,3.79,13.49c1.08,1.72,2.72-1.41,3.8-1.39a4.7,4.7,0,0,1,3.79,1.56c1.26,1.38,2.53,7.14,3.79,6.74s2.53-8.24,3.79-9.16,2.53,3.92,3.8,3.63,2.52-4.15,3.79-5.36,2.53-2.79,3.79-1.9,2.53,8,3.79,7.26,2.53-10.6,3.8-11.75,2.52,2.3,3.79,4.84,2.53,8.18,3.79,10.37c1.18,2,2.61,2.06,3.79,2.76,1,.6,2.78,3.57,3.8,1.73,1.26-2.3,2.52-14.84,3.79-15.56s2.53,9.42,3.79,11.24c1.1,1.58,2.69.2,3.79-.35,1.27-.63,2.53-3.94,3.8-3.45s2.52,5.67,3.79,6.39,2.53-1.38,3.79-2.07,2.53-2.48,3.79-2.08,2.53,4.73,3.8,4.5,2.52-4.5,3.79-5.88,2.53-3.48,3.79-2.42,2.53,6.74,3.79,8.82,2.53,3.51,3.79,3.63,2.53-3,3.8-2.94,2.53,3.45,3.79,3.28,2.53-2,3.79-4.32,2.53-9.07,3.79-9.85,2.53,4.61,3.8,5.18c1,.48,2.74.09,3.79-1.72,1.26-2.19,2.53-11.18,3.79-11.41s2.53,9,3.79,10,2.53-5.5,3.8-4.15,2.53,11.3,3.79,12.28,2.53-3.6,3.79-6.4,2.53-8.81,3.79-10.37c.93-1.14,2.87,2.79,3.8,1,1.26-2.39,2.52-12.48,3.79-15.39.72-1.65,3.07,0,3.79-2.07,1.27-3.63,2.53-17.17,3.79-19.7.58-1.15,3.22,7.39,3.8,4.49,1.26-6.4,2.52-39.58,3.79-42.87s2.53,14.64,3.79,23.16,2.53,29.1,3.79,28,2.53-25.44,3.8-34.57c1.07-7.78,2.71-10,3.79-20.23,1.26-12,2.53-55.08,3.79-51.85s2.53,57.47,3.79,71.21a25.65,25.65,0,0,0,3.8,11.24c1.26,1.58,2.52-2.6,3.79-1.73s2.53,3.51,3.79,6.91a61.44,61.44,0,0,1,3.79,13.48c1.27,7.49,2.53,21,3.8,31.46" transform="translate(-1.52 -29.28)"/></g></g></g></svg>